<svg xmlns="http://www.w3.org/2000/svg" width="107.103" height="180" viewBox="0 0 107.103 180">
  <g id="building_lineart_kensington" transform="translate(-96 -9.125)">
    <g id="Group_16242" data-name="Group 16242" transform="translate(96 9.125)">
      <g id="Group_16241" data-name="Group 16241">
        <path id="Path_7532" data-name="Path 7532" d="M96.3,188.83h0l.694-94.322v-.3c0-1.09,0-3.27.892-3.963.892-.793,6.242-3.666,6.935-4.062-.1-.3-.2-1.189,1.09-1.982,1.387-.892,13.871-8.124,13.97-8.124h.1l.793.5,7.827-4.459-2.378-.594a.1.1,0,0,1-.1-.1l-.2-.793v-.1l14.961-8.719h.1l2.18.594.5-.793s.1-.1.1,0l.3.1c.694-1.387,9.71-19.717,12.088-24.77,2.477-5.35,11.2-19.023,22.59-27.544h.1l.694.5V30.8l3.071-1.783h.1l12.385,4.26a.1.1,0,0,1,.1.1l.1,2.972c.694.2,5.548,1.783,6.242,2.081.793.3.793.3.594,3.765v1.189c-.2,4.558.1,46.864.2,47.26l.4,97.988c0,.1,0,.1-.1.1h0c-.1,0-.1,0-.1-.1l-.4-97.988c0-.4-.3-42.7-.2-47.26V42.195c.1-3.369.1-3.369-.5-3.567-.793-.3-6.242-2.081-6.341-2.18a.1.1,0,0,1-.1-.1l-.1-2.972L182.6,29.117,179.426,31h-.1V10.193l-.594-.5c-11.295,8.422-20.014,22.094-22.491,27.346-2.378,5.152-11.988,24.67-12.088,24.869,0,0-.1.1-.1,0l-.3-.1-.5.793s-.1.1-.1,0l-2.18-.594-14.862,8.719.1.594,2.576.594a.1.1,0,0,1,.1.1v.1l-8.025,4.558h-.1l-.793-.5c-.892.5-12.583,7.233-13.97,8.124s-.991,1.783-.991,1.783v.1c-.1,0-6.044,3.27-7.035,4.062-.892.694-.793,2.873-.793,3.864v.3L96.3,188.83Z" transform="translate(-96.002 -9.128)" fill="#f2eee8"/>
        <path id="Path_7533" data-name="Path 7533" d="M96.3,189.125h0c-.2,0-.3-.2-.3-.4l.793-94.223v-.3c0-1.189,0-3.369.991-4.161.892-.793,5.548-3.27,6.836-4.062-.1-.4,0-1.288,1.189-1.982,1.288-.793,11-6.44,13.871-8.124l.1-.1a.3.3,0,0,1,.4,0l.694.4L128,72.114l-1.783-.4q-.149,0-.3-.3l-.2-.793a.4.4,0,0,1,.2-.4l14.961-8.719c.1,0,.2-.1.3,0l1.982.594.4-.594c.1-.1.3-.2.4-.1h.1c1.387-2.774,9.71-19.717,11.988-24.571,2.477-5.35,11.295-19.122,22.689-27.643a.3.3,0,0,1,.4,0l.694.5a.364.364,0,0,1,.1.3V30.4l2.675-1.585a.186.186,0,0,1,.3,0l12.385,4.26c.1,0,.2.2.2.3l.1,2.774c.892.3,5.449,1.783,6.143,2.081.892.4.892.5.793,4.062V43.48c-.1,4.359.1,42.8.2,47.161v.1l.4,97.988a.316.316,0,0,1-.3.3.442.442,0,0,1-.4-.3l-.4-97.988c0-.4-.3-42.7-.2-47.26V42.291c.1-3.171.1-3.171-.3-3.369-.694-.3-5.35-1.783-6.242-2.081q-.3-.149-.3-.3l-.1-2.774-11.988-4.161-3.071,1.783a.186.186,0,0,1-.3,0c-.1-.1-.2-.2-.2-.3V10.289l-.3-.3c-11.2,8.422-19.816,21.9-22.293,27.147-2.378,5.152-11.988,24.67-12.087,24.869a.4.4,0,0,1-.4.2l-.1-.1-.4.594c-.1.1-.2.2-.4.1l-2.081-.594-14.664,8.521.1.3,2.477.594q.149,0,.3.3h0c0,.1-.1.3-.2.3l-8.025,4.558c-.1.1-.2.1-.4,0l-.694-.4c-1.387.793-12.484,7.233-13.772,8.025-1.189.694-.892,1.486-.892,1.486.1.2,0,.4-.2.4a77.554,77.554,0,0,0-6.935,4.062c-.793.694-.694,2.774-.694,3.666v.3l-.793,94.223Q96.594,189.125,96.3,189.125Zm106.509-.4Z" transform="translate(-96 -9.125)" fill="#f2eee8"/>
      </g>
    </g>
    <g id="Group_16244" data-name="Group 16244" transform="translate(96.793 64.717)">
      <g id="Group_16243" data-name="Group 16243" transform="translate(0)">
        <path id="Path_7534" data-name="Path 7534" d="M97.1,95.122h0c-.1-.2,0-.892,3.071-2.576,3.071-1.783,42.405-23.68,42.405-23.68l4.657-3.567h.1v.1l-4.657,3.567s-39.433,21.9-42.5,23.68C97.3,94.33,97.2,95.023,97.1,95.122Z" transform="translate(-96.802 -65.235)" fill="#f2eee8"/>
        <path id="Path_7535" data-name="Path 7535" d="M97.1,95.419h0a.316.316,0,0,1-.3-.3c0-.3.3-1.09,3.27-2.774,3.071-1.684,42.5-23.581,42.5-23.581l4.657-3.468c.2-.1.4-.1.5.1a.364.364,0,0,1,.1.3.346.346,0,0,1-.1.2l-4.657,3.567s-42.108,23.382-42.5,23.68c-2.675,1.486-2.873,2.18-2.873,2.18C97.394,95.221,97.3,95.419,97.1,95.419Zm-.2-.4Z" transform="translate(-96.8 -65.234)" fill="#f2eee8"/>
      </g>
    </g>
    <g id="Group_16246" data-name="Group 16246" transform="translate(96.694 73.402)">
      <g id="Group_16245" data-name="Group 16245">
        <path id="Path_7536" data-name="Path 7536" d="M97,102.042h0c-.1,0-.1-.1,0,0-.1-.2,0-1.288,4.756-3.765s40.622-20.707,41.018-20.905l4.359-3.071h.1v.1l-4.359,3.071c-.4.2-36.263,18.429-41.018,20.905C97.2,100.853,97.1,101.943,97,102.042Z" transform="translate(-96.702 -74.003)" fill="#f2eee8"/>
        <path id="Path_7537" data-name="Path 7537" d="M97,102.237h0a.316.316,0,0,1-.3-.3c0-.4.5-1.486,4.954-3.864,4.756-2.477,40.622-20.707,41.018-20.905l4.26-3.071a.364.364,0,0,1,.3-.1.346.346,0,0,1,.2.1.364.364,0,0,1,.1.3.346.346,0,0,1-.1.2l-4.359,3.071-1.189.594c-22.986,11.691-37.055,18.825-39.829,20.311-4.26,2.279-4.657,3.27-4.657,3.27C97.294,102.138,97.2,102.237,97,102.237Zm-.2-.3Z" transform="translate(-96.7 -74)" fill="#f2eee8"/>
      </g>
    </g>
    <g id="Group_16248" data-name="Group 16248" transform="translate(96.667 81.758)">
      <g id="Group_16247" data-name="Group 16247" transform="translate(0 0)">
        <path id="Path_7538" data-name="Path 7538" d="M97,108.858h0a.1.1,0,0,1-.1-.1,3.156,3.156,0,0,1,1.982-2.279c1.684-.694,43-20.212,43.4-20.41l5.053-3.171h.1V83l-5.053,3.171c-.4.2-41.712,19.717-43.4,20.41A3.452,3.452,0,0,0,97,108.858Z" transform="translate(-96.675 -82.439)" fill="#f2eee8"/>
        <path id="Path_7539" data-name="Path 7539" d="M97,109.052h0c-.2,0-.4-.2-.3-.4a3.432,3.432,0,0,1,2.18-2.477c1.585-.594,38.938-18.329,43.2-20.41l.1-.1L147.13,82.5c.2-.1.4-.1.5.1s.1.4-.1.5l-5.053,3.17c-.4.2-41.712,19.816-43.4,20.509a2.637,2.637,0,0,0-1.684,1.882C97.294,108.953,97.2,109.052,97,109.052Z" transform="translate(-96.673 -82.434)" fill="#f2eee8"/>
      </g>
    </g>
    <g id="Group_16250" data-name="Group 16250" transform="translate(96.594 90.895)">
      <g id="Group_16249" data-name="Group 16249" transform="translate(0)">
        <path id="Path_7540" data-name="Path 7540" d="M96.9,115.282h0a.1.1,0,0,1-.1-.1c0-.1.5-1.387,3.468-2.576,2.972-1.09,41.613-17.438,42.009-17.537l4.855-3.17h.1V92l-4.954,3.17c-.4.2-39.136,16.447-42.009,17.636-2.774,1.09-3.27,2.378-3.369,2.477Z" transform="translate(-96.602 -91.658)" fill="#f2eee8"/>
        <path id="Path_7541" data-name="Path 7541" d="M96.9,115.577h-.1a.213.213,0,0,1-.2-.2v-.3c.1-.2.594-1.585,3.666-2.675,2.873-1.09,41.613-17.438,42.009-17.537L147.13,91.7c.1,0,.2-.1.3,0a.346.346,0,0,1,.2.1c.1.2.1.4-.1.5l-4.954,3.171c-.4.2-39.136,16.447-42.108,17.636a6.906,6.906,0,0,0-3.27,2.279C97.1,115.478,97,115.577,96.9,115.577ZM147.328,92.1Z" transform="translate(-96.6 -91.656)" fill="#f2eee8"/>
      </g>
    </g>
    <g id="Group_16252" data-name="Group 16252" transform="translate(96.556 99.517)">
      <g id="Group_16251" data-name="Group 16251">
        <path id="Path_7542" data-name="Path 7542" d="M96.9,121.8h0a.1.1,0,0,1-.1-.1s.5-1.189,4.062-2.477c3.468-1.288,41.415-15.852,41.811-15.952l4.359-2.576h.1v.1l-4.359,2.675c-.4.2-38.343,14.763-41.811,15.952S97,121.7,96.9,121.8Z" transform="translate(-96.563 -100.362)" fill="#f2eee8"/>
        <path id="Path_7543" data-name="Path 7543" d="M96.9,122h-.1a.362.362,0,0,1-.2-.5c.1-.1.594-1.288,4.161-2.576,3.468-1.189,41.415-15.852,41.811-15.952l4.26-2.576a.436.436,0,0,1,.5.1c0,.1.1.2,0,.3a.213.213,0,0,1-.2.2l-4.359,2.675c-.4.2-38.343,14.763-41.811,16.051-3.27,1.189-3.765,2.18-3.765,2.18C97.1,121.9,97,122,96.9,122Zm50.034-21.4Z" transform="translate(-96.561 -100.359)" fill="#f2eee8"/>
      </g>
    </g>
    <g id="Group_16254" data-name="Group 16254" transform="translate(96.359 108.134)">
      <g id="Group_16253" data-name="Group 16253" transform="translate(0 0)">
        <path id="Path_7544" data-name="Path 7544" d="M96.7,128.621h0a.1.1,0,0,1-.1-.1c0-.1.3-1.288,3.864-2.378,3.468-.991,41.811-14.267,42.207-14.366l4.459-2.378h.1v.1l-4.458,2.378c-.4.1-38.74,13.376-42.207,14.366-3.468,1.09-3.765,2.279-3.864,2.378C96.8,128.522,96.8,128.621,96.7,128.621Z" transform="translate(-96.365 -109.059)" fill="#f2eee8"/>
        <path id="Path_7545" data-name="Path 7545" d="M96.7,128.816h0c-.3,0-.4-.2-.3-.4,0-.2.4-1.486,3.963-2.576,3.468-.991,41.811-14.267,42.207-14.366l4.359-2.378c.1,0,.2-.1.3,0a.213.213,0,0,1,.2.2c0,.1.1.2,0,.3s-.1.2-.2.2l-4.459,2.378c-.4.1-38.739,13.376-42.306,14.366-3.17.892-3.567,1.982-3.567,1.982C97.093,128.717,96.895,128.816,96.7,128.816ZM147.128,109.3Z" transform="translate(-96.362 -109.056)" fill="#f2eee8"/>
      </g>
    </g>
    <g id="Group_16256" data-name="Group 16256" transform="translate(96.099 116.699)">
      <g id="Group_16255" data-name="Group 16255">
        <path id="Path_7546" data-name="Path 7546" d="M96.5,135.34h0c-.1-.1-.1-.1-.1-.2a.346.346,0,0,0,.1-.2c.2-.4.694-1.288,3.963-2.18,4.062-1.09,41.514-12.187,41.91-12.286l4.657-2.279h.1v.1l-4.657,2.279c-.4.1-37.848,11.2-41.91,12.385-3.27.892-3.666,1.684-3.864,2.081,0,.1,0,.2-.2.3Z" transform="translate(-96.103 -117.704)" fill="#f2eee8"/>
        <path id="Path_7547" data-name="Path 7547" d="M96.5,135.534c-.1,0-.2-.1-.3-.2a.364.364,0,0,1-.1-.3.346.346,0,0,1,.1-.2.1.1,0,0,1,.1-.1c.2-.5.694-1.387,4.161-2.378,3.666-.991,35.371-10.4,41.613-12.286l.3-.1,4.657-2.279h.3a.213.213,0,0,1,.2.2.362.362,0,0,1-.2.5l-4.657,2.279c-.4.1-37.947,11.2-41.91,12.385-3.17.892-3.567,1.684-3.765,1.982-.1.1-.1.3-.3.4h-.1Zm.1-.2Zm50.629-17.041Z" transform="translate(-96.1 -117.7)" fill="#f2eee8"/>
      </g>
    </g>
    <g id="Group_16258" data-name="Group 16258" transform="translate(96.184 125.676)">
      <g id="Group_16257" data-name="Group 16257">
        <path id="Path_7548" data-name="Path 7548" d="M96.5,141.862h0c-.1-.2-.2-1.09,4.359-2.378s40.919-10.3,41.316-10.4L147.327,127c.1,0,.1,0,.1.1s0,.1-.1.1l-5.152,2.081c-.4.1-36.857,9.115-41.316,10.4-4.359,1.189-4.26,2.081-4.26,2.081,0,.1,0,.1-.1.1Z" transform="translate(-96.188 -126.763)" fill="#f2eee8"/>
        <path id="Path_7549" data-name="Path 7549" d="M96.5,142.157a.263.263,0,0,1-.3-.3c-.1-.4.2-1.387,4.558-2.576,4.26-1.189,37.451-9.412,41.216-10.4h.1l5.053-2.081a.377.377,0,1,1,.3.694l-5.152,2.081-.694.2c-11,2.774-36.956,9.214-40.721,10.205-3.567.991-4.062,1.684-4.062,1.783v.2c0,.1-.1.1-.3.2Zm-.1-.4Z" transform="translate(-96.185 -126.761)" fill="#f2eee8"/>
      </g>
    </g>
    <g id="Group_16260" data-name="Group 16260" transform="translate(96.322 134.434)">
      <g id="Group_16259" data-name="Group 16259" transform="translate(0)">
        <path id="Path_7550" data-name="Path 7550" d="M96.7,148.582h0a.1.1,0,0,1-.1-.1c0-.1.4-1.585,3.963-2.081,3.468-.594,41.415-8.323,41.811-8.422l4.855-2.081c.1,0,.1,0,.1.1s0,.1-.1.1l-4.954,2.081c-.4.1-38.343,7.926-41.811,8.422-3.27.5-3.666,1.883-3.765,1.982Z" transform="translate(-96.327 -135.603)" fill="#f2eee8"/>
        <path id="Path_7551" data-name="Path 7551" d="M96.7,148.876h0c-.2,0-.2-.1-.3-.2a.186.186,0,0,1,0-.3c0-.2.5-1.684,4.161-2.279,3.468-.594,41.415-8.323,41.811-8.422l4.855-2.081h.3a.213.213,0,0,1,.2.2.362.362,0,0,1-.2.5l-4.954,2.081c-.4.1-38.343,7.926-41.811,8.422-3.17.5-3.567,1.783-3.567,1.783C96.994,148.678,96.895,148.876,96.7,148.876Z" transform="translate(-96.325 -135.6)" fill="#f2eee8"/>
      </g>
    </g>
    <g id="Group_16262" data-name="Group 16262" transform="translate(96.073 143.351)">
      <g id="Group_16261" data-name="Group 16261" transform="translate(0)">
        <path id="Path_7552" data-name="Path 7552" d="M96.4,155.2h0a.1.1,0,0,1-.1-.1s.2-.991,3.27-1.585,42.306-6.935,42.7-6.935l4.657-1.684c.1,0,.1,0,.1.1s0,.1-.1.1l-4.657,1.684c-.4.1-39.631,6.44-42.7,6.935-2.873.5-3.071,1.387-3.171,1.486C96.5,155.1,96.5,155.2,96.4,155.2Z" transform="translate(-96.075 -144.603)" fill="#f2eee8"/>
        <path id="Path_7553" data-name="Path 7553" d="M96.4,155.4h0c-.2,0-.4-.2-.3-.4,0-.2.3-1.189,3.468-1.783,3.071-.594,42.306-6.935,42.7-6.935l4.657-1.684h.3c.1,0,.1.1.2.2v.3c0,.1-.1.1-.2.2l-4.657,1.684a14.308,14.308,0,0,0-2.081.4c-25.166,4.062-38.839,6.341-40.622,6.638-2.675.5-2.873,1.189-2.972,1.189C96.694,155.3,96.6,155.4,96.4,155.4Zm-.1-.4Zm50.728-9.908Zm-.1-.3Z" transform="translate(-96.073 -144.6)" fill="#f2eee8"/>
      </g>
    </g>
    <g id="Group_16264" data-name="Group 16264" transform="translate(96.256 152.241)">
      <g id="Group_16263" data-name="Group 16263" transform="translate(0)">
        <path id="Path_7554" data-name="Path 7554" d="M96.7,161.725h0c-.1-.1-.2-.2-.1-.4.2-.5,1.288-.793,3.27-1.09,3.864-.5,42.207-5.053,42.6-5.152l4.558-1.387c.1,0,.1,0,.1.1s0,.1-.1.1l-4.558,1.387c-.4.1-38.739,4.657-42.6,5.152-2.576.3-3.071.793-3.17.991v.2c.2,0,.2.1,0,.1Z" transform="translate(-96.261 -153.574)" fill="#f2eee8"/>
        <path id="Path_7555" data-name="Path 7555" d="M96.7,162.021a.364.364,0,0,1-.3-.1.555.555,0,0,1-.1-.594c.1-.4.694-.892,3.468-1.189,2.18-.3,15.753-1.882,40.226-4.855l2.378-.3,4.458-1.387a.292.292,0,0,1,.4.2v.3c0,.1-.1.1-.2.2l-4.558,1.387c-.2,0-38.541,4.657-42.6,5.152-2.378.3-2.873.694-2.972.793.1.1,0,.3-.1.4Zm.3-.594Zm50.034-7.629Z" transform="translate(-96.259 -153.573)" fill="#f2eee8"/>
      </g>
    </g>
    <g id="Group_16266" data-name="Group 16266" transform="translate(96.297 160.888)">
      <g id="Group_16265" data-name="Group 16265" transform="translate(0)">
        <path id="Path_7556" data-name="Path 7556" d="M96.7,168.147h0c-.1-.1-.2-.2-.1-.3,0-.1.1-.4,2.081-.594,2.477-.2,43.693-3.468,44.09-3.567l4.359-1.189c.1,0,.1,0,.1.1s0,.1-.1.1l-4.359,1.189c-.4,0-41.613,3.27-44.09,3.567-1.684.2-1.882.4-1.882.5h0c.1,0,.1.1-.1.2Z" transform="translate(-96.302 -162.302)" fill="#f2eee8"/>
        <path id="Path_7557" data-name="Path 7557" d="M96.7,168.344c-.1,0-.2,0-.2-.1a.757.757,0,0,1-.2-.5c.1-.3.4-.594,2.279-.793,1.982-.2,27.841-2.279,43-3.468l1.09-.1,4.26-1.09h.3c.1,0,.1.1.2.2v.3c0,.1-.1.1-.2.2l-4.359,1.189c-.1,0-1.486.1-3.666.3-10.5.793-38.442,3.071-40.424,3.27a3.828,3.828,0,0,0-1.585.3.364.364,0,0,1-.1.3Zm50.431-5.548Zm-.1-.3Z" transform="translate(-96.3 -162.3)" fill="#f2eee8"/>
      </g>
    </g>
    <g id="Group_16268" data-name="Group 16268" transform="translate(96.198 169.904)">
      <g id="Group_16267" data-name="Group 16267" transform="translate(0)">
        <path id="Path_7558" data-name="Path 7558" d="M96.6,174.374h0c-.1-.1-.1-.2,0-.2l46.369-1.585,4.062-.991c.1,0,.1,0,.1.1s0,.1-.1.1l-4.062.991L96.6,174.374Z" transform="translate(-96.203 -171.402)" fill="#f2eee8"/>
        <path id="Path_7559" data-name="Path 7559" d="M96.6,174.67h0c-.2,0-.3-.1-.4-.3,0-.2.1-.4.3-.4l46.369-1.585,4.062-.991h.3c.1,0,.1.1.2.2,0,.2-.1.4-.3.4l-4.062.991Zm50.53-2.873Z" transform="translate(-96.2 -171.4)" fill="#f2eee8"/>
      </g>
    </g>
    <g id="Group_16270" data-name="Group 16270" transform="translate(150.824 36.282)">
      <g id="Group_16269" data-name="Group 16269" transform="translate(0)">
        <path id="Path_7560" data-name="Path 7560" d="M151.7,62.561h0a.1.1,0,0,1-.1-.1c.1-.2,9.412-16.249,22.59-25.562h.1V37C161.211,46.312,151.9,62.264,151.7,62.561Z" transform="translate(-151.337 -36.538)" fill="#f2eee8"/>
        <path id="Path_7561" data-name="Path 7561" d="M151.7,62.756h-.2c-.2-.1-.2-.3-.1-.5s9.412-16.249,22.689-25.661c.2-.1.4-.1.5.1s.1.4-.1.5c-13.177,9.412-22.392,25.265-22.491,25.463C151.895,62.657,151.8,62.756,151.7,62.756Z" transform="translate(-151.334 -36.534)" fill="#f2eee8"/>
      </g>
    </g>
    <g id="Group_16272" data-name="Group 16272" transform="translate(145.638 19.503)">
      <g id="Group_16271" data-name="Group 16271">
        <path id="Path_7562" data-name="Path 7562" d="M146.5,62.008h0a.1.1,0,0,1-.1-.1c.1-.2,10.007-20.41,13.276-25.562A85.742,85.742,0,0,1,174.142,19.9h.1V20a77,77,0,0,0-14.465,16.447C156.6,41.6,146.7,61.81,146.5,62.008Z" transform="translate(-146.103 -19.603)" fill="#f2eee8"/>
        <path id="Path_7563" data-name="Path 7563" d="M146.5,62.3h-.2c-.2-.1-.2-.3-.2-.5.1-.2,10.007-20.41,13.276-25.562A80.864,80.864,0,0,1,173.941,19.7a.364.364,0,0,1,.3-.1.346.346,0,0,1,.2.1.45.45,0,0,1,0,.5,82.026,82.026,0,0,0-14.465,16.348C156.8,41.694,147.19,61.213,146.793,62.1,146.793,62.2,146.694,62.3,146.5,62.3Zm-.1-.5ZM174.337,20Z" transform="translate(-146.1 -19.6)" fill="#f2eee8"/>
      </g>
    </g>
    <g id="Group_16274" data-name="Group 16274" transform="translate(150.889 41.731)">
      <g id="Group_16273" data-name="Group 16273" transform="translate(0)">
        <path id="Path_7564" data-name="Path 7564" d="M151.7,68.655h0c-.1,0-.1-.1-.1-.2l3.963-5.548.793-3.666h0A78.253,78.253,0,0,1,174.091,42.3h.1v.1a75.735,75.735,0,0,0-17.636,16.843l-.793,3.666h0L151.7,68.655Z" transform="translate(-151.402 -42.037)" fill="#f2eee8"/>
        <path id="Path_7565" data-name="Path 7565" d="M151.7,68.85h0l-.2-.1c-.1-.1-.1-.1-.1-.2a.364.364,0,0,1,.1-.3l3.963-5.548.793-3.666A78.459,78.459,0,0,1,173.99,42.1c.2-.1.4-.1.5.1a.364.364,0,0,1,.1.3.346.346,0,0,1-.1.2,75.678,75.678,0,0,0-17.537,16.744l-.793,3.666-3.963,5.548C151.9,68.85,151.8,68.85,151.7,68.85Z" transform="translate(-151.4 -42.034)" fill="#f2eee8"/>
      </g>
    </g>
    <g id="Group_16276" data-name="Group 16276" transform="translate(150.988 51.858)">
      <g id="Group_16275" data-name="Group 16275" transform="translate(0 0)">
        <path id="Path_7566" data-name="Path 7566" d="M151.8,76.675h0c-.1-.1-.1-.1-.1-.2l3.666-4.558.991-3.765h0c0-.1,3.963-6.737,17.636-15.654h.1v.1c-13.376,8.719-17.339,15.258-17.537,15.555l-.991,3.765h0L151.8,76.675Z" transform="translate(-151.502 -52.258)" fill="#f2eee8"/>
        <path id="Path_7567" data-name="Path 7567" d="M151.8,76.97c-.1,0-.2,0-.2-.1-.1-.1-.1-.1-.1-.2a.364.364,0,0,1,.1-.3l3.567-4.558.991-3.765c0-.1,4.062-6.836,17.735-15.753.1,0,.2-.1.3,0s.2.1.2.2a.186.186,0,0,1,0,.3.213.213,0,0,1-.2.2c-13.078,8.521-17.14,14.961-17.438,15.456l-1.09,3.864L152,76.871A.346.346,0,0,1,151.8,76.97Zm22.392-24.175Zm-.2-.3Z" transform="translate(-151.5 -52.256)" fill="#f2eee8"/>
      </g>
    </g>
    <g id="Group_16278" data-name="Group 16278" transform="translate(150.775 62.063)">
      <g id="Group_16277" data-name="Group 16277" transform="translate(0 0)">
        <path id="Path_7568" data-name="Path 7568" d="M151.6,85.389h0c-.1-.1-.1-.1-.1-.2l3.666-4.359,1.288-3.666c0-.1,3.27-5.846,17.636-14.465h.1v.1c-14.267,8.521-17.537,14.267-17.537,14.366l-1.288,3.666h0L151.6,85.389Z" transform="translate(-151.286 -62.557)" fill="#f2eee8"/>
        <path id="Path_7569" data-name="Path 7569" d="M151.6,85.586c-.1,0-.2,0-.2-.1a.327.327,0,0,1,0-.5l3.567-4.26,1.189-3.567c0-.1,3.369-5.945,17.735-14.564.1,0,.2-.1.3,0a.213.213,0,0,1,.2.2.436.436,0,0,1-.1.5c-14.168,8.422-17.438,14.168-17.438,14.267l-1.288,3.666-3.666,4.359ZM174.187,63Z" transform="translate(-151.285 -62.556)" fill="#f2eee8"/>
      </g>
    </g>
    <g id="Group_16280" data-name="Group 16280" transform="translate(151.286 72.37)">
      <g id="Group_16279" data-name="Group 16279" transform="translate(0 0)">
        <path id="Path_7570" data-name="Path 7570" d="M152.1,93.707h0c-.1-.1-.1-.1-.1-.2l3.567-3.765.793-3.666h0c0-.1,4.756-6.143,17.735-13.078h.1v.1c-12.682,6.836-17.438,12.781-17.735,13.078l-.793,3.666h0L152.1,93.707Z" transform="translate(-151.802 -72.959)" fill="#f2eee8"/>
        <path id="Path_7571" data-name="Path 7571" d="M152.1,93.905c-.1,0-.2,0-.2-.1a.307.307,0,0,1-.1-.2c0-.1,0-.2.1-.2l3.468-3.666.793-3.567.1-.1c0-.1,4.855-6.242,17.834-13.078a.436.436,0,0,1,.5.1c0,.1.1.2,0,.3a.213.213,0,0,1-.2.2c-12.187,6.44-17.041,12.286-17.537,12.88l-.793,3.666-.1.1L152.395,94A.767.767,0,0,0,152.1,93.905Z" transform="translate(-151.8 -72.959)" fill="#f2eee8"/>
      </g>
    </g>
    <g id="Group_16282" data-name="Group 16282" transform="translate(150.79 82.379)">
      <g id="Group_16281" data-name="Group 16281" transform="translate(0 0)">
        <path id="Path_7572" data-name="Path 7572" d="M151.6,102.718h0c-.1-.1-.1-.1-.1-.2l3.864-4.062.892-3.369h0A64.509,64.509,0,0,1,174.09,83.2h.1v.1a68.238,68.238,0,0,0-17.735,11.79l-.892,3.369h0l-3.963,4.26Z" transform="translate(-151.302 -83.062)" fill="#f2eee8"/>
        <path id="Path_7573" data-name="Path 7573" d="M151.6,103.014c-.1,0-.2,0-.2-.1a.307.307,0,0,1-.1-.2s0-.2.1-.2l3.864-3.963.892-3.369.1-.1A65.6,65.6,0,0,1,174.187,83.1a.362.362,0,0,1,.5.2v.3a.213.213,0,0,1-.2.2,68.477,68.477,0,0,0-17.636,11.691l-.892,3.369-.1.1-3.864,4.062C151.7,102.915,151.6,103.014,151.6,103.014Z" transform="translate(-151.3 -83.061)" fill="#f2eee8"/>
      </g>
    </g>
    <g id="Group_16284" data-name="Group 16284" transform="translate(150.914 92.386)">
      <g id="Group_16283" data-name="Group 16283" transform="translate(0 0)">
        <path id="Path_7574" data-name="Path 7574" d="M151.8,110.938h0c-.1-.1-.1-.1-.1-.2l3.666-3.369.892-3.071h0c.1-.1,5.449-5.251,18.032-10.8h.1a.1.1,0,0,1-.1.1c-12.187,5.35-17.636,10.4-18.032,10.8l-.892,3.071h0l-3.567,3.468Z" transform="translate(-151.427 -93.164)" fill="#f2eee8"/>
        <path id="Path_7575" data-name="Path 7575" d="M151.8,111.232a.364.364,0,0,1-.3-.1.45.45,0,0,1,0-.5l3.567-3.369.892-3.071.1-.1c.1-.1,5.548-5.35,18.131-10.9a.362.362,0,0,1,.5.2v.3a.213.213,0,0,1-.2.2c-11.79,5.251-17.24,10.106-17.834,10.7l-.892,3.071-.1.1-3.666,3.468ZM174.287,93.4Z" transform="translate(-151.425 -93.161)" fill="#f2eee8"/>
      </g>
    </g>
    <g id="Group_16286" data-name="Group 16286" transform="translate(150.824 102.888)">
      <g id="Group_16285" data-name="Group 16285" transform="translate(0 0)">
        <path id="Path_7576" data-name="Path 7576" d="M151.7,119.457h0c-.1-.1-.1-.1-.1-.2l3.666-2.873.892-3.071h0c.1-.1,6.638-5.449,17.834-9.214.1,0,.1,0,.1.1s0,.1-.1.1c-10.8,3.666-17.339,8.818-17.735,9.214l-.892,3.071h0l-3.666,2.873Z" transform="translate(-151.337 -103.764)" fill="#f2eee8"/>
        <path id="Path_7577" data-name="Path 7577" d="M151.7,119.652c-.1,0-.2-.1-.3-.1-.1-.2-.1-.4.1-.5l3.666-2.774.892-3.071.1-.1a63.057,63.057,0,0,1,17.933-9.313c.2-.1.4,0,.4.2.1.2,0,.4-.2.4a61.288,61.288,0,0,0-17.636,9.115l-.892,3.071-.1.1-3.765,2.873C151.895,119.652,151.8,119.652,151.7,119.652Z" transform="translate(-151.334 -103.761)" fill="#f2eee8"/>
      </g>
    </g>
    <g id="Group_16288" data-name="Group 16288" transform="translate(150.725 113.132)">
      <g id="Group_16287" data-name="Group 16287">
        <path id="Path_7578" data-name="Path 7578" d="M151.6,128.071h0c-.1-.1-.1-.1-.1-.2l3.765-2.576.991-2.972v-.1A67.44,67.44,0,0,1,174.09,114.2c.1,0,.1,0,.1.1s0,.1-.1.1c-8.917,2.279-17.24,7.629-17.735,7.926l-.991,2.972v.1l-3.765,2.675Z" transform="translate(-151.237 -114.101)" fill="#f2eee8"/>
        <path id="Path_7579" data-name="Path 7579" d="M151.6,128.367c-.1,0-.2-.1-.3-.2-.1-.2-.1-.4.1-.5l3.666-2.477.991-2.873c0-.1.1-.1.1-.2a65.456,65.456,0,0,1,17.933-8.025c.2,0,.4.1.4.3s-.1.4-.2.4a66.294,66.294,0,0,0-17.636,7.926l-.991,2.873c0,.1-.1.1-.1.2l-3.864,2.675Z" transform="translate(-151.234 -114.1)" fill="#f2eee8"/>
      </g>
    </g>
    <g id="Group_16290" data-name="Group 16290" transform="translate(150.746 123.337)">
      <g id="Group_16289" data-name="Group 16289" transform="translate(0)">
        <path id="Path_7580" data-name="Path 7580" d="M151.6,136.687h0c-.1-.1-.1-.2,0-.2l3.765-2.18,1.09-2.873v-.1a79.078,79.078,0,0,1,17.735-6.737c.1,0,.1,0,.1.1s0,.1-.1.1a77.083,77.083,0,0,0-17.636,6.638l-1.09,2.873v.1l-3.864,2.279Z" transform="translate(-151.258 -124.402)" fill="#f2eee8"/>
        <path id="Path_7581" data-name="Path 7581" d="M151.6,136.983c-.1,0-.2-.1-.3-.2,0-.1-.1-.2,0-.3a.213.213,0,0,1,.2-.2l3.666-2.18.991-2.774c0-.1.1-.1.1-.2.3-.2,6.737-3.864,17.834-6.737h.3c.1,0,.1.1.2.2v.3c0,.1-.1.1-.2.2-10.3,2.675-16.546,6.044-17.537,6.638l-.991,2.774c0,.1-.1.1-.2.2l-3.864,2.279Zm.1-.3ZM174.186,124.7Z" transform="translate(-151.255 -124.4)" fill="#f2eee8"/>
      </g>
    </g>
    <g id="Group_16292" data-name="Group 16292" transform="translate(150.751 133.443)">
      <g id="Group_16291" data-name="Group 16291" transform="translate(0)">
        <path id="Path_7582" data-name="Path 7582" d="M151.6,145.106h0c-.1-.1-.1-.2,0-.2l3.765-1.783.892-2.576.1-.1A100.534,100.534,0,0,1,174.288,135c.1,0,.1,0,.1.1s0,.1-.1.1a98.748,98.748,0,0,0-17.834,5.449l-.892,2.576-.1.1-3.864,1.783Z" transform="translate(-151.263 -134.604)" fill="#f2eee8"/>
        <path id="Path_7583" data-name="Path 7583" d="M151.6,145.3c-.1,0-.3-.1-.3-.2a.362.362,0,0,1,.2-.5l3.666-1.783.892-2.477a.213.213,0,0,1,.2-.2,103.063,103.063,0,0,1,17.933-5.548h.3l.2.2c0,.2-.1.4-.3.4a101.056,101.056,0,0,0-17.636,5.35l-.892,2.477a.213.213,0,0,1-.2.2L151.6,145.3Zm22.689-10.106Z" transform="translate(-151.261 -134.6)" fill="#f2eee8"/>
      </g>
    </g>
    <g id="Group_16294" data-name="Group 16294" transform="translate(150.751 144.045)">
      <g id="Group_16293" data-name="Group 16293" transform="translate(0)">
        <path id="Path_7584" data-name="Path 7584" d="M151.6,153.524h0c-.1-.1-.1-.2,0-.2l3.765-1.189.991-2.477.1-.1a101.3,101.3,0,0,1,17.834-4.161c.1,0,.1,0,.1.1s0,.1-.1.1a105.691,105.691,0,0,0-17.735,4.161l-.991,2.477-.1.1-3.864,1.189Z" transform="translate(-151.263 -145.301)" fill="#f2eee8"/>
        <path id="Path_7585" data-name="Path 7585" d="M151.6,153.821c-.2,0-.3-.1-.3-.2-.1-.2,0-.4.2-.4l3.666-1.189.892-2.378a.213.213,0,0,1,.2-.2,94.529,94.529,0,0,1,17.834-4.161.364.364,0,0,1,.3.1c.1.1.1.1.1.2a.364.364,0,0,1-.1.3c-.1.1-.1.1-.2.1a87.639,87.639,0,0,0-17.537,4.161l-.892,2.378a.213.213,0,0,1-.2.2Zm22.689-8.124Zm-.1-.3Z" transform="translate(-151.261 -145.3)" fill="#f2eee8"/>
      </g>
    </g>
    <g id="Group_16296" data-name="Group 16296" transform="translate(150.79 154.349)">
      <g id="Group_16295" data-name="Group 16295" transform="translate(0)">
        <path id="Path_7586" data-name="Path 7586" d="M151.6,162.242h0c-.1-.1-.1-.2,0-.2l3.567-.793,1.288-2.378h.1A114.1,114.1,0,0,1,174.387,156a.1.1,0,0,1,.1.1c0,.1,0,.1-.1.1a108.309,108.309,0,0,0-17.735,2.873l-1.288,2.378h-.1l-3.666.793Z" transform="translate(-151.302 -155.703)" fill="#f2eee8"/>
        <path id="Path_7587" data-name="Path 7587" d="M151.6,162.536a.263.263,0,0,1-.3-.3c0-.2.1-.4.3-.4l3.468-.793,1.189-2.279c0-.1.1-.1.2-.2a114.106,114.106,0,0,1,17.834-2.873c.1,0,.2,0,.2.1a.364.364,0,0,1,.1.3c0,.2-.1.4-.3.4a112.791,112.791,0,0,0-17.636,2.873l-1.189,2.279a.213.213,0,0,1-.2.2Zm22.689-6.44Z" transform="translate(-151.3 -155.7)" fill="#f2eee8"/>
      </g>
    </g>
    <g id="Group_16298" data-name="Group 16298" transform="translate(150.691 164.455)">
      <g id="Group_16297" data-name="Group 16297" transform="translate(0)">
        <path id="Path_7588" data-name="Path 7588" d="M151.5,170.856h0c-.1-.1-.1-.2,0-.2l3.963-.4,1.09-2.378a.1.1,0,0,1,.1-.1c.1,0,10.4-1.288,18.032-1.684.1,0,.1,0,.1.1s0,.1-.1.1c-7.332.4-17.14,1.585-17.933,1.684l-1.09,2.378a.1.1,0,0,1-.1.1l-4.062.4Z" transform="translate(-151.202 -165.902)" fill="#f2eee8"/>
        <path id="Path_7589" data-name="Path 7589" d="M151.5,171.151a.263.263,0,0,1-.3-.3.364.364,0,0,1,.1-.3c.1-.1.1-.1.2-.1l3.864-.4,1.09-2.279c.1-.1.2-.2.3-.2,1.09-.1,10.8-1.288,18.032-1.684.1,0,.2,0,.2.1a.307.307,0,0,1,.1.2c0,.2-.1.4-.3.4-7.035.4-16.546,1.486-17.834,1.684l-1.09,2.279c-.1.1-.2.2-.3.2Zm0-.2Zm0-.1Zm23.184-4.458Z" transform="translate(-151.2 -165.9)" fill="#f2eee8"/>
      </g>
    </g>
    <g id="Group_16300" data-name="Group 16300" transform="translate(150.889 174.858)">
      <g id="Group_16299" data-name="Group 16299" transform="translate(0)">
        <path id="Path_7590" data-name="Path 7590" d="M151.7,179.471h0c-.1-.2-.1-.2,0-.2.3,0,3.666-.1,4.26-.2l.5-2.081a.1.1,0,0,1,.1-.1l17.636-.5h0c.1,0,.1,0,.1.1s0,.1-.1.1l-17.537.5-.5,2.081a.1.1,0,0,1-.1.1C155.861,179.372,152,179.471,151.7,179.471Z" transform="translate(-151.402 -176.4)" fill="#f2eee8"/>
        <path id="Path_7591" data-name="Path 7591" d="M151.7,179.769a.316.316,0,0,1-.3-.3.447.447,0,0,1,.3-.3c.1,0,.892,0,4.062-.1l.5-1.883a.316.316,0,0,1,.3-.3l17.636-.5h0c.2,0,.4.1.4.3s-.1.4-.3.4l-17.438.5-.5,1.882a.316.316,0,0,1-.3.3A31.918,31.918,0,0,0,151.7,179.769Z" transform="translate(-151.4 -176.4)" fill="#f2eee8"/>
      </g>
    </g>
    <g id="Group_16302" data-name="Group 16302" transform="translate(96.198 176.542)">
      <g id="Group_16301" data-name="Group 16301" transform="translate(0)">
        <path id="Path_7592" data-name="Path 7592" d="M124.935,180.381h0l-2.378-1.783c-1.09,0-25.562.3-25.958.3-.1,0-.1,0-.1-.1s0-.1.1-.1c.5,0,25.76-.3,26.058-.3h.1l2.378,1.783,22-.793c.1,0,.1,0,.1.1s0,.1-.1.1l-22.193.793Z" transform="translate(-96.203 -178.103)" fill="#f2eee8"/>
        <path id="Path_7593" data-name="Path 7593" d="M124.933,180.577h0c-.1,0-.2,0-.2-.1l-2.279-1.783c-2.18,0-25.463.3-25.958.3a.316.316,0,0,1-.3-.3.447.447,0,0,1,.3-.3c.3,0,8.521-.1,24.571-.3h1.387c.1,0,.2,0,.2.1l2.279,1.783,21.9-.793c.1,0,.2,0,.2.1a.307.307,0,0,1,.1.2c0,.2-.1.4-.3.4Zm22.094-.991Z" transform="translate(-96.2 -178.1)" fill="#f2eee8"/>
      </g>
    </g>
    <g id="Group_16304" data-name="Group 16304" transform="translate(179.027 30.794)">
      <g id="Group_16303" data-name="Group 16303" transform="translate(0)">
        <path id="Path_7594" data-name="Path 7594" d="M180.1,189.031h0L180.3,31.3c0-.1,0-.1.1-.1h0c.1,0,.1,0,.1.1l-.4,157.732Z" transform="translate(-179.802 -30.998)" fill="#f2eee8"/>
        <path id="Path_7595" data-name="Path 7595" d="M180.1,189.327a.316.316,0,0,1-.3-.3L180,31.3a.345.345,0,0,1,.594-.2.307.307,0,0,1,.1.2l-.3,157.633A.442.442,0,0,1,180.1,189.327Z" transform="translate(-179.8 -30.996)" fill="#f2eee8"/>
      </g>
    </g>
    <g id="Group_16306" data-name="Group 16306" transform="translate(179.126 42.39)">
      <g id="Group_16305" data-name="Group 16305">
        <path id="Path_7596" data-name="Path 7596" d="M202.79,51.716h0l-8.124-2.378a.1.1,0,0,1-.1-.1v-.1l1.189-1.982C190.6,45.672,180.794,42.9,180.3,42.9c-.1,0-.1,0-.1-.1s0-.1.1-.1c.694,0,15.06,4.161,15.654,4.359a.1.1,0,0,1,.1.1v.1l-1.189,1.982,8.025,2.378c0-.1,0,0-.1.1Z" transform="translate(-179.903 -42.7)" fill="#f2eee8"/>
        <path id="Path_7597" data-name="Path 7597" d="M202.787,52.013h-.1l-8.124-2.378a.213.213,0,0,1-.2-.2v-.3l.991-1.684c-7.233-2.081-14.664-4.161-15.159-4.161a.316.316,0,0,1-.3-.3.447.447,0,0,1,.3-.3c.694,0,15.159,4.161,15.753,4.359a.213.213,0,0,1,.2.2v.3l-.991,1.684,7.629,2.279a.213.213,0,0,1,.2.2c0,.1.1.2,0,.3C203.084,51.914,202.886,52.013,202.787,52.013Zm-.1-.2Z" transform="translate(-179.9 -42.7)" fill="#f2eee8"/>
      </g>
    </g>
    <g id="Group_16308" data-name="Group 16308" transform="translate(179.583 52.656)">
      <g id="Group_16307" data-name="Group 16307" transform="translate(0 0)">
        <path id="Path_7598" data-name="Path 7598" d="M202.892,61.522h0l-8.422-2.18a.1.1,0,0,1-.1-.1v-.1l1.288-1.783L180.6,53.3a.1.1,0,0,1,0-.2l15.159,4.062a.1.1,0,0,1,.1.1v.1l-1.288,1.783,8.323,2.18c.1,0,.1.1,0,.2Z" transform="translate(-180.362 -53.061)" fill="#f2eee8"/>
        <path id="Path_7599" data-name="Path 7599" d="M202.89,61.818h0l-8.521-2.18a.213.213,0,0,1-.2-.2v-.3l1.09-1.486L180.6,53.694c-.2,0-.3-.2-.2-.4s.2-.3.4-.2l15.06,3.864a.213.213,0,0,1,.2.2v.3l-1.09,1.486,7.926,2.081a.213.213,0,0,1,.2.2c0,.1.1.2,0,.3C203.187,61.62,203.088,61.818,202.89,61.818Zm0-.2Z" transform="translate(-180.361 -53.061)" fill="#f2eee8"/>
      </g>
    </g>
    <g id="Group_16310" data-name="Group 16310" transform="translate(179.088 62.701)">
      <g id="Group_16309" data-name="Group 16309" transform="translate(0)">
        <path id="Path_7600" data-name="Path 7600" d="M202.79,71.326h0l-8.422-1.982a.1.1,0,0,1-.1-.1v-.1l1.684-1.486L180.3,63.6a.1.1,0,0,1,0-.2l15.853,4.062a.1.1,0,0,1,.1.1v.1l-1.684,1.486,8.223,1.882a.186.186,0,0,1,0,.3Z" transform="translate(-179.864 -63.202)" fill="#f2eee8"/>
        <path id="Path_7601" data-name="Path 7601" d="M202.787,71.622h0l-8.521-1.982q-.149,0-.3-.3c0-.1,0-.3.1-.3l1.288-1.189L180.1,63.894c-.2,0-.3-.2-.2-.4,0-.2.2-.3.4-.3l15.852,4.161q.149,0,.3.3c0,.1,0,.3-.1.3l-1.288,1.189,7.827,1.783a.213.213,0,0,1,.2.2.186.186,0,0,1,0,.3S202.886,71.622,202.787,71.622Zm-.1-.2Z" transform="translate(-179.861 -63.2)" fill="#f2eee8"/>
      </g>
    </g>
    <g id="Group_16312" data-name="Group 16312" transform="translate(179.325 73.303)">
      <g id="Group_16311" data-name="Group 16311" transform="translate(0 0)">
        <path id="Path_7602" data-name="Path 7602" d="M202.891,80.937h0l-8.323-1.585a.1.1,0,0,1-.1-.1v-.1l1.486-1.288L180.5,74.4a.1.1,0,0,1,0-.2l15.654,3.567a.1.1,0,0,1,.1.1v.1l-1.486,1.189,8.124,1.585c.1,0,.1,0,0,.2Z" transform="translate(-180.103 -73.903)" fill="#f2eee8"/>
        <path id="Path_7603" data-name="Path 7603" d="M202.888,81.133h0l-8.422-1.585q-.149,0-.3-.3h0a.6.6,0,0,1,.1-.4l1.09-.892L180.4,74.594c-.2,0-.3-.2-.3-.4s.2-.3.4-.3l15.654,3.567q.149,0,.3.3c0,.1,0,.3-.1.3l-1.09.892,7.629,1.486a.346.346,0,0,1,.2.1.364.364,0,0,1,.1.3A.263.263,0,0,1,202.888,81.133Z" transform="translate(-180.1 -73.9)" fill="#f2eee8"/>
      </g>
    </g>
    <g id="Group_16314" data-name="Group 16314" transform="translate(179.25 83.761)">
      <g id="Group_16313" data-name="Group 16313">
        <path id="Path_7604" data-name="Path 7604" d="M202.988,90.843h0l-8.124-1.486a.1.1,0,0,1-.1-.1v-.1l1.189-.892L180.3,84.9a.1.1,0,0,1,0-.2l15.853,3.468a.1.1,0,0,1,.1.1v.1l-1.189.892,7.926,1.486c.1-.1.1-.1,0,.1C203.087,90.744,203.087,90.843,202.988,90.843Z" transform="translate(-180.027 -84.458)" fill="#f2eee8"/>
        <path id="Path_7605" data-name="Path 7605" d="M202.986,91.039h0l-8.124-1.486c-.1,0-.2-.1-.3-.2h0c0-.1,0-.3.1-.3l.793-.594L180.3,85.193a.213.213,0,0,1-.2-.2.186.186,0,0,1,0-.3c.1-.1.1-.2.2-.2s.2-.1.3,0l15.853,3.468q.149,0,.3.3h0c0,.1,0,.3-.1.3l-.694.594,7.332,1.387a.346.346,0,0,1,.2.1.364.364,0,0,1,.1.3C203.283,90.94,203.184,91.039,202.986,91.039ZM180.4,84.9Z" transform="translate(-180.025 -84.456)" fill="#f2eee8"/>
      </g>
    </g>
    <g id="Group_16316" data-name="Group 16316" transform="translate(179.226 94.208)">
      <g id="Group_16315" data-name="Group 16315" transform="translate(0)">
        <path id="Path_7606" data-name="Path 7606" d="M203.087,100.748h0l-8.223-1.288a.1.1,0,0,1-.1-.1v-.1l1.189-.892L180.3,95.4a.1.1,0,0,1-.1-.1l.1-.1,15.853,2.972a.1.1,0,0,1,.1.1v.1l-1.189.892,8.025,1.189c.1.1.1.1,0,.3C203.186,100.649,203.186,100.748,203.087,100.748Z" transform="translate(-180.002 -95.002)" fill="#f2eee8"/>
        <path id="Path_7607" data-name="Path 7607" d="M203.085,100.945h0l-8.223-1.288c-.1,0-.2-.1-.3-.2h0c0-.1,0-.3.1-.3l.694-.594L180.3,95.693a.346.346,0,0,1-.2-.1.364.364,0,0,1-.1-.3.346.346,0,0,1,.1-.2.364.364,0,0,1,.3-.1l15.853,2.972q.149,0,.3.3h0c0,.1,0,.3-.1.3l-.694.5,7.431,1.09a.346.346,0,0,1,.2.1.364.364,0,0,1,.1.3C203.382,100.846,203.283,100.945,203.085,100.945Zm0-.2ZM180.4,95.5Zm0-.3Z" transform="translate(-180 -95)" fill="#f2eee8"/>
      </g>
    </g>
    <g id="Group_16318" data-name="Group 16318" transform="translate(179.424 104.81)">
      <g id="Group_16317" data-name="Group 16317" transform="translate(0 0)">
        <path id="Path_7608" data-name="Path 7608" d="M202.991,110.557h0l-7.728-1.189a.1.1,0,0,1-.1-.1v-.1l.892-.594L180.6,106.1a.1.1,0,1,1,0-.2l15.753,2.477a.1.1,0,0,1,.1.1v.1l-.892.594,7.53,1.09c0,.1,0,.1-.1.3C203.09,110.458,203.09,110.557,202.991,110.557Z" transform="translate(-180.203 -105.702)" fill="#f2eee8"/>
        <path id="Path_7609" data-name="Path 7609" d="M202.988,110.753h0l-7.827-1.189c-.1,0-.2-.1-.3-.2h-.1l.1-.1c0-.1.1-.3.2-.3l.3-.2L180.5,106.394c-.2,0-.3-.2-.3-.4a.346.346,0,0,1,.1-.2.364.364,0,0,1,.3-.1l15.753,2.477c.1,0,.2.1.3.2h.1l-.1.1c0,.1-.1.3-.2.3l-.3.2,6.836.991a.346.346,0,0,1,.2.1.364.364,0,0,1,.1.3C203.285,110.654,203.186,110.753,202.988,110.753ZM180.6,106.2Z" transform="translate(-180.2 -105.7)" fill="#f2eee8"/>
      </g>
    </g>
    <g id="Group_16320" data-name="Group 16320" transform="translate(179.523 115.411)">
      <g id="Group_16319" data-name="Group 16319">
        <path id="Path_7610" data-name="Path 7610" d="M203.089,120.76h0l-8.322-.892a.1.1,0,0,1-.1-.1v-.1l1.189-.793c-2.081-.3-15.06-1.982-15.357-2.18a.1.1,0,0,1,0-.2c.3.1,10.3,1.486,15.654,2.18a.1.1,0,0,1,.1.1v.1l-1.189.793,8.025.892c.1,0,.1.1,0,.2Z" transform="translate(-180.301 -116.401)" fill="#f2eee8"/>
        <path id="Path_7611" data-name="Path 7611" d="M203.088,121.057h0l-8.323-.892c-.1,0-.2-.1-.3-.2h-.1l.1-.1c0-.1,0-.3.2-.3l.595-.4c-5.647-.793-14.465-1.982-14.763-2.081a.213.213,0,0,1-.2-.2v-.3a.213.213,0,0,1,.2-.2h.3c.4.1,9.512,1.387,15.555,2.18.1,0,.2.1.3.2h0c0,.1,0,.3-.2.3l-.594.4,7.431.793c.2,0,.3.2.3.4A.658.658,0,0,1,203.088,121.057ZM180.5,116.8Z" transform="translate(-180.3 -116.4)" fill="#f2eee8"/>
      </g>
    </g>
    <g id="Group_16322" data-name="Group 16322" transform="translate(179.523 125.715)">
      <g id="Group_16321" data-name="Group 16321" transform="translate(0)">
        <path id="Path_7612" data-name="Path 7612" d="M203.19,130.369h0l-7.728-.694a.1.1,0,0,1-.1-.1v-.1l.594-.4L180.7,127.3a.1.1,0,0,1,0-.2l15.555,1.783a.1.1,0,0,1,.1.1v.1l-.594.4,7.53.694-.1.2Z" transform="translate(-180.303 -126.803)" fill="#f2eee8"/>
        <path id="Path_7613" data-name="Path 7613" d="M203.187,130.565h0l-7.827-.694c-.1,0-.2-.1-.3-.2h-.1l.1-.1c0-.1,0-.3.1-.3l.1-.1L180.6,127.494a.346.346,0,0,1-.2-.1,1,1,0,0,1-.1-.3c0-.2.2-.3.4-.3l15.555,1.783c.1,0,.2.1.3.2h0c0,.1,0,.3-.1.3h0l6.836.594a.346.346,0,0,1,.2.1.364.364,0,0,1,.1.3C203.583,130.466,203.385,130.565,203.187,130.565Zm0-.2Z" transform="translate(-180.3 -126.8)" fill="#f2eee8"/>
      </g>
    </g>
    <g id="Group_16324" data-name="Group 16324" transform="translate(179.523 136.316)">
      <g id="Group_16323" data-name="Group 16323" transform="translate(0)">
        <path id="Path_7614" data-name="Path 7614" d="M203.089,140.772h0l-8.124-.694a.1.1,0,0,1-.1-.1v-.1l.892-.694L180.5,138a.1.1,0,0,1,0-.2l15.555,1.288a.1.1,0,0,1,.1.1v.1l-.892.694,7.827.694c.1-.1.1-.1,0,.1C203.188,140.673,203.188,140.772,203.089,140.772Z" transform="translate(-180.301 -137.503)" fill="#f2eee8"/>
        <path id="Path_7615" data-name="Path 7615" d="M203.088,140.968h0l-8.124-.694c-.1,0-.2-.1-.3-.2h-.1l.1-.1c0-.1,0-.3.1-.3l.4-.3L180.6,138.193c-.2,0-.3-.2-.3-.4a.346.346,0,0,1,.1-.2.364.364,0,0,1,.3-.1l15.555,1.288c.1,0,.2.1.3.2h.1l-.1.1c0,.1,0,.3-.1.3l-.4.3,7.134.594c.2,0,.3.2.3.4S203.286,140.968,203.088,140.968Z" transform="translate(-180.3 -137.5)" fill="#f2eee8"/>
      </g>
    </g>
    <g id="Group_16326" data-name="Group 16326" transform="translate(179.82 146.819)">
      <g id="Group_16325" data-name="Group 16325">
        <path id="Path_7616" data-name="Path 7616" d="M203.388,150.68h0l-8.422-.2a.1.1,0,0,1-.1-.1v-.1l.991-.594L180.7,148.7a.1.1,0,0,1-.1-.1c0-.1,0-.1.1-.1l15.456.991a.1.1,0,0,1,.1.1v.1l-.991.594,8.124.2s.1,0,0,.2Z" transform="translate(-180.6 -148.104)" fill="#f2eee8"/>
        <path id="Path_7617" data-name="Path 7617" d="M203.388,150.874h0l-8.422-.2c-.1,0-.3-.1-.3-.2h-.2l.2-.1c0-.1,0-.3.2-.3l.4-.2-14.366-.991c-.1,0-.2,0-.2-.1a.364.364,0,0,1-.1-.3c0-.1.1-.2.1-.3a.364.364,0,0,1,.3-.1l15.357.991c.1,0,.2.1.3.2h.2l-.1.1c0,.1,0,.3-.2.3l-.3.2,7.332.2c.2,0,.3.2.3.4C203.685,150.775,203.487,150.874,203.388,150.874ZM180.7,148.6Zm.1-.3Z" transform="translate(-180.6 -148.1)" fill="#f2eee8"/>
      </g>
    </g>
    <g id="Group_16328" data-name="Group 16328" transform="translate(179.622 157.618)">
      <g id="Group_16327" data-name="Group 16327">
        <path id="Path_7618" data-name="Path 7618" d="M203.189,160.884h0l-8.124-.1a.1.1,0,0,1-.1-.1v-.1l.793-.5L180.6,159.4c-.1,0-.1,0-.1-.1s0-.1.1-.1l15.456.694a.1.1,0,0,1,.1.1v.1l-.793.5,7.827.1c.1,0,.1.1,0,.2Z" transform="translate(-180.401 -159.002)" fill="#f2eee8"/>
        <path id="Path_7619" data-name="Path 7619" d="M203.188,161.18h0l-8.124-.1c-.1,0-.3-.1-.3-.2h-.2l.1-.1c0-.1,0-.3.2-.3l.2-.1-14.366-.594c-.1,0-.2,0-.2-.1a.364.364,0,0,1-.1-.3c0-.1.1-.2.1-.3a.364.364,0,0,1,.3-.1l15.357.694c.1,0,.3.1.3.2h.1l-.1.1c0,.1,0,.3-.1.3l-.1.1,7.035.1c.2,0,.3.2.3.4A.442.442,0,0,1,203.188,161.18ZM180.7,159.5Z" transform="translate(-180.4 -159)" fill="#f2eee8"/>
      </g>
    </g>
    <g id="Group_16330" data-name="Group 16330" transform="translate(179.484 168.379)">
      <g id="Group_16329" data-name="Group 16329">
        <path id="Path_7620" data-name="Path 7620" d="M203.189,171.189h0l-8.124-.2a.1.1,0,0,1,0-.2l.892-.4c-2.873,0-15.06-.1-15.357-.2a.1.1,0,1,1,0-.2c.4.1,11.493.2,15.753.2a.1.1,0,1,1,0,.2l-.892.4,7.728.2c.1,0,.1,0,0,.2C203.288,171.09,203.288,171.189,203.189,171.189Z" transform="translate(-180.263 -169.862)" fill="#f2eee8"/>
        <path id="Path_7621" data-name="Path 7621" d="M203.187,171.386h0l-8.124-.2c-.1,0-.3-.1-.3-.2h-.3l.3-.1c0-.1,0-.2.1-.2-9.313-.1-14.069-.2-14.366-.2-.2-.1-.3-.3-.2-.4.1-.2.3-.3.4-.2.4.1,9.809.2,15.654.2.1,0,.3.1.3.2h.4l-.3.2a.364.364,0,0,1-.1.3l6.638.2c.2,0,.3.2.3.4C203.583,171.287,203.385,171.386,203.187,171.386ZM180.6,170.2Z" transform="translate(-180.261 -169.861)" fill="#f2eee8"/>
      </g>
    </g>
    <g id="Group_16332" data-name="Group 16332" transform="translate(179.82 177.929)">
      <g id="Group_16331" data-name="Group 16331">
        <path id="Path_7622" data-name="Path 7622" d="M195.662,181.087h0c-.1-.1-.1-.1-.1-.2l.694-.991c-1.783,0-14.961.1-15.357.1-.1,0-.1,0-.1-.1s0-.1.1-.1c.5,0,15.357-.1,15.555-.1h0a.1.1,0,0,1,.1.1v.1l-.694.991,7.332-.2c.1,0,.1,0,.1.1s0,.1-.1.1l-7.53.2Z" transform="translate(-180.602 -179.502)" fill="#f2eee8"/>
        <path id="Path_7623" data-name="Path 7623" d="M195.66,181.283h0c-.1,0-.3-.1-.3-.2a.3.3,0,0,1,0-.4l.4-.594c-3.171,0-14.465.1-14.862.1a.316.316,0,0,1-.3-.3.446.446,0,0,1,.3-.3c.4,0,10.4-.1,14.267-.1h1.288c.1,0,.3.1.3.2a.3.3,0,0,1,0,.4l-.4.595,6.836-.2a.364.364,0,0,1,.3.1c.1.1.1.1.1.2,0,.2-.1.4-.3.4Zm7.53-.694Z" transform="translate(-180.6 -179.5)" fill="#f2eee8"/>
      </g>
    </g>
  </g>
</svg>
