<svg xmlns="http://www.w3.org/2000/svg" width="112.072" height="100" viewBox="0 0 112.072 100">
  <g id="extracted_logos_sanmar_belgravia_logo" transform="translate(-41 -22.4)">
    <path id="Path_7140" data-name="Path 7140" d="M110.388,38.56a16.969,16.969,0,0,0,.19-2.186,14.047,14.047,0,0,0-5.608-11.312C102.5,23.256,99.552,22.4,95.464,22.4h-7.89V37.039a14.288,14.288,0,0,0-1.9-.19,14.047,14.047,0,0,0-11.312,5.608c-1.806,2.471-2.662,5.418-2.662,9.506v7.89H86.149a12.671,12.671,0,0,0-.285,2.662,14.047,14.047,0,0,0,5.608,11.312c2.471,1.806,5.418,2.662,9.506,2.662h7.89V61.278a12.67,12.67,0,0,0,2.662.285,14.047,14.047,0,0,0,11.312-5.608c1.806-2.471,2.662-5.418,2.662-9.506V38.56H110.388ZM108.772,39.8h0v.1a13,13,0,0,1-4.468,6.654,12.024,12.024,0,0,1-5.133,2.186,19.089,19.089,0,0,1-.1-2.376V39.986h9.791c-.19-.1-.19-.1-.1-.19m-1.141,19.772h-.1a11.382,11.382,0,0,1-6.084-4.373,11.929,11.929,0,0,1-2.186-5.228c.57,0,1.236-.1,1.9-.1h6.369v9.6c0,.1,0,.1.1.1M89.571,24.3h5.8c3.707,0,6.274.76,8.46,2.281a11.806,11.806,0,0,1,4.753,9.7,12.67,12.67,0,0,1-.285,2.662v.1H98.221v7.129a13.44,13.44,0,0,0-1.711-3.517,13.425,13.425,0,0,0-6.844-4.753V24.3ZM89,38.655a12.736,12.736,0,0,1,6.844,4.563,11.428,11.428,0,0,1,2.186,5.608,23.368,23.368,0,0,1-2.662.19H89Zm9.316,13.4v6.369H87.86a11.382,11.382,0,0,1,4.373-6.084,12.761,12.761,0,0,1,5.989-2.281c0,.57.1,1.236.1,2M73.6,57.761v-5.8c0-3.707.76-6.274,2.281-8.46a11.806,11.806,0,0,1,9.7-4.753,10.959,10.959,0,0,1,2.471.285h.1V49.586h8.08a12.069,12.069,0,0,0-4.468,2,13.09,13.09,0,0,0-4.468,6.084H73.6Zm33.27,16.825h-5.8c-3.707,0-6.274-.76-8.46-2.281a11.806,11.806,0,0,1-4.753-9.7,11.353,11.353,0,0,1,.38-3.137v-.19H98.886V52.153A13.441,13.441,0,0,0,100.6,55.67a12.476,12.476,0,0,0,6.084,4.468V74.586ZM123.6,46.354c0,3.707-.76,6.274-2.281,8.46a11.806,11.806,0,0,1-9.7,4.753,11.352,11.352,0,0,1-3.137-.38h-.19V49.206h-8.08a12.069,12.069,0,0,0,4.468-2,12.93,12.93,0,0,0,4.658-6.654H123.7v5.8Z" transform="translate(-1.517)" fill="#242d47"/>
    <path id="Path_7141" data-name="Path 7141" d="M47.939,119.1a4.094,4.094,0,0,1,2.376,3.707,3.621,3.621,0,0,1-1.331,2.947,4.2,4.2,0,0,1-3.042,1.046H41V113.3h4.468a3.6,3.6,0,0,1,2.662.951,3.09,3.09,0,0,1,1.046,2.376,3.3,3.3,0,0,1-1.236,2.471m-2.567-.38a2.311,2.311,0,0,0,2-.76,2.313,2.313,0,0,0,0-3.042,2.611,2.611,0,0,0-2-.76H42.141v4.373h3.232Zm-3.137,1.141v5.8h3.612a2.892,2.892,0,0,0,2.376-.856,2.654,2.654,0,0,0,.856-2.091,2.945,2.945,0,0,0-3.232-2.947H42.236Z" transform="translate(0 -4.493)" fill="#242d47"/>
    <path id="Path_7142" data-name="Path 7142" d="M56.541,114.341v4.373h4.848v1.141H56.541v5.8H62.91V126.7H55.4V113.2h7.319v1.141Z" transform="translate(-0.712 -4.488)" fill="#242d47"/>
    <path id="Path_7143" data-name="Path 7143" d="M69.141,125.652H75.51V126.7H68V113.2h1.141Z" transform="translate(-1.335 -4.488)" fill="#242d47"/>
    <path id="Path_7144" data-name="Path 7144" d="M89.727,119.844H85.259V118.7h5.608v5.7a6.588,6.588,0,0,1-5.228,2.471,6.941,6.941,0,1,1,4.753-11.787l-.76.76a5.65,5.65,0,0,0-9.7,4.182,5.648,5.648,0,0,0,5.7,5.894,5.581,5.581,0,0,0,4.087-1.711Z" transform="translate(-1.864 -4.478)" fill="#242d47"/>
    <path id="Path_7145" data-name="Path 7145" d="M105.35,126.7l-5.228-6.939H97.841V126.7H96.7V113.2h4.658a3.733,3.733,0,0,1,2.662.856,3.151,3.151,0,0,1,1.046,2.471A3.452,3.452,0,0,1,104.019,119a3.587,3.587,0,0,1-2.376.856l5.228,6.939H105.35Zm-4.087-7.985a2.523,2.523,0,0,0,1.9-.57,2.1,2.1,0,0,0,0-3.232,2.523,2.523,0,0,0-1.9-.57H97.841v4.373h3.422Z" transform="translate(-2.753 -4.488)" fill="#242d47"/>
    <path id="Path_7146" data-name="Path 7146" d="M116.659,113.2l5.8,13.5h-1.046l-1.806-4.087h-6.559l-1.806,4.087H110.1l5.8-13.5Zm-3.137,8.365h5.608l-2.757-6.559Z" transform="translate(-3.416 -4.488)" fill="#242d47"/>
    <path id="Path_7147" data-name="Path 7147" d="M135.987,113.2l-5.513,13.5h-.76L124.2,113.2h1.236l4.658,11.6,4.658-11.6Z" transform="translate(-4.113 -4.488)" fill="#242d47"/>
    <rect id="Rectangle_5019" data-name="Rectangle 5019" width="1.141" height="13.498" transform="translate(135.772 108.712)" fill="#242d47"/>
    <path id="Path_7148" data-name="Path 7148" d="M152.454,113.2l5.8,13.5h-1.141l-1.806-4.087h-6.559l-1.806,4.087H145.8l5.8-13.5Zm-3.232,8.365h5.608l-2.757-6.559Z" transform="translate(-5.18 -4.488)" fill="#242d47"/>
    <path id="Path_7149" data-name="Path 7149" d="M82.8,102.138H80.9c-.1-.285-.19-.57-.38-1.046-.19-.38-.285-.76-.475-1.236s-.38-.856-.57-1.331A10.659,10.659,0,0,1,79,97.29H74.342c-.38.951-.76,1.806-1.046,2.662a16.756,16.756,0,0,0-.665,2.091H71.3l2.852-6.274c.951-2.091,1.9-4.183,2.852-6.369h.38c.285.665.57,1.426.951,2.281S79,93.3,79.38,94.153s.665,1.616,1.046,2.471.665,1.616.951,2.281.57,1.331.856,1.9a9.269,9.269,0,0,0,.57,1.331m-8.08-5.7h3.992l-2-4.563Z" transform="translate(-1.498 -3.312)" fill="#242d47"/>
    <path id="Path_7150" data-name="Path 7150" d="M127.5,102.138h-1.9c-.1-.285-.19-.57-.38-1.046-.19-.38-.285-.76-.475-1.236s-.38-.856-.57-1.331a10.661,10.661,0,0,1-.475-1.236h-4.658c-.38.951-.76,1.806-1.046,2.662a16.755,16.755,0,0,0-.665,2.091H116l2.852-6.274c.951-2.091,1.9-4.183,2.852-6.369h.38c.285.665.57,1.426.951,2.281s.665,1.616,1.046,2.472.665,1.616,1.046,2.471.665,1.616.951,2.281.57,1.331.856,1.9a9.268,9.268,0,0,0,.57,1.331m-8.08-5.7h3.992l-2-4.563Z" transform="translate(-3.707 -3.312)" fill="#242d47"/>
    <path id="Path_7151" data-name="Path 7151" d="M63.146,100.427l.57.57a3.022,3.022,0,0,0,2.947.475,2.245,2.245,0,0,0,.856-.57,1.838,1.838,0,0,0,.475-.856A3.417,3.417,0,0,0,68.184,99a2.748,2.748,0,0,0-.38-1.331,10.1,10.1,0,0,0-1.046-.855c-.38-.19-.856-.38-1.331-.57a5.807,5.807,0,0,1-1.331-.665,5.446,5.446,0,0,1-1.046-1.046,2.858,2.858,0,0,1-.38-1.711,3.814,3.814,0,0,1,.285-1.426,4.219,4.219,0,0,1,.76-1.046,3.13,3.13,0,0,1,1.236-.665,4.44,4.44,0,0,1,1.616-.285,7.388,7.388,0,0,1,1.521.19,2.78,2.78,0,0,1,1.141.665,4.635,4.635,0,0,0-.285.665,1.9,1.9,0,0,0-.19.856h-.19l-.285-.57c-.1-.19-.285-.38-.38-.57a1.532,1.532,0,0,0-.665-.38,2.776,2.776,0,0,0-.856-.19,2.813,2.813,0,0,0-.951.19,1.994,1.994,0,0,0-1.236,1.236,2.812,2.812,0,0,0-.19.951,2.46,2.46,0,0,0,.38,1.331,10.1,10.1,0,0,0,1.046.855c.38.19.856.38,1.331.57a5.808,5.808,0,0,1,1.331.665,4.982,4.982,0,0,1,1.046.951,2.72,2.72,0,0,1,.38,1.616,4.828,4.828,0,0,1-.285,1.616,3.988,3.988,0,0,1-.855,1.331,3.58,3.58,0,0,1-1.426.856,5.717,5.717,0,0,1-1.9.285,4.791,4.791,0,0,1-1.806-.285,3.287,3.287,0,0,1-1.141-.665,2.938,2.938,0,0,0,.19-.76c0-.19.1-.475.1-.856h.19c.285,0,.38.19.57.475" transform="translate(-1.043 -3.312)" fill="#242d47"/>
    <path id="Path_7152" data-name="Path 7152" d="M103.968,94.433c.855,1.616,1.711,3.327,2.662,4.943a6.1,6.1,0,0,1,.57-.951c.19-.475.475-.951.76-1.521s.665-1.141.951-1.806c.38-.665.665-1.331,1.046-2s.665-1.331,1.046-2,.665-1.236.951-1.806h.19c.1,1.141.285,2.281.38,3.327s.19,2.186.38,3.232c.1,1.046.285,2.091.38,3.137s.285,2,.38,3.042h-1.521c-.1-1.616-.285-3.137-.38-4.658s-.285-3.042-.475-4.658h0c-.856,1.521-1.616,3.042-2.471,4.563a36.564,36.564,0,0,0-2.281,4.753h-.19l-2.281-4.563c-.76-1.521-1.616-3.137-2.376-4.658h0c-.1.76-.19,1.521-.285,2.471l-.285,2.567a21.725,21.725,0,0,0-.19,2.376,14.071,14.071,0,0,0-.1,1.9H99.5c.19-.951.285-2,.475-3.137.19-1.046.285-2.186.475-3.327s.285-2.186.475-3.232c.1-1.046.285-2.091.38-3.042h.285a48.7,48.7,0,0,0,2.376,5.038" transform="translate(-2.892 -3.307)" fill="#242d47"/>
    <path id="Path_7153" data-name="Path 7153" d="M91.184,97.38c-1.616-1.711-3.137-3.327-4.753-5.038v9.6H85.1a5.36,5.36,0,0,0,.1-.665c0-.285.1-.76.1-1.141,0-.475.1-.951.1-1.521s.1-1.046.1-1.616V89.3h.285c.76.76,1.521,1.616,2.376,2.567s1.711,1.806,2.471,2.662c.856.856,1.616,1.711,2.376,2.567l2,2V92.912c0-1.236-.1-2.376-.1-3.422a1.672,1.672,0,0,0,.57.1,1.206,1.206,0,0,0,.57-.1c0,.285-.1.665-.1,1.236s-.1,1.141-.1,1.711-.1,1.236-.1,1.806v7.985h-.285q-1.854-2.281-4.278-4.848" transform="translate(-2.18 -3.307)" fill="#242d47"/>
    <path id="Path_7154" data-name="Path 7154" d="M129.99,94.353V91.976c0-.76-.1-1.521-.1-2.376a3.9,3.9,0,0,1,1.046.1h3.137a7.337,7.337,0,0,1,1.426.19,4.774,4.774,0,0,1,1.236.475,2.453,2.453,0,0,1,.856.856,3.036,3.036,0,0,1,.285,1.331,2.79,2.79,0,0,1-.38,1.521,4.983,4.983,0,0,1-.951,1.046,5.12,5.12,0,0,1-1.236.665,3.287,3.287,0,0,1-1.141.285,5.273,5.273,0,0,1,.57.76,10.112,10.112,0,0,1,.855,1.046,13.967,13.967,0,0,1,.951,1.236c.38.475.665.856.951,1.236a10.1,10.1,0,0,0,.855,1.046c.285.285.475.57.665.76h-2.281q-.285-.428-.856-1.141c-.38-.475-.76-1.046-1.236-1.616a20.873,20.873,0,0,1-1.331-1.711c-.475-.57-.856-1.046-1.236-1.426h-.665v3.707c0,.76.095,1.521.095,2.281H129.8c0-.76.1-1.521.1-2.281V94.353Zm1.426,1.046c.19,0,.38.1.57.1h.665a4.628,4.628,0,0,0,1.141-.1,2.929,2.929,0,0,0,1.141-.475,1.865,1.865,0,0,0,.856-.856,3.094,3.094,0,0,0,.38-1.331,2.027,2.027,0,0,0-.285-1.141,2.562,2.562,0,0,0-.665-.76,2.846,2.846,0,0,0-.951-.38,3.233,3.233,0,0,0-.951-.1h-1.046a1.41,1.41,0,0,0-.665.1c0,.665-.1,1.331-.1,2V95.4Z" transform="translate(-4.389 -3.322)" fill="#242d47"/>
  </g>
</svg>
