<svg id="H-BLACK-W580XH625" xmlns="http://www.w3.org/2000/svg" xmlns:xlink="http://www.w3.org/1999/xlink" viewBox="0 0 160 210"><defs><style>.cls-1{fill:#347474;}.cls-2{fill:#009975;}.cls-3{fill:#29b473;}.cls-4{fill:#b0bec5;opacity:0;}</style><symbol id="Logo-Green" data-name="Logo-Green" viewBox="0 0 100 150"><polygon class="cls-1" points="100 53.9 80.65 40.17 80.65 103.75 100 117.73 100 53.9"/><polygon class="cls-2" points="100 117.72 100 117.72 24.03 62.88 24.03 0 0 9.5 0 72.48 56.95 113.49 0.09 136.31 0.09 136.31 19.45 150 19.45 150 100 117.72 100 117.72 100 117.72 100 117.73 100 117.72"/><polygon class="cls-3" points="99.99 53.91 100 53.9 24.04 0.01 0 9.5 56.73 49.76 0.01 72.49 0 72.48 0 72.49 0 72.49 0 72.49 0.09 136.31 19.45 150 19.45 86.57 100 53.91 99.99 53.91"/></symbol></defs><rect class="cls-4" width="160" height="210"/><use width="100" height="150" transform="translate(30 30)" xlink:href="#Logo-Green"/></svg>