<svg xmlns="http://www.w3.org/2000/svg" xmlns:xlink="http://www.w3.org/1999/xlink" width="270" height="270" viewBox="0 0 270 270">
  <defs>
    <clipPath id="clip-path">
      <rect id="Rectangle_4450" data-name="Rectangle 4450" width="270" height="270" transform="translate(728 2776)" fill="#34342e"/>
    </clipPath>
  </defs>
  <g id="Group_18014" data-name="Group 18014" transform="translate(-728 -2776)">
    <rect id="Rectangle_4449" data-name="Rectangle 4449" width="270" height="270" transform="translate(728 2776)" fill="#34342e"/>
    <g id="Mask_Group_29" data-name="Mask Group 29" clip-path="url(#clip-path)">
      <g id="thin" transform="translate(600.924 2752.171)" opacity="0.1">
        <path id="Path_5815" data-name="Path 5815" d="M673.022,691.005c1.845-1.384,3.222-4.037,2.281-6.309-1.311-2.755-4.151-4.331-6.749-5.69a22.171,22.171,0,0,0-10.973-3.151c-3.646.055-8.775.745-10.833,4.125a5.14,5.14,0,0,0,.285,4.693,6.922,6.922,0,0,0,3.7,2.908c3.733,1.438,7.711,2.01,11.606,2.831,1.992.423,4.043,1.072,6.085,1.393a6.949,6.949,0,0,0,4.6-.8m-19.227-3.23c-2.826-.723-6.29-1.9-6.7-5.24-.594-3.635,3.808-5.04,6.635-5.584,6.907-1.326,14.038,1.473,19.294,5.893a4.734,4.734,0,0,1,1.826,3.721,5,5,0,0,1-4.912,4.551c-2.111.073-4.134-.7-6.184-1.143-3.306-.822-6.692-1.206-9.961-2.2" transform="translate(-560.587 -583.17)" fill="#f2eee8"/>
        <path id="Path_5816" data-name="Path 5816" d="M954.706,1364.842c2.94-.1,4.816-2.748,7.006-4.406,2.269-2.151,4.766-4.245,6.281-7.022.868-1.9,1.866-4.53.558-6.435a1.962,1.962,0,0,0-.8-.589,2.9,2.9,0,0,0-2.467.164,3.464,3.464,0,0,0-.656.436,5.385,5.385,0,0,0-.432.486,2.972,2.972,0,0,0-.42.535,4.032,4.032,0,0,1-.352.55,16.089,16.089,0,0,1-2.331,2.143c-.841.674-1.712,1.309-2.577,1.95a28.151,28.151,0,0,0-4.8,4.248c-2.07,2.428-3.587,7.493.991,7.94m-.085-7.856a36.373,36.373,0,0,1,6.146-5.021,15.969,15.969,0,0,0,2.034-1.734c.319-.312.631-.632.944-.95.362-.368.5-.8.85-1.169a3.825,3.825,0,0,1,1.112-.933,1.83,1.83,0,0,1,2.473.572c.7,2.134-.332,4.529-1.46,6.344a44.5,44.5,0,0,1-7.076,7.112c-1.32,1.183-2.731,2.558-4.545,2.878-4.413,0-2.365-5.147-.479-7.1" transform="translate(-824.122 -1161.572)" fill="#f2eee8"/>
        <path id="Path_5817" data-name="Path 5817" d="M1460.578,909.234c-.138.2-.242.408-.366.625-.173.3-.26.626-.415.938-.086.172-.153.357-.222.536a11.588,11.588,0,0,0-.374,1.149,9.854,9.854,0,0,0-.354,2.444,5.02,5.02,0,0,0,1.783,4.185,4.4,4.4,0,0,0,.4.268c5.672,1.4,8.26-7.792,4.844-11.344a2.7,2.7,0,0,0-2.648-.462,5.923,5.923,0,0,0-1.319.608,5.248,5.248,0,0,0-1.147.823,2.165,2.165,0,0,0-.183.23m1.694,9.62c-.05-.005-.1-.012-.148-.019-1.975-.3-2.589-2.277-2.533-4.033a9.518,9.518,0,0,1,.564-2.889,7.982,7.982,0,0,1,.554-1.23,6.009,6.009,0,0,1,.333-.519c.183-.258.245-.621.487-.843a3.708,3.708,0,0,1,.463-.33,5.974,5.974,0,0,1,.855-.478,2.307,2.307,0,0,1,2.953.553,5.605,5.605,0,0,1,.821,3.6,8.6,8.6,0,0,1-1.214,4.109,4.914,4.914,0,0,1-1.341,1.453,3.036,3.036,0,0,1-1.794.628" transform="translate(-1261.708 -782.979)" fill="#f2eee8"/>
        <path id="Path_5818" data-name="Path 5818" d="M2694.222,1196.145c-3.928-1.49-8.2-.1-12.245-.521a35.56,35.56,0,0,0-4.436-1.519c-4.679-1.2-10.109-1.122-14.061,1.968-1.957,1.387-4.213,4.031-3.011,6.559,2.077,4.6,7.665,3.368,11.744,3.873,5.192.466,10.219,2.106,15.436,2.363l-.042,0c8.692,1.186,16.71-7.474,6.615-12.72m-4.98,12c-5.908.03-11.573-1.979-17.436-2.447-2.985-.423-6.316.435-8.967-1.351-4.838-3.39.555-8.129,4.283-9.443,4.247-1.393,8.886-.7,13.016.781,3.145,2.037,9.953-.738,14.085,1.278,8.117,4.305,2.158,11.494-4.982,11.182" transform="translate(-2298.252 -1029.729)" fill="#f2eee8"/>
        <path id="Path_5819" data-name="Path 5819" d="M2635.264,402.861c3.039.049,5.008-2.6,7.007-4.51,2.811-2.818,5.57-5.985,6.606-9.917a5.267,5.267,0,0,0,.086-2.157,4.49,4.49,0,0,0-1.436-2.542,5.246,5.246,0,0,0-2.607-1.233,5.183,5.183,0,0,0-2.915.335,4.83,4.83,0,0,0-1.3.837,5.358,5.358,0,0,0-.621.639,9.911,9.911,0,0,1-.878.852c-.138.136-.268.28-.4.424-.522.58-1.1,1.1-1.644,1.659a24.351,24.351,0,0,0-3.06,3.77,17.648,17.648,0,0,0-2.08,4.382c-1.082,2.8-.581,7.511,3.246,7.464m-.417-11.666a23.125,23.125,0,0,1,2.317-2.853c.751-.8,1.539-1.577,2.354-2.3a8.935,8.935,0,0,0,.876-1.023,6.368,6.368,0,0,1,.974-.916,4.416,4.416,0,0,1,1.374-.743,4.339,4.339,0,0,1,3.077.173,4.227,4.227,0,0,1,2.147,2.1,4.391,4.391,0,0,1-.007,3.317c-1.323,3.917-4.273,6.971-7.172,9.826-1.507,1.484-3.079,3.3-5.364,3.34-5.582-.407-2.512-8.095-.578-10.914" transform="translate(-2273.562 -329.981)" fill="#f2eee8"/>
        <path id="Path_5820" data-name="Path 5820" d="M2400.762,271.566c-7.484,8.574-4.821,20.276,2.422,28.059,4.278,4.356,10.559,6.43,16.583,6.45,8.037-.161,15.838-4.087,21.348-9.847,4.565-4.8,7.249-10.927,10.548-16.581a50.019,50.019,0,0,1,9.367-11.6c4.138-4.056,9.688-6.9,12.568-12.089,2.21-4.225,1.658-10.011-1.881-13.354a10.377,10.377,0,0,0-1.915-1.352c-.659-.368-1.4-.607-2.037-1.008a14.076,14.076,0,0,0-4.328-1.891,42.339,42.339,0,0,0-4.626-.8,38.744,38.744,0,0,0-9.776.058,27.486,27.486,0,0,0-9.094,2.816c-5.687,3.329-9.468,8.931-14.557,13-7.9,6.425-17.753,10.474-24.621,18.136M2426.5,253.5c4.911-4.084,8.648-9.57,14.328-12.7a28.963,28.963,0,0,1,9.454-2.554,38.638,38.638,0,0,1,10.027.278q1.115.175,2.22.414a11.9,11.9,0,0,1,1.87.731c.548.22,1.107.409,1.657.624s1.034.495,1.575.694a6.511,6.511,0,0,1,1.3.587c.349.225.717.4,1.063.634a9.354,9.354,0,0,1,2,1.86,9.623,9.623,0,0,1,.651.917,10.144,10.144,0,0,1,1.48,4.411,10.373,10.373,0,0,1,.033,1.465c-.215,7.839-8.37,11.469-13.308,16.317a50.578,50.578,0,0,0-9.857,12.1c-3.272,5.6-5.922,11.681-10.446,16.439-5.6,5.823-13.619,9.759-21.785,9.568-6.487-.27-13.151-3.079-16.965-8.5-6.056-8.5-6.9-18.543.922-26.245,7.118-6.741,16.277-10.8,23.788-17.044" transform="translate(-2070.592 -204.733)" fill="#f2eee8"/>
        <path id="Path_5821" data-name="Path 5821" d="M2534.279,1007.968l0-.005a30.763,30.763,0,0,0-6.858-5.143,14.992,14.992,0,0,0-7.617-1.939,11.489,11.489,0,0,0-3.9.88c-1.4.585-2.541,1.539-3.863,2.241a5.707,5.707,0,0,1-.86.4,27.855,27.855,0,0,1-9.187,1.276,60.734,60.734,0,0,1-9.541-1.026c-3.13-.543-6.27-1.111-9.384-1.736-6.421-1.289-12.88-2.449-19.182-4.253-8.186-2.365-16.438-5.3-25.075-5.235-3.809-.008-8.025.153-11.022,2.809-3.808,3.533-7.18,7.532-11.474,10.526-7.124,5.181-15.181,9.044-21.671,15.091-2.973,2.474-5.992,6.066-4.025,10.087,5.17,10.174,26.664,12.25,37.015,14.305a69.665,69.665,0,0,1,21.065,6.419c11.9,5.562,20.095,13.038,34.125,12.781,13.935.084,24.731-10.278,36.762-15.872,6.676-3.667,15.2-5.119,19.774-11.712,6.2-9.33,2.572-22.487-5.077-29.893m.108,33.759c-7.458,4.156-15.675,6.82-22.938,11.383-8.756,4.99-17.579,11.531-28.076,11.568-12.388.291-19.729-5-30.026-10.57a78.4,78.4,0,0,0-17.923-7.113c-13.44-3.237-28.222-3.226-40.156-10.935-2.572-1.626-4.875-4.5-4.457-7.707.475-2.659,2.763-4.471,4.646-6.211,5.776-5.285,12.727-8.941,19.2-13.258a60.012,60.012,0,0,0,9.145-7.619c2.694-2.743,5.289-6.156,9.356-6.7,11.332-1.782,22.259,2.592,33.008,5.513,6.269,1.623,12.651,2.762,19,4.029,3.119.622,6.272,1.176,9.417,1.651a49.527,49.527,0,0,0,9.55.659,29.162,29.162,0,0,0,4.448-.524q1.113-.222,2.2-.543a6.893,6.893,0,0,0,1.915-.718,31.82,31.82,0,0,1,2.929-1.937,10.372,10.372,0,0,1,2.9-.931,12.521,12.521,0,0,1,5.979.595,20.976,20.976,0,0,1,5.75,3.1,30.255,30.255,0,0,1,4.969,4.669,28.835,28.835,0,0,1,3.639,5.312,20.5,20.5,0,0,1,1,2.2c3.284,8.208,2.525,18.915-5.476,24.088" transform="translate(-2065.154 -857.188)" fill="#f2eee8"/>
        <path id="Path_5822" data-name="Path 5822" d="M2391.776,943.666c-7.29-1.868-14.678.305-21.789,1.945-1.029.237-2.056.45-3.1.629-1.352.232-2.71.45-4.037.806-1.343.361-2.589.963-3.928,1.342a10.336,10.336,0,0,1-1.993.34,45.544,45.544,0,0,1-8.05-.066,72.367,72.367,0,0,1-8.177-1.262c-2.746-.572-5.466-1.26-8.172-2-2.687-.73-5.36-1.507-8.038-2.266-2.58-.731-5.165-1.448-7.773-2.073-7.474-2.186-15.007-2.941-22.3.35-11.132,5.06-20.111,13.736-29.755,21.071-10.179,7.475-23.286,9.979-33.065,18.078-7.845,7.146.415,14.336,7.851,16.607,12.849,4.213,26.729,2.811,39.842,5.9a99.51,99.51,0,0,1,20.409,7.528c5.654,2.914,10.9,6.557,16.743,9.144,9.1,4.089,18.662,7.895,28.765,8.13a37.305,37.305,0,0,0,14.76-2.5c9.938-4.246,18.589-11.322,29.022-14.5,4.593-1.088,9.357-1.684,13.694-3.645a31.059,31.059,0,0,0,15.75-17.939c4.274-10.843,2.1-23.466-4.788-32.743-5.315-6.878-13.531-10.978-21.879-12.878m26.761,24.625c3.894,12.465-.8,27.4-11.285,35.244-4.7,3.88-10.788,5.059-16.615,6.187-5.062,1.028-9.654,3.549-14.177,5.945-11.762,6.4-19.239,12.612-33.587,11.311-7.023-.5-13.777-2.769-20.262-5.4-7.272-2.775-13.952-6.747-20.656-10.647a95,95,0,0,0-23.592-8.826c-12.685-2.825-26.1-1.578-38.52-5.6-8.074-2.489-15.614-9.775-6.389-16.485,10.717-7.813,24.517-10.385,34.568-19.232,4.467-3.661,9.059-7.17,13.647-10.677,4.654-3.465,9.569-6.906,15.126-8.755,6.437-2.515,13.415-1.331,19.868.482,1.477.357,2.943.759,4.407,1.166,1.781.5,3.558,1,5.338,1.5,1.985.557,3.971,1.1,5.965,1.627,2.086.547,4.181,1.067,6.284,1.54,2.089.469,4.188.893,6.3,1.241,1.991.327,4,.588,6.009.729a35.054,35.054,0,0,0,5.413.006,15.689,15.689,0,0,0,4.667-.981c.71-.3,1.42-.6,2.132-.89a11.527,11.527,0,0,1,2.021-.462c1.469-.3,2.948-.557,4.416-.861.335-.069.673-.134,1-.217,5.031-1.136,10.042-2.611,15.249-2.523a39.336,39.336,0,0,1,22.687,8.667c5.03,4,8.219,9.8,9.982,15.911" transform="translate(-1925.754 -810.387)" fill="#f2eee8"/>
        <path id="Path_5823" data-name="Path 5823" d="M2259.18,195.834c-11.573,6.318-17.421,15.409-10.9,28.1,4.81,9.94,10.545,21.141,21.7,24.913,6.392,2.082,13.213,1.909,19.855,2.226,10.686.409,22.453-1.2,30.381-9.031,3.971-4.138,6.468-9.32,9.432-14.193,3.45-5.534,6.835-11.158,11.067-16.142,6.662-8.678,17.3-15.075,19.88-26.31,2.069-7.993-.771-16.505-6.568-22.24-2.809-2.723-5.92-5.632-9.915-6.249a.392.392,0,0,0-.2-.1c-.612-.129-1.218-.286-1.828-.424-1.758-.58-7.476-.528-8.271-.371-15.427,1.612-27.733,11.765-40.216,20.018-11.054,7.315-22.863,13.337-34.417,19.8m82.075-38.871a7.029,7.029,0,0,1,1.039.3c1.388.533,3,.428,4.346,1.14a28.723,28.723,0,0,1,11.174,11.082c3.679,6.328,3.383,14.487.186,20.956-4,7.443-10.977,12.581-16.342,18.952-8.1,8.965-13.176,20.048-20.032,29.889-8.924,11.39-24.8,11.648-38.034,10.784-14.366-.181-22.577-4.518-29.712-17.137-4.17-7.611-10.5-16.9-6.024-25.673,3.051-6.087,9.338-9.481,15.072-12.645,4.383-2.431,8.8-4.8,13.19-7.219,13.065-6.785,24.743-15.809,37.225-23.531a48.222,48.222,0,0,1,5.665-2.806,60.475,60.475,0,0,1,6-2.333,38.365,38.365,0,0,1,12.535-2.056,19.627,19.627,0,0,1,3.715.292" transform="translate(-1940.538 -134.527)" fill="#f2eee8"/>
        <path id="Path_5824" data-name="Path 5824" d="M1691.8,1035.9c-2.735-1.987-6.26-2.089-9.513-2.177-3.536-.055-7.523-.427-10.535,1.769-3.155,1.8-3.166,5.936-.808,8.412a9.552,9.552,0,0,0,5.645,2.311,32.548,32.548,0,0,0,12.537-1.468c4.379-1.552,7.131-5.383,2.674-8.846m1.127,5.295c-3.379,4.122-9.432,4.116-14.334,4.356-4.32.261-9.9-2.185-8.329-7.359a7.037,7.037,0,0,1,4.671-3.326,20.483,20.483,0,0,1,5.98-.449c.751.043,1.5.016,2.257.008.567-.006,1.134.1,1.705.143a17.526,17.526,0,0,1,3.542.553,8.256,8.256,0,0,1,3.64,1.983c1.041,1.041,1.769,2.743.869,4.091" transform="translate(-1443.272 -891.914)" fill="#f2eee8"/>
        <path id="Path_5825" data-name="Path 5825" d="M1462.739,879.9c-3.347.409-6.773,1.368-10.128.553a19.39,19.39,0,0,1-5.6-3.028,24.427,24.427,0,0,0-10.562-3.908,15.422,15.422,0,0,0-7.437.734,13.232,13.232,0,0,0-7.858,8.062c-1.568,4.63,1.6,9.1,5.715,11.048,1.911.981,3.966,1.625,5.941,2.456a28.22,28.22,0,0,1,5.387,3.114c10.5,7.658,14.111,14.846,28.666,15.644,6.03.349,12.555-1.311,16.562-6.092,4.786-5.633,6.469-14.171,3.668-21.077-3.99-9.072-16.018-8.744-24.348-7.506m19.9,28.29c-4.273,4.91-11.249,6.135-17.461,5.456-12.3-1.177-16.315-7.558-25.241-14.4a31.635,31.635,0,0,0-7.228-4.309,50.628,50.628,0,0,1-6.255-2.685c-3.871-2.163-6.18-6.432-4.2-10.707a12.76,12.76,0,0,1,7-6.553c3.433-1.348,7.32-.9,10.8.059a22.974,22.974,0,0,1,5.613,2.452,19.041,19.041,0,0,1,1.95,1.258c.253.2.468.44.742.623a8.975,8.975,0,0,0,.9.506,12.289,12.289,0,0,0,5.39,1.625,72.383,72.383,0,0,0,9.751-1.078c6.928-.859,16.728-.936,21.051,5.548,4.053,6.664,2.235,16.535-2.823,22.2" transform="translate(-1228.827 -753.595)" fill="#f2eee8"/>
        <path id="Path_5826" data-name="Path 5826" d="M689.076,1241c-2.1,3.931-3.572,8.454-3.1,12.95.339,4.958,3.6,10.51,9.067,10.62,6.774-.068,11.879-5.219,16.619-9.44a55.423,55.423,0,0,1,10.21-6.651c5.4-2.6,11.3-3.833,17.052-5.369,6.22-1.75,12.735-5.7,13.868-12.572.724-3.158.481-6.426.927-9.619.862-7.443,5.2-13.748,8.392-20.367,6.583-11.837-2.11-19.154-13.584-13.358-.178.09-.374.155-.557.236a16.579,16.579,0,0,0-3.32,1.985,20.66,20.66,0,0,0-2.76,2.574,32.588,32.588,0,0,0-2.367,2.99c-.748,1.055-1.451,2.14-2.143,3.233s-1.381,2.207-2.086,3.3-1.423,2.161-2.2,3.2a28.563,28.563,0,0,1-2.477,2.918,19.488,19.488,0,0,1-2.925,2.466,16.759,16.759,0,0,1-1.683,1.009c-.326.17-.636.364-.957.545a2.849,2.849,0,0,0-.921.707q-.532.706-1.122,1.374a37.167,37.167,0,0,1-3.095,3.088c-1.088.969-2.225,1.881-3.394,2.75s-2.382,1.7-3.6,2.509-2.477,1.591-3.73,2.365-2.514,1.541-3.767,2.317-2.493,1.556-3.718,2.366-2.415,1.636-3.582,2.512-2.284,1.784-3.358,2.756a36.075,36.075,0,0,0-3.048,3.1q-.719.829-1.38,1.706a14.516,14.516,0,0,0-1.258,1.808m34.06-26.312c.924-.912,1.526-2.147,2.764-2.663a26.466,26.466,0,0,0,5.9-4.55c3.9-4.138,6.2-9.458,9.678-13.914,4.208-5.848,18.462-12.424,21.9-2.782,1.772,6.087-5.758,15.412-7.99,21.415a33.009,33.009,0,0,0-2.487,9.259c-.434,6.886-.269,13.629-6.912,17.7-3.513,2.269-7.561,3.406-11.6,4.335-6.073,1.531-12.159,3.39-17.415,6.9-7.589,4.16-12.922,13.53-22.382,13.4-3.969-.355-6.694-3.994-7.485-7.671-1.331-5.476.417-11.4,3.448-16.025,8.4-11.312,23.155-15.149,32.583-25.409" transform="translate(-594.75 -1022.635)" fill="#f2eee8"/>
        <path id="Path_5827" data-name="Path 5827" d="M102.208,763.355c16.761-9.83,25.277-16.99,30.9-36.327,2.214-7.872,5.056-16.243,11.846-21.357,11.354-8.792,22.5.868,34.564.913,3.117-.051,6.638-.344,9.061-2.513,2.876-2.978,4-8.3.465-11.221-1.93-1.54-4.4-2.134-6.745-2.759-4.591-1.263-9.3-1.933-13.738-3.739-6.531-2.831-11.742-8.5-10.216-16.051.391-3.557,2.088-6.734,3.188-10.091,1.886-5.231,2.267-11.781-2.113-15.89-4.634-4.174-11.257-4.785-17.232-4.9-5.668.062-13.286-.229-17.786,3.683-4.927,4.355-3.177,17.483,1.849,22.195a.339.339,0,0,0,.04.26c1.5,1.733,3.527,3.023,4.843,4.957,9.2,12.208-1.03,18.678-.572,31.625-1.292,13.854-6.871,32.323-17.971,41.328C105.014,750.5,94.423,751.6,85.054,754.9c-10.043,3.385-18.618,9.969-25.9,17.534a141.34,141.34,0,0,0-10.222,11.58c-1.51,1.925-2.967,3.891-4.348,5.911a.371.371,0,0,0,.611.42,118.751,118.751,0,0,1,8.473-10.867c8.669-9.967,18.7-19.482,31.448-23.8,8.412-3.114,17.893-3.988,25.239-9.508,12.7-8.839,17.782-24.616,20.407-39.2.808-4.251.307-8.643,1.533-12.828,1.085-4.034,2.884-7.91,3.448-12.066.567-6.237-3.2-11.8-7.671-15.839.276-.436-1.037-.966-1.232-1.367-3.934-4.153-4.987-10.367-4.426-15.9.57-6.87,7.486-8.159,13.149-8.647,5.517-.243,11.174-.412,16.553,1.034,6.724,1.556,11.111,6.9,9.866,13.926-.611,5.075-3.593,9.472-4.312,14.51-1.917,8.938,4.675,15.366,12.615,18.01,3.379,1.1,6.88,1.757,10.32,2.63,2.831.8,6.018,1.25,8.287,3.3,2.862,2.784,1.574,7.305-.9,9.89-2.859,2.287-6.861,2.322-10.36,2.15-11.173-1-21.347-8.791-32.163-1.364-6.9,4.619-10.284,12.672-12.467,20.39-6.519,23.89-16.413,28.9-36.143,41.06C81.407,775.867,66.9,788.04,57.079,803.8a125.6,125.6,0,0,0-7.491,13.49.371.371,0,0,0,.661.338c1.727-3.671,3.7-7.222,5.767-10.712A130.41,130.41,0,0,1,64.4,794.777c10.471-12.753,23.829-22.8,37.809-31.421" transform="translate(-41.337 -551.735)" fill="#f2eee8"/>
        <path id="Path_5828" data-name="Path 5828" d="M154.3,772.762c2.124-4.743,5.52-8.713,9-12.549,8.775-9.983,20.155-17.092,31.908-23.093,13.443-6.922,22.135-14.892,28.18-28.98,4.163-9.718,4.364-20.01,13.987-26.691,6.847-4.841,15.116-.4,22.683-1.257,9.062-.431,18.454-5.342,21.795-14.15,3.938-12.045-7.081-18.022-16.749-21.318-12.974-4.319-16.793-7.864-10.105-21.168,2.69-6.064,3.451-14.169-1.584-19.239-3.461-3.3-8.521-3.383-13.02-3.65-9-.313-17.833-2.487-26.836-2.512a22.531,22.531,0,0,0-17.27,8.725c-6.156,7.1-5.465,17.732-.964,25.511,2.465,4.621,5.907,8.63,8.493,13.18a36.566,36.566,0,0,1,4.312,12.22,39.619,39.619,0,0,1-7.892,29.429c-5.236,8.125-13.029,14.116-21.62,18.4-12.128,6.516-27.726,9-35.655,21.35-.361.441.4.9.618.426a10.169,10.169,0,0,1,.635-.95c8.11-11.4,22.9-13.789,34.585-20.08,8.478-4.245,16.321-10.068,21.582-18.066a40.667,40.667,0,0,0,8.432-30.987,37.882,37.882,0,0,0-5.308-13.719c-2.6-4.222-5.829-8.052-8.017-12.52-3.953-7.325-4.3-17.1,1.334-23.669a22.578,22.578,0,0,1,13.132-8.178,42.025,42.025,0,0,1,11.51.149c7.038.962,14.088,1.839,21.188,2.178,6.538.108,12.231,2.542,13.407,9.56,1.2,5.407-.984,10.677-3.235,15.519-6.824,14.734,6.486,16.277,16.811,20.693,9.082,3.51,15.738,11.113,10.4,20.83-4.417,7.94-13.781,11.511-22.53,11.375-8.661-.214-15.582-3.833-22.951,3.21-5.36,4.892-7.7,11.879-9.5,18.7-4.544,14.88-13.551,26.341-27.456,33.493-11.3,6.05-22.871,12.255-31.842,21.618-6.177,6.543-13.367,13.728-13.838,23.246.606,9.443,15.235,5.895,13.38,21.761a41.455,41.455,0,0,1-3.043,10.013c-.437,1.012-.9,2.032-1.383,3.044a.374.374,0,0,0,.665.34,63.779,63.779,0,0,0,2.884-6.91c1.824-5.107,2.8-11.069.082-16.043-5.811-8.389-15.769-5.32-10.2-19.238" transform="translate(-126.197 -516.124)" fill="#f2eee8"/>
        <path id="Path_5829" data-name="Path 5829" d="M135.292,1965.97c-.437-.837-1.2.365-.375.648,2.71,1.352,5.556,2.5,7.935,4.421,5.942,4.292,5.054,12.546,2.93,18.683-.063.748-2.294,5.005-1.6,5.027.745.236.95-1.583,1.3-2.091a33.313,33.313,0,0,0,2.681-11.566c.3-8.528-6-12.07-12.873-15.122" transform="translate(-119.023 -1696.109)" fill="#f2eee8"/>
        <path id="Path_5830" data-name="Path 5830" d="M789.617,1261.817c3.854-2.746,7.724-5.47,11.517-8.3,2.534-2.193,7.563-5.355,6.785-9.193-1.209-3.357-5.568-2.363-8.385-2.56-3.9.071-8.053.06-11.483,2.171-3.788,2.094-5.682,6.161-7.24,10-1.24,3.239-5.928,10.919-.308,12.211,3.307.513,6.415-2.726,9.114-4.327m-7.592-8.856c.017-.076.034-.153.054-.234a9.247,9.247,0,0,1,.678-1.39q.28-.654.613-1.283a15.177,15.177,0,0,1,1.472-2.273,13.139,13.139,0,0,1,3.866-3.332,14.17,14.17,0,0,1,4.98-1.645,17.492,17.492,0,0,1,2.185-.165c2.3-.135,4.6-.171,6.9-.086,1.522.085,3.434-.011,4.228,1.572,2.072,3.9-8.893,10.463-11.621,12.649-2.556,1.8-5.064,3.673-7.655,5.425-2.043,1.243-3.982,3.2-6.5,3.26a2.533,2.533,0,0,1-2.5-1.553,5.937,5.937,0,0,1,.2-3.41,27.93,27.93,0,0,1,1.522-3.963c.485-1.071,1.022-2.122,1.462-3.212a2.274,2.274,0,0,0,.106-.36" transform="translate(-674.058 -1071.472)" fill="#f2eee8"/>
        <path id="Path_5831" data-name="Path 5831" d="M728.665,1345.178a2.959,2.959,0,0,0,1.14.8c3.5.835,8.941-5.063,11.47-7.34,7.59-7.785,12.067-11.163,22.9-13.439,7.269-1.83,16.166-4.729,18.281-12.841.791-2.856.847-5.9,1.552-8.784a68.008,68.008,0,0,1,3.533-9.92c.766-2.238,2.019-5.117.482-7.274-1.859-1.963-5.157-.85-6.365,1.306-2.446,3.911-2.217,8.779-3.993,12.962-3.071,6.694-10.8,12.328-17.353,15.379a58.492,58.492,0,0,1-9.669,3.586c-5.8,1.358-11.816,2.634-16.654,6.334a16.914,16.914,0,0,0-4.158,4.33,17.5,17.5,0,0,0-2.269,5.507,20.611,20.611,0,0,0-.5,3.9,7.065,7.065,0,0,0,.6,3.983,8.914,8.914,0,0,0,1.005,1.505m13.688-22.636c2.624-.943,5.4-1.368,8.1-2.09a61.613,61.613,0,0,0,12.518-4.871c6.315-3.529,13.819-9.228,16.018-16.382,1.237-3.85,1.207-8.238,3.67-11.608,1.092-1.516,3.845-2.183,5-.422.843,2.086-.195,4.419-.907,6.414a59.723,59.723,0,0,0-3.672,10.7c-.592,2.863-.655,5.806-1.582,8.6-1.458,4.652-5.706,7.508-10.046,9.229-5.953,2.538-12.692,2.916-18.452,5.977-4.86,2.533-8.71,6.49-12.558,10.309-2.741,2.461-6.173,6.327-9.89,6.973-1.281.223-2.053-1.807-2.534-2.613-.495-.83-.239-2.45-.2-3.41a19.484,19.484,0,0,1,.38-3.081,16.028,16.028,0,0,1,2.1-5.264c2.745-4.365,7.344-6.771,12.053-8.464" transform="translate(-630.251 -1109.091)" fill="#f2eee8"/>
        <path id="Path_5832" data-name="Path 5832" d="M62.083,996.921c.054.8,3.421-.078,4.244-.052a36.928,36.928,0,0,0,11.392-3.442c6.209-3.164,10.9-8.512,16.712-12.326,8.8-6.711,19.133-11.251,27.592-18.407,6.6-5.694,9.069-13.037,7.529-21.592-1.31-8.268-4.294-19.177-13.746-21.02-6-.738-10.114,6.915-15.245,9.335a30.36,30.36,0,0,1-11.226,3.544c-5.378.915-12.289-.788-16.208,3.933-1.834,3.105.43,3.19.009,2.115,1.631-6.486,11.75-4.267,16.772-5.374a30.677,30.677,0,0,0,11.059-3.59c4.831-2.24,9.175-9.726,14.529-9.256,9.585,1.807,12.227,13.117,13.458,21.418.808,5.569-.116,11.581-3.783,16.019-3.18,4.1-7.46,7.12-11.839,9.824-6.854,4.3-13.886,8.334-20.37,13.189-8,5.684-13.026,12.108-23.19,14.244a49.679,49.679,0,0,1-7.336,1.035.382.382,0,0,0-.352.4" transform="translate(-56.492 -793.862)" fill="#f2eee8"/>
        <path id="Path_5833" data-name="Path 5833" d="M122.266,1065.178c-1.885.557-3.74,1.209-5.568,1.929a.378.378,0,0,0-.234.471.387.387,0,0,0,.355.255.319.319,0,0,0,.117-.022q.921-.363,1.851-.7c1.814-.659,3.656-1.228,5.52-1.73,1.262-.332,2.576-.648,3.9-.938,1.9-.417,3.817-.8,5.713-1.25s3.764-.973,5.63-1.513a56,56,0,0,0,5.619-1.9c.906-.37,1.805-.764,2.684-1.194s1.752-.9,2.6-1.411c.827-.5,1.626-1.037,2.414-1.593s1.589-1.139,2.366-1.73c.385-.293.771-.586,1.143-.895.39-.325.773-.657,1.147-1a25.043,25.043,0,0,0,2.088-2.159c.152-.177.3-.359.444-.542l.046-.059.008-.009c.155-.2.308-.393.455-.594a15.135,15.135,0,0,0,1.546-2.518,11.8,11.8,0,0,0,.556-1.4,13.032,13.032,0,0,0,.669-4.426,14.606,14.606,0,0,0-.107-1.5,13.383,13.383,0,0,0-.272-1.474,10.38,10.38,0,0,0-.429-1.4,7.589,7.589,0,0,0-.672-1.3,8.856,8.856,0,0,0-1.857-2.065,6.879,6.879,0,0,0-1.132-.755,7.065,7.065,0,0,0-1.314-.553,9.327,9.327,0,0,0-1.389-.31,5.838,5.838,0,0,0-.69-.062,6.74,6.74,0,0,0-.777.017,12.112,12.112,0,0,0-2.8.669c-.889.308-1.757.677-2.626,1.035l-.6.246-.038.015q-.995.41-1.992.813c-.909.366-1.818.732-2.732,1.084a28.153,28.153,0,0,1-2.745.924,44.279,44.279,0,0,1-5.134.954c-.847.107-1.7.2-2.544.289-.952.1-1.9.2-2.854.32a24.153,24.153,0,0,0-2.887.511,9.5,9.5,0,0,0-1.4.478,9.728,9.728,0,0,0-1.307.7,15.589,15.589,0,0,0-2.275,1.675,14.032,14.032,0,0,0-1.052,1.037,13.268,13.268,0,0,0-.9,1.131c-.14.194-.27.394-.4.594a5.6,5.6,0,0,0-.361.605,1.028,1.028,0,0,0-.116.966.445.445,0,0,0,.4.207.563.563,0,0,0,.191-.044.373.373,0,0,0,.231-.467.361.361,0,0,0-.105-.157c.067-.147.144-.287.225-.429a14.506,14.506,0,0,1,.95-1.375c.164-.2.327-.4.5-.59s.359-.372.543-.553a14.862,14.862,0,0,1,1.22-1.047,17.62,17.62,0,0,1,1.822-1.2c.266-.146.577-.3.9-.437a10.588,10.588,0,0,1,1.091-.358,25.4,25.4,0,0,1,2.7-.488c1.58-.2,3.166-.346,4.748-.528q1.459-.168,2.908-.418c.935-.161,1.866-.347,2.787-.573a23.672,23.672,0,0,0,2.728-.87c.91-.344,1.813-.707,2.715-1.071q.669-.27,1.339-.544l.716-.294.2-.083.034-.014c.064-.026.131-.047.19-.078l.036-.015.409-.169.058-.024.041-.017.294-.121a30.469,30.469,0,0,1,3.472-1.268,10.568,10.568,0,0,1,1.2-.246,7.344,7.344,0,0,1,.825-.049c.251.006.5.025.748.054a9.538,9.538,0,0,1,1.118.235c.281.085.557.179.828.292s.532.262.79.412a8.383,8.383,0,0,1,.725.5q.379.314.725.661a9.183,9.183,0,0,1,.615.7,9.879,9.879,0,0,1,.614.935c.109.2.21.4.3.614l0,.01c.02.049.037.1.061.15.043.112.082.218.12.326.068.194.125.392.181.589a15.121,15.121,0,0,1,.355,1.748c.063.549.1,1.1.109,1.65a16.49,16.49,0,0,1-.126,1.846,13.569,13.569,0,0,1-.307,1.476,15.215,15.215,0,0,1-.526,1.55c-.1.236-.209.472-.328.7s-.257.478-.393.714c-.2.327-.4.651-.623.964s-.46.637-.7.949l-.039.05c-.007.009-.014.017-.021.026l-.1.126a22.148,22.148,0,0,1-1.814,2q-.7.674-1.44,1.309c-.451.387-.923.748-1.4,1.108l-.3.23-.237.178c-.789.588-1.585,1.166-2.4,1.725-.784.541-1.591,1.046-2.415,1.523-.689.39-1.415.776-2.159,1.125s-1.491.683-2.248,1c-1,.408-2.017.773-3.043,1.113-.912.3-1.834.579-2.757.845s-1.864.534-2.8.786l-.019,0-.208.056-.031.008c-.838.222-1.684.442-2.535.641-1.909.445-3.831.831-5.745,1.256-1.885.418-3.759.883-5.611,1.43" transform="translate(-103.4 -889.456)" fill="#f2eee8"/>
        <path id="Path_5834" data-name="Path 5834" d="M218.046,1123.669c3.671-.891,7.467-2.888,9.56-6.142,1.192-1.826-.308-3.9-2.012-4.716-.084-.04-.168-.079-.254-.116a7.967,7.967,0,0,0-4.506-.356c-.742.128-1.46.326-2.2.477a10.188,10.188,0,0,0-2.3.709c-.2.092-.386.192-.579.288-.325.161-.682.249-1,.4s-.641.362-.953.543c-.665.386-1.317.8-1.96,1.216-1.087.712-2.147,1.463-3.2,2.22-2.6,1.629-4.156,5.862-.189,6.794,3.239.363,6.456-.616,9.594-1.32m-10.572-3.308a25.172,25.172,0,0,1,10.229-6.429c2.639-.917,6.437-1.929,8.707.374,2.726,2.785-1.957,5.594-4.105,6.918a16.957,16.957,0,0,1-5.4,1.951,33,33,0,0,1-7.258,1.153,2.349,2.349,0,0,1-2.176-3.967" transform="translate(-180.709 -959.655)" fill="#f2eee8"/>
        <path id="Path_5835" data-name="Path 5835" d="M507.254,1259.3c10.162,1.113,18.492-5.648,27.241-9.679,7.785-4.034,16.394-5.931,24.494-9.174,8.426-3.621,16.987-8.182,22.669-15.588,3.428-4.493,5.4-9.857,7.478-15.059,3.319-8.7,6.339-17.609,7.507-26.885.612-4.532.867-9.1,1.1-13.667.178-2.877.156-6.127,2.328-8.315,5.546-5.02,15.591-2.711,21.039,1.517,6.719,5.537,13,12.076,21.208,15.391,5.3,1.8,11.1,1.136,16.416-.235,9.625-2.323,17.851-8.093,26.574-12.521,3.82-1.7,7.759-4.214,12.072-4.035,3.7.63,6.468,3.84,7.879,7.155,1.57,3.939,2.056,8.21,3.505,12.192,3.352,8.858,11.245,12.008,19.881,13.8,9.54,2.066,19.4,2.415,28.8,5.169,11.865,2.75,22.188,9.4,32.42,15.737,27.266,17.522,60.786,16.765,87.333-1.816,11.4-7.416,24.452-13.106,38.287-12.729.3-.032.648.091.912-.085a.373.373,0,0,0-.216-.648c-13.909-.527-27.171,4.948-38.674,12.385a75.448,75.448,0,0,1-70.859,10.355c-11.295-3.9-20.844-11.32-31.278-16.969-8.168-4.606-17.331-7.223-26.506-8.944-7.809-1.293-15.741-1.979-23.415-3.99-5.546-1.452-10.583-3.7-13.906-8.6-4.8-6.555-2.934-16.587-9.849-21.842-4.677-4.116-10.689-.578-15.444,1.556-5.362,2.7-10.529,5.766-15.865,8.514-6.695,3.475-14.189,5.988-21.8,5.858-8-.016-14.433-5.7-20.282-10.518-4.808-4.1-9.038-8.638-15.567-9.792-5.381-1.125-13.053-.484-15.006,5.62-1.319,6.485-.748,13.245-1.878,19.784a103.829,103.829,0,0,1-5.6,21.418c-3.379,9.009-6.484,18.82-14.264,25.073a68.672,68.672,0,0,1-17.293,10.029c-8.283,3.285-17.065,5.254-25,9.419-10.075,4.766-16.7,10.8-28.579,9.25a30.283,30.283,0,0,0-12.968,1.33c-4.035,1.458-8.351,3.376-10.567,7.264-2.537,4.871-2.569,10.585-3.116,15.935q-.416,4.843-.585,9.7c.124.658-.371,1.651.141,2.155.593.207.533-.472.564-.866q.034-.922.067-1.842.327-8.384,1.306-16.729c.52-3.215,1.079-6.639,3.134-9.271,3.216-3.76,8.159-5.5,12.86-6.617,3.724-.79,7.533-.4,11.3-.2" transform="translate(-415.184 -998.66)" fill="#f2eee8"/>
        <path id="Path_5836" data-name="Path 5836" d="M1740.917,1534.027c9.717-1.265,20.832.381,28.9-6.31,2.9-2.6,5.379-6.172,5.5-10.183-.026-4.174-1.868-8.566-5.463-10.876-4.126-3.022-9.6-4.828-14.651-3.318q-.3.1-.587.208a20.794,20.794,0,0,0-7.652,5.352,39.281,39.281,0,0,0-3.037,3.671q-.706.956-1.372,1.939a5.277,5.277,0,0,1-1.143,1.454,3.226,3.226,0,0,0-.726.781c-.206.278-.5.5-.731.766a17.019,17.019,0,0,1-1.421,1.678,36.853,36.853,0,0,1-7.462,4.982c-5.781,3.115-12.8,5.51-16.45,11.3-1.337,2.158-.966,5.268,1.958,5.62,8.607.137,15.853-6.144,24.329-7.066m-21.93-2.217c.628-.375,1.2-.9,1.81-1.3.635-.421,1.285-.82,1.945-1.2,1.33-.77,2.7-1.47,4.075-2.154a86.205,86.205,0,0,0,8.133-4.321,26.686,26.686,0,0,0,3.35-2.5c.792-.7,1.455-1.531,2.2-2.281a15.085,15.085,0,0,0,1.579-1.654c.456-.626.916-1.237,1.36-1.878q.91-1.312,1.895-2.57c2.432-3.023,5.289-5.9,8.894-7.467,5.7-2.391,12.231.092,16.669,3.949a12.786,12.786,0,0,1,3.687,8.944,12.519,12.519,0,0,1-3.19,7.632c-7.028,8.56-19.215,7.069-29.124,8.117-8.736.546-16.042,6.52-24.708,7.31-6.044-.293-1.373-6.95,1.428-8.623" transform="translate(-1481.775 -1296.707)" fill="#f2eee8"/>
        <path id="Path_5837" data-name="Path 5837" d="M1237.67,1500.472c3.364-1.605,7.078-2.237,10.625-3.314,9.457-2.525,16.65-9.615,24.927-14.448,9.238-5.422,20.1-6.3,30.519-7.473,8.241-1.284,17.927-2.228,23.2-9.534,4.735-6.876,5.711-16.081,4.012-24.123a19.019,19.019,0,0,0-10.452-11.705c-18.566-9.36-27.552,8.841-43.694,13.045-4.428,1.252-9.085.478-13.618.589-5.358-.221-16,2.549-11.611,9.766,1.991,2.874,3.852,5.927,4.2,9.487.625,5.982-1.221,12.55-5.692,16.723-9,9.022-22.439,10.942-32.825,17.9-7.451,5.006-14.786,11-18.737,19.236-.28.458-.555.918-.832,1.373q-2.3,3.868-4.4,7.849a.372.372,0,0,0,.161.5c.623.4,1.969-3.234,2.484-3.812.913-1.609,1.824-3.219,2.786-4.8a.3.3,0,0,0,.171-.166c.077-.167.159-.331.239-.5.442-.71.895-1.414,1.366-2.107a.579.579,0,0,0,.15-.68c4.64-7.638,12.139-13.3,19.7-17.9,10.342-5.948,23.074-8.281,31.312-17.446a21.318,21.318,0,0,0,4.827-16.447c-.364-4.193-2.9-7.168-4.826-10.673-2.106-5.651,6.139-7.344,10.2-7.522,9.1-.059,13.982,1.03,22.579-3.574,4.062-2.269,7.814-5.047,11.733-7.548,3.4-2.14,6.949-4.422,11.027-4.931a23.2,23.2,0,0,1,18.486,6.046,18.389,18.389,0,0,1,5.282,14.018c-.086,6.412-1.3,13.318-5.7,18.254-7.05,7.975-23.145,7.706-33.194,9.308a55.681,55.681,0,0,0-18.61,5.852c-7.834,4.4-14.51,10.923-23.062,14.006-4.911,1.729-10.3,2.271-14.806,5.027-3.961,2.513-7.619,5.848-9.567,10.19a29.321,29.321,0,0,0-2.006,18.417.392.392,0,0,0,.736-.183,5.661,5.661,0,0,1-.371-1.649,35.056,35.056,0,0,1,.058-8.675,23.678,23.678,0,0,1,13.217-18.378" transform="translate(-1032.542 -1231.505)" fill="#f2eee8"/>
        <path id="Path_5838" data-name="Path 5838" d="M2052.539,1667.987a53.39,53.39,0,0,1-8.835-4.209c-2.169-1.168-4.555-2.3-7.081-2.1-6.469,1.386-5.739,11.344-5.908,16.479a41.489,41.489,0,0,1-1.5,10.29,50.214,50.214,0,0,1-10.773,18.857c-3.713,4.04-8.25,7.348-11.526,11.807-2.48,3.5-4.89,7.234-5.793,11.488,0,.583-.635,2.175.227,2.319.369-.025.356-.415.34-.695a9.91,9.91,0,0,1,.407-2.456c1.143-4.066,3.539-7.651,6.022-11.019,3.12-3.865,7.082-6.933,10.492-10.53a53.9,53.9,0,0,0,9.7-14.965,40.958,40.958,0,0,0,3.163-15.764c.121-4.52-.4-13.727,5.177-15.065,3.98-.219,7.291,2.546,10.724,4.168,3.6,1.977,7.709,2.711,11.353,4.584,9.171,5.085,17.387,12.889,21.484,22.693,3.707,9.329,3.274,19.9.626,29.467-.568,2.033-1.285,4.1-2.017,6.095-.108.71-2.314,5.154-1.539,5.162.716.091.8-1.427,1.131-1.951,1.157-3.066,2.319-6.139,3.194-9.3,2.664-9.742,3.058-20.538-.812-30.011-4.666-11.164-16.578-22.039-28.253-25.348" transform="translate(-1729.423 -1433.781)" fill="#f2eee8"/>
        <path id="Path_5839" data-name="Path 5839" d="M1598.935,1828.167c-2.031-8.969-9.693,1.171-14.088,2.43-5.672,2.384-11.923,1.61-17.8.533-10.143-2.046-14.835,9.078-22.128,13.757-6.456,4.371-14.831,3.779-21.646,7.4-6.049,2.832-9.738,11.27-7.239,17.515.533.5,1.25-.686.423-.75-1.655-6.176,1.535-13.624,7.459-16.25,6.981-3.532,15.513-2.924,21.945-7.66,5.352-3.631,8.669-9.8,14.537-12.7,3.08-1.213,6.435-.659,9.593-.091,5.241.99,10.863.857,15.79-1.346,4.45-1.681,12.114-11.43,12.571-.914.029,7-7.224,10.643-12.667,13.38-6.211,3.061-12.553,5.955-18.305,9.843-4.435,2.942-8.611,7.272-8.541,12.935.106.566-.362,2.643.413,2.665a.375.375,0,0,0,.345-.393c-.607-5.838,2.163-10.289,6.812-13.593,4.43-3.282,9.488-5.784,14.415-8.26,7.513-3.866,19.8-7.952,18.11-18.5" transform="translate(-1310.369 -1574.29)" fill="#f2eee8"/>
        <path id="Path_5840" data-name="Path 5840" d="M1655.811,1994.271c-3.388,1.294-6.054,3.964-8.9,6.141-1.674,1.34-3.285,2.67-5.042,3.918-2.586,1.892-5.632,3.159-7.971,5.379-.541.7-3.237,3.182-2.652,3.958.2.524.938.107.68-.357,2.687-4.581,7.925-6.3,11.9-9.486,2.257-1.327,15.063-14.166,14.949-6.661-2.134,3.636-5.188,6.677-7.973,9.824a51.233,51.233,0,0,0-5.97,7.453.369.369,0,1,0,.608.418,48.616,48.616,0,0,1,3.695-4.93c3.324-3.719,6.844-7.294,9.719-11.387a2.673,2.673,0,0,0-3.043-4.269" transform="translate(-1410.397 -1720.583)" fill="#f2eee8"/>
        <path id="Path_5841" data-name="Path 5841" d="M2144.684,1807.737c-3.809,3.1-5.158,8.063-6.232,12.646a44.069,44.069,0,0,1-4.786,11.213c-4.534,6.727-11.828,10.978-16.681,17.462a49.806,49.806,0,0,0-3.445,4.715c-.213.48-.713.994-.592,1.542.724.739.836-.765,1.263-1.2a57.777,57.777,0,0,1,7.437-9.151c4.7-4.735,10.512-8.709,13.683-14.731a47.41,47.41,0,0,0,3.958-10.087c.9-4.076,2.18-8.2,5.178-11.261,9.61-7.5,21.438,17.274,20.59,24.976a28.793,28.793,0,0,1-3.664,12.8c-2.065,3.374-5.033,6.071-7.8,8.859-2.443,2.384-4.919,4.769-7.4,7.119a.375.375,0,0,0-.039.52c.557.549,2.063-1.636,2.668-2,2.934-2.812,5.831-5.558,8.665-8.5a27.235,27.235,0,0,0,8.317-18.825c.6-8.358-10.575-32.145-21.121-26.088" transform="translate(-1826.091 -1558.985)" fill="#f2eee8"/>
        <path id="Path_5842" data-name="Path 5842" d="M2262.381,1930.042c.8-4.157-.94-8.218-3.284-11.57-2.1-3.535-4.67-.5-5.918,1.928-3.126,5.77-5.154,12.082-8.6,17.691a54.337,54.337,0,0,1-5.2,6.767c-.259.481-1.75,1.33-.943,1.828.332.118.465-.216.662-.406,1.23-1.3,2.359-2.685,3.465-4.088,5.335-6.426,7.489-14.695,11.524-21.875,2.135-3.663,3.453-3.5,5.39.157a13.839,13.839,0,0,1,2.332,7.62c-.281,5.754-4.546,10.319-7.656,14.863-.332.705-3.4,4.134-2.7,4.5.657.359,1.529-1.833,2.032-2.286.908-1.293,1.839-2.569,2.768-3.849,2.524-3.46,5.125-7.046,6.13-11.283" transform="translate(-1934.182 -1653.985)" fill="#f2eee8"/>
        <path id="Path_5843" data-name="Path 5843" d="M419.353,1751.452a10.467,10.467,0,0,0,1.729-10.921c-1.159-2.191-3.995-2.888-6.307-2.733-7.173,1.14-15.921,7.653-20.863,12.871-.223.236-.422.5-.648.742-.347.364-.713.716-1.033,1.1a7.222,7.222,0,0,0-1.23,2.569,3.634,3.634,0,0,0,.071,2.368,4.7,4.7,0,0,0,4.374,2.7c5.43.041,20.382-4.643,23.906-8.7m-7.829,3.783c-5.176,1.833-10.5,4.009-16.043,4.172a5.4,5.4,0,0,1-1.835-.382,3.167,3.167,0,0,1-1.986-2.34,3.666,3.666,0,0,1,.127-1.679c.194-.646.625-1.149.861-1.759a4.6,4.6,0,0,1,.943-1.12q.514-.569,1.044-1.123,1.063-1.112,2.19-2.161a49.684,49.684,0,0,1,7.64-5.866,42.481,42.481,0,0,1,8.652-4.133c4.735-1.153,8.243.746,8.037,5.954.164,5.564-4.938,8.822-9.628,10.437" transform="translate(-340.163 -1499.462)" fill="#f2eee8"/>
        <path id="Path_5844" data-name="Path 5844" d="M681.2,1396.259c8.188-4.7,16.274-9.676,22.951-16.437,12.348-12.64,5.025-19.127,11.3-31a53.015,53.015,0,0,1,4.611-6.239c1.352-1.774,3.118-3.4,3.722-5.61.927-5.521-5.08-8.4-9.043-10.766-4.018-2.454-10.016-2.6-13.393,1.005-1.6,2.029-2.315,4.595-3.1,7.019-2.412,9.282-3.5,18.881-6.7,27.969-3.275,10.894-10.8,19.833-19.863,26.5-8.951,6.511-19.6,10.127-30.323,12.465-6.485,1.467-12.379,4.7-18.679,6.75-7.5,2.788-15.534,3.689-23.044,6.379-8.1,2.877-14.958,8.386-12.073,17.831.344,1.039,1.5.553.681-.313-2.945-9.836,5.28-14.784,13.356-17.439,7.71-2.251,15.708-3.515,23.231-6.429,5.018-1.768,9.8-4.2,14.942-5.617,6.356-1.554,12.864-2.979,18.9-5.6,11.5-4.781,21.857-12.716,28.6-23.279,6.984-11.554,8.389-25.278,11.451-38.165,1.621-5.69,2.976-10.06,9.84-10.125,3.516-.036,6.492,2.046,9.361,3.858,2.268,1.337,4.46,3.125,5.11,5.8.575,1.978-.689,3.775-1.882,5.24a88.142,88.142,0,0,0-6.112,8.013c-7.736,14.25,2.818,19.7-16.055,35.419-5.608,5.025-12.264,8.568-18.667,12.445-3.53,2.238-6.859,4.779-10.228,7.249-8.376,6.418-16.917,12.633-24.865,19.588-4.612,4.052-8.947,8.683-11.416,14.39-.108.5-2.01,4.124-1.183,4.164.678.271,1.16-2.674,1.668-3.424a32.355,32.355,0,0,1,3.16-5.695c7.4-9.794,17.943-16.666,27.521-24.152,5.277-4.1,10.591-8.191,16.226-11.792" transform="translate(-509.339 -1142.8)" fill="#f2eee8"/>
        <path id="Path_5845" data-name="Path 5845" d="M713.606,1999.991c-6.979,3.208-19.107,6.673-21.282,14.795-.259,1.344-.5,3.992.129,5.195.368.269.822-.3.509-.61-1.414-7.285,4.883-11.475,10.654-14.168a112.9,112.9,0,0,1,13.6-5.687c2.115-.769,4.648.3,3.817,2.866-.713,2.291-2.412,4.108-3.768,6.041-1.37,2.05-8.67,10.591-7.986,12.375.658.311,1.326-2.111,1.8-2.594,2.266-3.718,5.12-7.027,7.678-10.54,5.6-6.659,3.508-11.614-5.161-7.671" transform="translate(-600.073 -1724.507)" fill="#f2eee8"/>
        <path id="Path_5846" data-name="Path 5846" d="M2406.642,1497.542c-2.564-.892-5.156-1.7-7.758-2.475-.547-.163-1.1-.316-1.65-.455-.364-.092-.729-.177-1.094-.264a8.894,8.894,0,0,1-.882-.328,18.281,18.281,0,0,0-2.037-.588,17.765,17.765,0,0,0-4.208-.444,8.587,8.587,0,0,0-4.508,1.09,3.451,3.451,0,0,0-1.51,3.62c2.812,7.17,11.25,12.353,16.882,17.331a104.181,104.181,0,0,1,8.427,8.515c2.533,3.039,5.342,5.623,9.551,5.584,3.676-.066,7.5-2.845,9.156-6.081,1.837-4.691,1.448-10.7-1.949-14.6-4.557-5.782-11.676-8.54-18.42-10.9m20.2,23.829a10.458,10.458,0,0,1-8.709,7.016c-4.416.15-7.1-2.771-9.744-5.858a89.747,89.747,0,0,0-9.058-8.946c-3.616-3.1-17-12.678-15.479-17.657,1.6-2.863,5.674-2.139,8.423-1.885a8.342,8.342,0,0,1,1.25.3c.455.113.925.15,1.383.254.645.146,1.279.406,1.9.613q.849.281,1.7.55c1.149.365,2.3.718,3.454,1.073,2.327.717,4.654,1.44,6.945,2.265a54.2,54.2,0,0,1,6.671,2.861,32.185,32.185,0,0,1,6.009,3.981c.494.42.956.869,1.432,1.309,4.028,3.721,5.074,8.887,3.82,14.121" transform="translate(-2059.07 -1288.241)" fill="#f2eee8"/>
        <path id="Path_5847" data-name="Path 5847" d="M3132.012,1619.957a32.166,32.166,0,0,0-11.1,3.212c-6.172,3.027-10.849,8.154-14.878,13.6-5.367,7.478-12.418,15.857-22.363,16.148-4.924-.213-9.206-3.185-13.892-4.456-6.087-1.8-12.548-3.3-18.923-2.76-2.881.542-6.021,1.659-7.8,4.116-2.433,3.727-1.441,7.178,2.069,9.679,7.108,5.508,16.451,6.643,24.595,10.042,10.533,4.046,22.677,9.269,26.62,20.642,1.356-.2-1.045-4.11-1.594-5-5.784-9.142-16.512-13.109-26.156-16.863-7.89-3.184-16.992-4.29-23.637-9.945-2.99-2.147-3.164-5.6-1.05-8.449,1.629-1.914,4.16-2.846,6.552-3.393,6.4-.75,12.91.863,19.039,2.622,4.462,1.249,8.543,3.86,13.165,4.471,7.272.475,13.7-4.262,18.415-9.358,5.973-6.876,10.559-15.351,18.895-19.74a28.754,28.754,0,0,1,10.744-3.622c1.543-.248,3.09-.463,4.639-.668.3-.072.938.024.927-.47-.037-.8-3.266.187-4.268.188" transform="translate(-2627.504 -1397.369)" fill="#f2eee8"/>
        <path id="Path_5848" data-name="Path 5848" d="M3454.581,1672.151c-7.916,3.149-12.723,10.548-17.72,17.04a61.521,61.521,0,0,1-9.876,10.108c-4.729,4-13.563,9.3-8.591,16.363,1.553,2.543,3.926,4.41,5.956,6.55,3.9,4.138,7.613,8.969,8.991,14.585a.371.371,0,0,0,.676-.18c-.486-3.126-2.271-5.88-3.936-8.513-2.563-4.118-6.207-7.305-9.527-10.786-6.272-6.948-1.033-11.081,4.688-15.634a68.959,68.959,0,0,0,14.214-14.677c3.514-4.568,7.047-9.485,12.08-12.477a34.586,34.586,0,0,1,7.994-3.37.374.374,0,0,0,.233-.47c-.383-.762-4.22,1.13-5.183,1.46" transform="translate(-2951.256 -1441.42)" fill="#f2eee8"/>
        <path id="Path_5849" data-name="Path 5849" d="M3613.9,1834.235c-.619.263-1.172.692-1.773,1-7.61,4.165-13.846,9.737-13.694,19.068.073,3.422,1.377,6.648,2.131,9.952a34.547,34.547,0,0,1,1.223,8.13,36.8,36.8,0,0,1-.383,4.809c.011.407-.392,1.125.161,1.3.793.11.634-2.7.826-3.38.848-6.587-1.94-12.8-3.091-19.156-1.019-9.508,4.825-15.407,12.586-19.717.771-.433,1.531-.886,2.288-1.34a.37.37,0,0,0-.274-.669" transform="translate(-3107.876 -1582.686)" fill="#f2eee8"/>
        <path id="Path_5850" data-name="Path 5850" d="M2752.771,1795.382c-8.255-6.519-16.318-14.949-17.5-25.875-.625-3.38.167-7.784-2.782-10.2-2.268-1.512-5.218-.408-7.295.949-3.123,1.939-4.77,5.4-5.919,8.761-3.349,8.622-.266,15.75,1.8,24.113a38.445,38.445,0,0,1-1.179,20.9c.839,3.448,3.039-9.583,2.8-10.411a42.9,42.9,0,0,0-1.6-13.552c-1.6-5.569-3.487-11.448-2.093-17.288,1.12-4.592,2.777-9.755,7.136-12.224,2.042-1.263,5.417-2.082,6.88.4,1.447,2.793,1.039,6.088,1.577,9.109a31.164,31.164,0,0,0,3.028,9.625c3.531,6.471,8.976,11.76,14.712,16.3,7.23,5.36,13.945,11.163,18.007,19.378a.377.377,0,0,0,.5.171c.574-.455-.341-1.185-.5-1.7-3.99-7.725-10.72-13.338-17.566-18.458" transform="translate(-2348.004 -1517.412)" fill="#f2eee8"/>
        <path id="Path_5851" data-name="Path 5851" d="M2833.817,2014.844c-4.347-4.879-9.626-6.207-7.03,2.368.729,3.136,1.58,6.243,2.322,9.377.28,1.181.574,2.36.791,3.555.07.277.039.681.357.8,1.371.685-1.157-6.876-1.2-7.681-.6-2.351-1.216-4.7-1.742-7.065-.216-1.248-.733-2.574-.385-3.835,1.945-2.453,6.165,3.034,7.682,4.347a46.091,46.091,0,0,1,7.113,7.957,38.036,38.036,0,0,1,3.125,5.9.372.372,0,0,0,.495.17c.711-.378-1.557-3.862-1.862-4.621-2.372-4.437-6.174-7.75-9.667-11.271" transform="translate(-2441.458 -1735.194)" fill="#f2eee8"/>
        <path id="Path_5852" data-name="Path 5852" d="M141.168,219.316c15.057.515,30.174,1.822,45.23.931,11.6-1.018,23.193-3.894,34.875-2.425,7.252.83,14.4,3.872,19.065,9.652a75.434,75.434,0,0,0,12.68,12.976c4.982,4.4,10.989,7.576,15.66,12.316,3.578,4.43,5.051,10.248,5.02,15.875-.068,5.928.248,11.872,2.124,17.542,1.824,6.495,4.693,12.957,9.476,17.82,3.019,2.577,6.613,6.6,10.983,5.355,6.491-2.065,8.915-12.033,17.083-15.451,7.817-3.969,16.813-2.836,25.126-1.324,6.982,1.243,13.98,2.528,21.082,2.8,4.459.217,8.944.128,13.378.713,11.6,1.845,22.889,7.076,30.442,16.292,3.98,4.479,6.807,9.715,9.53,15.036,2.742,5.836,5.919,10.787,12.636,12.327,3.743.916,7.573-.222,11.2-1.145a34.49,34.49,0,0,0,11.166-5.082c5.025-3.056,9.771-6.538,14.709-9.726,11.725-7.36,24.611-13.343,38.48-15.054a64.015,64.015,0,0,1,16.156.11c8.816,1.265,17.2,4.58,26.024,5.784a55.434,55.434,0,0,0,18.521-.977c8.54-1.63,16.994-4.206,25.755-4.231,12.4.191,25.967,2.872,35.065,11.893a16.577,16.577,0,0,1,1.689,2.083.372.372,0,0,0,.5-.485c-5.84-8.049-16.1-11.425-25.51-13.242a64.69,64.69,0,0,0-15.92-.811c-7.507.669-14.78,2.742-22.164,4.15-9.758,2.281-19.84,1.183-29.377-1.587-23.158-7.478-43.132-3.593-63.916,8.341-9.65,5.135-17.865,12.843-27.975,17.094-5.911,1.84-12.769,4.146-18.439.444-4.645-2.464-6.515-7.7-8.9-12.073a59.912,59.912,0,0,0-13.234-18.044c-6.948-6.372-15.974-9.865-25.124-11.645-4.837-.814-9.761-.662-14.643-.911a113.122,113.122,0,0,1-14.986-1.745c-11.975-2.176-26.036-5.36-36.224,3.347-4.138,3.356-6.253,8.672-10.672,11.689-3.1,2.045-6.341.3-8.859-1.8a28.258,28.258,0,0,1-7.952-9.321,55.75,55.75,0,0,1-6.107-18.411c-.681-5.3.075-10.716-.937-15.982-2.477-11.821-9.645-13.782-18.092-20.688a90.272,90.272,0,0,1-9.068-7.971c-2.7-2.659-4.845-5.822-7.447-8.565-10.622-10.616-27.059-9.039-40.718-7.178-5.594.723-11.194,1.592-16.853,1.78-8.6.216-17.255-.366-25.874-.591-4.875-.154-9.749-.313-14.616-.619-.478-.05-.51.725-.05.737" transform="translate(-124.45 -186.951)" fill="#f2eee8"/>
        <path id="Path_5853" data-name="Path 5853" d="M419.206,38.43c8.074,1.218,16.488,2.915,23.185,7.865,4.076,2.907,7.477,6.616,11.4,9.711,5.972,4.623,12.549,8.379,19.05,12.192,14.914,9.2,15.4,15.754,19.029,31.516,2.553,9.409,9.734,21.822,21.167,19.226,7.617-1.594,15.054-4.121,22.819-5.006a55.811,55.811,0,0,1,21.12,1.467c3.682,1.055,7.155,2.692,10.714,4.082,8.264,2.7,16.909,4.146,25.456,5.663,8.456,1.291,17.481,2.121,24.467,7.576,3.9,2.824,6.952,7.751,12.031,8.383,5.213-.022,6.816-5.732,5.476-9.972-.826-3.76-3.366-6.736-5.178-10.042-2.834-5.228-4.085-11.131-5.742-16.8-1.626-5.527-.24-11.461,1.97-16.635,1.756-4.086,4.517-7.621,6.629-11.518,1.293-2.334,2.655-4.789,2.693-7.526-.017-12.965-16.583-5.838-20.214,1.333-2.765,3.8-3.015,8.551-3.345,13.07a61.76,61.76,0,0,1-3.01,16.466c-1.914,5.123-4.615,10.432-9.278,13.547a27.726,27.726,0,0,1-17.374,3.359,33.738,33.738,0,0,1-11.15-4.22c-5.431-3.81-9.491-9.389-12.763-15.1-3.645-6.621-6.215-14.2-12.4-19a42.914,42.914,0,0,0-16.773-8.582c-6.63-1.72-13.21-3.948-18.514-8.457-5.793-4.554-8.7-11.511-12.785-17.433a37.675,37.675,0,0,0-14.246-11.9c-.462-.1-5.519-2.352-5.219-1.075a.412.412,0,0,0,.469.358A25.3,25.3,0,0,1,485,33.172c15.008,8.468,14.125,18.5,24.685,28.019a37.194,37.194,0,0,0,12.811,7.1c6,1.879,12.292,3.145,17.658,6.59a33.807,33.807,0,0,1,14.565,16.772c3.453,7.311,7.837,14.3,13.975,19.664a31.6,31.6,0,0,0,12.63,5.668,29.822,29.822,0,0,0,12.937-.816c6.085-1.492,10.382-5.808,13.125-11.293,3.363-6.381,4.692-13.6,5.2-20.738.339-3.383.317-6.871,1.423-10.122a18.356,18.356,0,0,1,8.206-9.7c6.96-3.982,14.155-2.817,12.16,6.649-2.617,7.33-8.548,13.09-10.47,20.743-2.06,6.545-1.064,11.568,1.015,17.909,1.2,4.023,2.278,8.144,4.363,11.823,1.775,3.265,4.289,6.188,5.116,9.893,1.474,4.5-.875,10.334-6.289,8.712-4.524-1.964-7.411-6.326-11.5-8.974-6.04-3.959-13.211-5.3-20.259-6.166-6.077-.952-12.136-2.029-18.128-3.425a65.106,65.106,0,0,1-11.806-3.306c-5.929-2.648-12.136-4.73-18.657-5.158-10.076-1.084-20.01,1.413-29.676,3.979-9.639,2.907-14.712,1.923-20.629-6.614-7.508-10.236-4.944-24.855-13.719-34.37-7.517-8.306-18.377-12.2-27.191-18.871-5.106-3.544-9.186-8.337-14.3-11.87-12.3-8.4-27.964-7.465-42.049-10.022a47.235,47.235,0,0,1-24.436-13.692c-.336-.338-.86.242-.5.546,14.372,14.342,25.387,14.1,43.943,16.326" transform="translate(-326.62 -18.513)" fill="#f2eee8"/>
        <path id="Path_5854" data-name="Path 5854" d="M1333.811,478.776c7.625.386,17.588.2,21.422-7.672,2.654-4.917-.427-10.285-4.161-13.651a24.888,24.888,0,0,0-7.468-4.63,30.265,30.265,0,0,0-8.248-1.96,35.038,35.038,0,0,0-4.271-.154c-1.5.036-3,.031-4.5.114-2.725.151-5.909.436-7.734,2.711-1.46,1.82-1.939,4.2-2.345,6.434a21.464,21.464,0,0,0,.172,10.207c2.443,6.707,10.824,8.212,17.135,8.6m-17.1-13.918a42.224,42.224,0,0,1,.853-6.672,12.269,12.269,0,0,1,1.385-3.584,5.119,5.119,0,0,1,3.467-2.325,24.575,24.575,0,0,1,4.988-.555c1.533-.112,3.042-.284,4.583-.28a31.953,31.953,0,0,1,9.5,1.421,23.92,23.92,0,0,1,2.531.932c5.28,2.346,11.837,7.595,11.423,13.954-1.073,7.759-9.074,10.285-15.916,10.351-9.144.363-23.74-.956-22.813-13.241" transform="translate(-1138.428 -388.89)" fill="#f2eee8"/>
        <path id="Path_5855" data-name="Path 5855" d="M829.976,21.074a68.077,68.077,0,0,1,11.509,9.1c7.043,6.438,13.2,15.343,23.115,17.256,5.119,1.249,7.884-4.457,5.373-8.518-2.489-5.041-7.133-8.451-11.586-11.659-4.84-3.448-9.856-6.6-14.335-10.54A129.074,129.074,0,0,1,828.725.09c-2.519-.938,3.879,5.655,4.328,6.4A91.786,91.786,0,0,0,850.212,22.47c7.121,5.444,16.664,9.718,19.826,18.705a4.614,4.614,0,0,1-2.467,5.373c-3.056.89-6.68-.9-9.374-2.3-7.233-4.562-12.467-11.527-18.87-17.088A61.411,61.411,0,0,0,827.168,18.6c-4.841-2.97-13.178-5.862-13.635-12.391.575-.848-.924-.954-.764.214.792,7.712,11.574,10.858,17.207,14.649" transform="translate(-704.221 0.001)" fill="#f2eee8"/>
        <path id="Path_5856" data-name="Path 5856" d="M1524.019,51.444a54.3,54.3,0,0,1,7.939,10c3.262,5.041,6.621,11.651,13.367,12.1,9.779.253,15.964-9.235,21.312-16.128,6.14-8.389,16.061-11.848,26.214-10.717,4.852.2,9.775,1.728,14.566.3a23.731,23.731,0,0,0,14.822-10.982,54.463,54.463,0,0,0,3.672-6.617.369.369,0,0,0-.656-.341q-1.23,2.6-2.706,5.076c-2.816,4.842-6.763,9.173-12.151,11.094-6.359,3.019-13.028.757-19.683.6-7.756-.5-16.006,1.976-21.526,7.593-4.033,3.974-6.8,9.023-10.822,13-5.179,5.25-13.153,9.437-19.436,3.4-2.741-2.678-4.553-6.118-6.662-9.281-2.7-4.085-5.668-8.129-9.539-11.182-7.277-5.028-15.6-5.325-21.415-12.993a29.622,29.622,0,0,1-2.573-3.67c-.364-.381-1.121-2.731-1.668-1.512a27.652,27.652,0,0,0,2.761,4.514c7.228,10.189,16.255,8.7,24.183,15.735" transform="translate(-1294.693 -24.907)" fill="#f2eee8"/>
        <path id="Path_5857" data-name="Path 5857" d="M1701.091,53.183c3.595,3.177,8.588,4.569,13.28,5.054,7.533.388,13.569-5.112,20.531-7.1,6.766-2.375,14.091-1.406,21.018-2.915a51.726,51.726,0,0,0,9.011-2.884c.533-.355,4.839-1.887,4.344-2.525a.372.372,0,0,0-.493-.176,52.819,52.819,0,0,1-5.374,2.531,54.2,54.2,0,0,1-8.569,2.519c-6.575,1.191-13.456.47-19.858,2.638-11.4,3.7-16.272,10.74-29.126,4.96-5.055-1.838-7.442-7.026-11.3-10.405-.389-.29-2.618-2.318-2.2-.733,3.519,2.367,5.748,6.091,8.733,9.032" transform="translate(-1463.15 -36.761)" fill="#f2eee8"/>
        <path id="Path_5858" data-name="Path 5858" d="M45.886,280.938c6.887-.307,13.756.921,20.643.576,11.407-.592,22.559-3.366,33.871-4.779,8.6-.98,18.016-.852,25.629,3.754,2.626,1.669,5.588,3.517,6.569,6.647,1.594,4.3-1.016,9.413-5.048,11.3-7.438,3.106-15.884,1.265-23.537,3.58-9.787,2.7-16.263,6.424-20.794,15.9-11.807,26.847-19.855,29.93-48.651,28.559-2.036,1.051,3.6.864,4.847.964,24.649.754,33.133-3.96,43.268-26.631,4.664-11.02,10.755-15.235,22.111-18.224,7.847-2.222,16.673-.114,24.059-3.991,4.15-2.59,6.34-8.313,4.005-12.809-1.358-2.758-4.116-4.46-6.638-6.047-7.748-4.6-17.286-4.741-26.006-3.727-10.962,1.382-21.75,3.989-32.8,4.713-6.932.448-13.833-.74-20.766-.574-.43.056-1.005-.091-1.334.25-.278.343.255.812.567.54" transform="translate(-32.373 -237.716)" fill="#f2eee8"/>
        <path id="Path_5859" data-name="Path 5859" d="M27.772,405.771a45.314,45.314,0,0,0,12.145-4.658c5.892-3.132,9.87-8.614,14.162-13.536,4.036-4.609,9.341-7.818,13.808-11.96,3.371-3.031,7.793-9.624,2.314-12.785-4.523-2.491-12.8.033-18.148-.148-6.634.074-13.546-.1-19.83-2.428a11.921,11.921,0,0,1-2.358-1.311c-.52-.214-1.053-1.275-1.64-.875-.351.621.691.964,1.044,1.366,3.358,2.458,7.642,3.046,11.673,3.517a78.846,78.846,0,0,0,18.113-.016c2.885-.212,5.822-.775,8.7-.243,6.25,1.534,4.645,6.539,1.5,10.4-2.828,3.3-6.533,5.746-9.865,8.514a55.839,55.839,0,0,0-9.171,9.34A37.938,37.938,0,0,1,28.74,404.772a44.353,44.353,0,0,1-5.369,1.017c-.522.187-1.984-.117-2.048.57.1.928,5.418-.448,6.449-.588" transform="translate(-21.323 -308.889)" fill="#f2eee8"/>
        <path id="Path_5860" data-name="Path 5860" d="M56.307,460.333c2.8-1.545,5.52-3.215,8.186-4.971,2.337-1.553,4.741-3.145,6.4-5.458,2.033-2.854,3.7-7.108,1.313-10.225-2.412-3.253-6.95-3.592-9.666-6.413-1.995.659,3.748,3.344,4.441,3.627a11.825,11.825,0,0,1,4.137,2.678c3.378,3.472.46,8.874-2.415,11.7a59.786,59.786,0,0,1-8.443,5.9c-.545.529-5.35,2.718-4.793,3.174.19.376.584.15.843-.016" transform="translate(-50.743 -373.848)" fill="#f2eee8"/>
        <path id="Path_5861" data-name="Path 5861" d="M2192.251,874.928c-1.651,1.763-2.957,3.97-5.4,4.724-3.83,1.819-8.158-.065-12.056,1.291a3.712,3.712,0,0,0-2.635,2.809c-.181,1.62,1.217,2.9,2.182,4a14.991,14.991,0,0,0,3.617,3.146,17.136,17.136,0,0,0,7.011,2.148c6.192.719,17.662-3.391,19.887-9.631,1.067-3.834-1.04-8.013-4.392-9.974a6.4,6.4,0,0,0-8.214,1.487m11.32,9.575c-3.5,4.865-11.144,7.8-17.017,7.873a17.158,17.158,0,0,1-5.824-.99,13.431,13.431,0,0,1-3.918-2.143,17.558,17.558,0,0,1-1.671-1.586,14.738,14.738,0,0,1-1.689-2.147,2.218,2.218,0,0,1-.467-1.056,2.733,2.733,0,0,1,.074-1.028c.392-1.3,1.851-1.865,3.067-2.073a30.1,30.1,0,0,1,5.8-.071,13.165,13.165,0,0,0,6.43-1.5c4.156-2.4,5.683-9,11.887-5.6,3.333,2.038,5.395,6.74,3.328,10.33" transform="translate(-1877.185 -752.877)" fill="#f2eee8"/>
        <path id="Path_5862" data-name="Path 5862" d="M3161.216,116.512c5.5-.221,13.242-10.21,16.1-14.674,2.427-3.517,3.82-7.593,5.97-11.263,1.909-3.23,4.733-5.746,7.084-8.634,3.587-4.333,5.651-9.75,9.78-13.659,3.283-3.582,7.133-6.574,10.563-10.006a90.068,90.068,0,0,0,8.628-10.007c.182-.461,3.481-4.019,2.61-4.132a.375.375,0,0,0-.515.091c-1.749,2.391-3.542,4.751-5.4,7.059a87.564,87.564,0,0,1-10.2,10.516,77.051,77.051,0,0,0-9.2,9.342c-1.782,2.391-3.062,5.03-4.777,7.5-2.382,3.74-5.832,6.62-8.368,10.238-2.431,3.477-3.693,7.6-5.942,11.181a48.214,48.214,0,0,1-13.112,14.6c-1.972,1.64-6.527,1.536-6.323-1.782.269-2.012,1.315-3.8,2.075-5.655a66.772,66.772,0,0,0,2.929-7.7,41.122,41.122,0,0,0,2.153-13.312c.065-9.755-3.887-19.277-1.984-29.058.311-2.134.711-4.277,1.066-6.408.007-.749.77-2.85.137-3.28-.772-.088-.456,1.052-.633,1.564-.627,4.357-1.66,8.764-1.8,13.194-.267,5.242.971,10.372,1.772,15.515a49.761,49.761,0,0,1,.3,14.413,59.311,59.311,0,0,1-4.3,14.045c-1.579,3.659-5.2,9.651,1.38,10.313" transform="translate(-2727.336 -38.027)" fill="#f2eee8"/>
        <path id="Path_5863" data-name="Path 5863" d="M3289.032,51.413c6.848-.1,9.853-10.724,12.641-15.766a45.155,45.155,0,0,1,5.642-8.969,74.134,74.134,0,0,1,9.444-9.553c.659-2.144-3.158,1.865-3.74,2.345a60.6,60.6,0,0,0-9.483,11.2c-3.164,5.075-5.028,10.847-8.316,15.852-1.36,1.842-3.177,3.923-5.6,4.136-4.36.023-5.263-3.323-4.13-6.952.9-4.7,1.949-9.392,2.4-14.163.384-2.893-.448-5.843.05-8.7a.369.369,0,0,0-.093-.684c-1.026.077-.766,1.658-.843,2.41a42.12,42.12,0,0,1-.628,12.449c-.536,3.14-1.155,6.264-1.78,9.388-1.137,3.44.649,6.808,4.436,7" transform="translate(-2836.785 -14.235)" fill="#f2eee8"/>
        <path id="Path_5864" data-name="Path 5864" d="M3463.208,114.5c-1.459,1.732-3.158,3.463-3.773,5.7a3.372,3.372,0,0,0,3.234,4.424c6.348.4,11.809-3.451,16.829-6.832a79.631,79.631,0,0,1,9.25-5.046.37.37,0,0,0-.316-.667,81.877,81.877,0,0,0-11.1,6.233,31.534,31.534,0,0,1-9.8,5.05c-3.292.928-9.18,1.265-7.05-3.9,2.4-4.3,6.335-7.508,9.775-10.956q5.1-4.857,10.176-9.75c4.344-4.128,9.078-8.09,12.636-12.95a.374.374,0,0,0-.6-.368c-.183.242-.346.509-.547.742-.867,1.048-1.833,2.061-2.758,3.071-4.49,4.906-9.658,9.16-14.352,13.879-3.869,3.743-7.939,7.4-11.6,11.369" transform="translate(-2987.792 -73.652)" fill="#f2eee8"/>
        <path id="Path_5865" data-name="Path 5865" d="M3314,488.533c-14.433,4.782-22.81,18.585-34.138,27.8-4.154,3.486-9.254,5.663-13.332,9.224a7,7,0,0,0-2.016,5.161c.624,2.486,4.223,3.188,6.422,3.65,3.525.475,6.992-.732,10.42-1.386a67.563,67.563,0,0,1,10.021-1.6c11.167-.564,21.919,3.142,32.466,6.32.467.174.691-.562.252-.7q-2.236-.678-4.474-1.351c-9.148-2.828-18.619-5.5-28.286-5.013-6.45.269-12.588,2.747-19.006,3.112-2.414-.17-5.2-.782-6.914-2.6-.538-1.734.447-3.812,1.657-5.068,3.64-3.187,8.154-5.178,11.961-8.157,8.2-6.141,14.2-14.661,22.216-21.031,6.637-5.771,14.789-9.938,23.774-8.089,1.516-1.131-4.477-1.157-5.288-1.186a21.763,21.763,0,0,0-5.736.925" transform="translate(-2819.745 -420.738)" fill="#f2eee8"/>
        <path id="Path_5866" data-name="Path 5866" d="M3504.579,582.225c-2.611,3.676,2.153,6.668,5.465,6.916l-.026,0c5.3.567,10.377-1.534,15.46-2.725,2.755-.714,5.544-1.288,8.335-1.842a.377.377,0,0,0,.3-.436c-.252-.642-1.111-.054-1.617-.061-4.781.9-9.462,2.228-14.166,3.455-3.39.82-7.136,1.569-10.508.284-1.753-.694-3.984-2.3-3-4.437,1.884-3.609,5.934-5.349,8.976-7.842,6.152-4.014,10.993-11.339,18.945-11.543.839.653,1.038-.94-.191-.759-7.069.186-11.759,6.071-16.974,10.036-3.587,3.033-8.181,5.107-10.995,8.956" transform="translate(-3026.244 -485.98)" fill="#f2eee8"/>
      </g>
      <g id="Group_13208" data-name="Group 13208" transform="translate(598 2755.138)" opacity="0.3">
        <g id="Group_13207" data-name="Group 13207" transform="translate(0.343 0.343)">
          <path id="Path_5867" data-name="Path 5867" d="M2567.862,339.03c7.6-.05,13.57-6.11,18.053-11.646l-.007.009-.01.013a57.226,57.226,0,0,0,9.085-16.052q.125-.307.243-.617a21.442,21.442,0,0,0,1.146-3.993,10.184,10.184,0,0,0,.071-3.444,5.982,5.982,0,0,0-1.219-2.766,5.779,5.779,0,0,0-.494-.535,6.841,6.841,0,0,0-1.264-.942q-.342-.2-.7-.366c-.229-.106-.431-.262-.655-.381a11.064,11.064,0,0,0-3.113-.933,7.884,7.884,0,0,0-2.312-.183,5.346,5.346,0,0,0-1.385.374c-.434.168-.885.324-1.309.512-6.264,2.774-9.946,8.99-14.283,13.989-3.426,4.08-7.243,8.151-8.951,13.311-1.931,5.616.121,13.539,7.1,13.652m-6.468-13.167c1.423-4.553,4.611-8.252,7.642-11.835.962-1.137,1.953-2.242,2.881-3.411.954-1.2,1.889-2.419,2.853-3.613s1.948-2.357,3.011-3.455a24.826,24.826,0,0,1,3.37-2.952,16.6,16.6,0,0,1,3.931-2.1,7.122,7.122,0,0,1,1.489-.47,6.682,6.682,0,0,1,1.6.049c.231.028.461.065.691.1a7.745,7.745,0,0,1,1.422.325c.23.084.436.243.663.321.209.072.436.109.648.183a6.767,6.767,0,0,1,2.914,1.847,5.3,5.3,0,0,1,1.2,2.643,9.546,9.546,0,0,1-.1,3.2,22.148,22.148,0,0,1-.981,3.52c-.4,1.109-.848,2.2-1.311,3.28-4.052,9.476-13.8,24.172-25.052,24.781-6.58.2-8.555-7.147-6.87-12.41" transform="translate(-2209.328 -259.724)" fill="#f2eee8"/>
          <path id="Path_5869" data-name="Path 5869" d="M2625.5,1087.029c-8.542-2.75-16.768-1.243-25.017,1.68q-1.418.425-2.844.824-1.295.363-2.594.708c-.833.222-1.709.383-2.527.649s-1.577.693-2.373.99-1.6.561-2.411.8a24.886,24.886,0,0,1-5.053.762c-3.509.271-7.028.139-10.54.3a51.827,51.827,0,0,0-11.881,1.982c-3.812,1.14-7.871,2.348-10.654,5.358-4.26,4.328-3.824,11.217,1.423,14.529,9.475,5.5,20.962,5.5,31.59,6.54,10.077,1.079,20.21,1.418,30.34,1.543h-.051c10.339.371,28.9-2.845,28.514-16.208-.438-9.648-6.5-17.885-15.921-20.46m9.887,30.515c-7.766,5.255-17.434,5.683-26.511,5.327-12.593-.166-25.135-1.263-37.661-2.48-6.855-.974-16.765-2-21.751-7.174-2.737-2.795-2.519-7.351-.311-10.4a15.019,15.019,0,0,1,7.8-5.241,53.047,53.047,0,0,1,17.308-3.131c2.513-.09,5.029-.051,7.541-.182,1.316-.068,2.631-.172,3.937-.354a16.628,16.628,0,0,0,3.608-.769c1.017-.392,2.026-.8,3.034-1.216a9.207,9.207,0,0,1,1.107-.469c.369-.142.784-.213,1.166-.319q1.157-.321,2.306-.663c1.485-.44,2.963-.9,4.445-1.35a77.532,77.532,0,0,1,8.573-2.218,32.655,32.655,0,0,1,8.827-.474,31.277,31.277,0,0,1,7.375,1.618,20.113,20.113,0,0,1,10.827,8.052c4.118,6.437,6.048,16.834-1.623,21.437" transform="translate(-2197.806 -940.016)" fill="#f2eee8"/>
          <path id="Path_5871" data-name="Path 5871" d="M1438.636,839.625c-3.729-3.1-6.886-6.9-11-9.524a30.922,30.922,0,0,0-13.435-4.3,20.533,20.533,0,0,0-3.108.019,48.454,48.454,0,0,0-6.832.991c-1.128.232-2.247.525-3.379.734a11.5,11.5,0,0,1-3.322-.064,12.611,12.611,0,0,1-2.927-.8c-1.985-.732-3.927-1.587-5.954-2.2a52.6,52.6,0,0,0-14.641-2.7c-10.794-.724-23.652,5.278-23.893,17.413.34,10.812,9.865,16.054,18.322,20.509,5.634,3.122,10.45,7.345,15.34,11.481,6.232,5.012,14.2,7.417,22.095,7.943,7.666.6,13.558-2.555,19.168-7.454,5.151-4.507,10.847-8.4,15.734-13.2,3.416-3.12,5.117-6.61,4.042-11.287-1.16-3.1-3.908-5.3-6.212-7.562m5.754,9.891a8.919,8.919,0,0,1-1.749,5.824,47.442,47.442,0,0,1-6.977,6.741c-5.56,4.251-10.692,9.063-16.452,13.044a21.9,21.9,0,0,1-13.861,3.207c-20.373-1.773-22.164-11.621-38.076-20.185-7.771-3.763-16.464-9.758-16.382-19.358.693-12.166,14.03-17.288,24.688-16.179a53.474,53.474,0,0,1,12.77,2.561c1.7.553,3.361,1.2,5.03,1.837a18.359,18.359,0,0,0,3.625,1.145,12.992,12.992,0,0,0,4.171.116c1.423-.25,2.815-.658,4.234-.93a39.227,39.227,0,0,1,7.359-.842,30.105,30.105,0,0,1,13.717,3.774c4.543,2.7,7.977,6.875,12.009,10.239,2.453,2.524,6.038,5.107,5.894,9.007" transform="translate(-1165.333 -712.342)" fill="#f2eee8"/>
          <path id="Path_5873" data-name="Path 5873" d="M45.345,713.215c-1.493-5.385,1.356-10.658,5.615-13.877,4.8-4.105,10.615-6.762,15.954-10.079,8.806-4.669,22.865-17.558,26.377-.507,1.578,5.855,5.584,9.887,11.963,9.011,8.437-1.9,15-7.931,22.706-11.507,13.386-5.845,27.967-5.513,36.045-19.823,2.662-4.778,3.959-10.133,5.649-15.3a105.5,105.5,0,0,1,5.389-13.909c5.052-10.006,8.242-19.407,1.565-29.633-2.512-3.443-5.965-6.242-7.457-10.359-2.72-6.81-1.74-14.706-5.445-21.22-5.12-7.685-14.3-8.01-17.21-18.82-2.377-7.937-.329-16.806-4.117-24.339a12.261,12.261,0,0,0-6.041-5.616c-7.346-4.4-16.059-4.086-24.325-4.18-11.378-.144-23.636-2.72-34.081,3.162-7.141,4.234-14.334,10.223-15.578,18.913-1.217,6.818-1.147,14-3.987,20.431-2.354,4.847-4.649,10.571-9.887,12.913-4.827,2.411-10.413,1.359-15.515.583-12.2-2.2-20.608-.081-30.337,7.731a.371.371,0,1,0,.483.562q.743-.628,1.517-1.217c9.759-7.131,17.484-8.323,29.163-6.187,4.682.7,9.74,1.5,14.228-.451,5.066-1.826,7.7-6.8,9.967-11.347,2.416-4.509,3.4-9.552,3.981-14.588,1.078-11.058,2.306-16.959,11.876-23.724,9.468-7.861,21.436-7.08,32.941-6.2,8.559.635,17.624-.8,25.732,2.6,2.862,1.355,6.057,2.57,8.071,5.129,4.6,6.408,3.008,14.72,4.377,22.071,2.221,17.4,16.011,14.357,19.651,26.666,1.89,5.272,1.545,11.073,3.442,16.351,1.331,4.326,4.605,7.474,7.424,10.848,7.145,10.044,3.982,19.5-1.066,29.508a111.2,111.2,0,0,0-5.9,15.462c-1.883,5.868-3.4,12.084-7.317,17-8.223,11.278-23.35,11.157-34.92,16.971-8.371,3.787-23.384,18.124-30.644,6.214-2.011-3.3-1.966-7.576-4.48-10.6-3.437-4.116-9.536-2.26-13.43.175C72.477,685,67.355,688.183,62.137,691.2c-6.365,3.84-15.268,7.966-17.44,15.653-1.7,6.537,1.31,10.947,5.567,15.506,4.469,5.634,3.545,13.489,1.887,20.018a13.537,13.537,0,0,1-.745,2.094.373.373,0,0,0,.1.5c.33.226.606-.148.7-.435a24.724,24.724,0,0,0,1.294-4.687,28.012,28.012,0,0,0,.05-12.694c-1.35-5.639-7.063-8.258-8.2-13.943" transform="translate(-2.5 -454.05)" fill="#f2eee8"/>
          <path id="Path_5875" data-name="Path 5875" d="M1317.979,1416.376c-6.753-5.544-14.749-9.225-22.046-13.957a56.668,56.668,0,0,1-12.949-12.848,52.584,52.584,0,0,0-21.907-18.435,34.074,34.074,0,0,0-25.363-.524c-7.7,2.453-13.83,7.971-21.161,11.157a68.709,68.709,0,0,1-11.5,3.369c-4.66.689-9.228,2.594-12.066,6.512-4.835,5.563-1.665,13.246-2.244,19.824-.086,8.183-6.5,14.274-13.212,18.009-12.53,7.213-27.669,11.816-36.233,24.209a88.674,88.674,0,0,0-8.7,15.366c-.528,1.4-1.577,2.813-1.609,4.321.268.5.905,0,.772-.431,12.373-29.791,22.053-29.468,47.563-43.66,6.6-3.916,12.354-10.377,12.2-18.455.33-6.6-2.62-14.425,2.843-19.662,4.847-5.788,13.1-5,19.624-7.668,8.76-2.777,15.533-9.611,24.349-12.321,13.68-4.858,25.357-.651,36.313,8,4.551,3.479,7.755,8.291,11.227,12.782a53.409,53.409,0,0,0,12.923,11.918c6.722,4.156,13.877,7.675,20.1,12.593,9.5,7.97,18.047,18.247,20.306,30.763,1.246,5.293,1.128,10.742.7,16.138-.208,2.672-.525,5.335-.931,7.985a.377.377,0,0,0,.289.438.373.373,0,0,0,.439-.288c.446-2.918.791-5.853,1-8.8a51.122,51.122,0,0,0-.7-15.322c-2.171-12.555-10.579-22.92-20.026-31.012" transform="translate(-974.505 -1184.069)" fill="#f2eee8"/>
          <path id="Path_5878" data-name="Path 5878" d="M2934.672,1624.24l-.109-.121a27.626,27.626,0,0,0-6.417-4.763c-.673-.406-1.369-.825-2.039-1.252-4.726-2.785-9.049-5.079-13.207-7.006-6.1-2.672-13.7-6-18.3-12.408-4.031-4.856-6.5-9.139-7.545-13.094a13.132,13.132,0,0,1,3.948-13.81l.014-.013c4.425-3.7,11.429-4.1,16.526-3.786l.017,0c2.321.262,4.667.628,6.934.981a82.318,82.318,0,0,0,13.957,1.368c9.679-.307,18.5-3.232,24.817-8.234q.747-.579,1.487-1.155a122.44,122.44,0,0,1,14.129-9.954,80.317,80.317,0,0,1,14.687-6.237,55.8,55.8,0,0,1,14.966-1.852,44.576,44.576,0,0,1,8.8.916.715.715,0,0,1,.56.811.528.528,0,0,1-.2.382c-.373.3-1.143.161-2.367-.1a5.98,5.98,0,0,0-.968-.171l-.041,0-.041-.006a54.421,54.421,0,0,0-14.53.2c-9.573,1.472-19.437,5.988-29.308,13.421-1.089.813-2.177,1.675-3.229,2.508a55.087,55.087,0,0,1-8.979,6.188,49.383,49.383,0,0,1-18.913,4.708,80.113,80.113,0,0,1-15.168-1.382c-7.522-1.534-13.712-1.355-18.928.546-5.584,2.011-8.647,8.808-6.69,14.843,1.7,5.8,7.483,13.124,12.066,17.07,3.3,2.631,7.224,4.4,11.02,6.105,1.81.814,3.681,1.656,5.467,2.583,4.746,2.408,8.979,4.8,12.935,7.309.063.038,1.637,1.009,3.108,2.084,2.4,1.756,2.635,2.387,2.528,2.808-.054.213-.242.474-.831.506Zm-43.207-51.946a12.488,12.488,0,0,0-3.747,13.127c1.021,3.859,3.447,8.059,7.418,12.84l.015.019c4.493,6.261,12,9.55,18.031,12.193,4.185,1.94,8.527,4.244,13.283,7.047.673.429,1.365.846,2.034,1.249a28.79,28.79,0,0,1,6.452,4.76l.036-.009c-.2-.62-2.854-2.587-5.321-4.1-3.942-2.5-8.155-4.881-12.885-7.281-1.771-.92-3.634-1.758-5.435-2.568-3.835-1.725-7.8-3.509-11.176-6.2-4.667-4.019-10.552-11.476-12.284-17.4a13.36,13.36,0,0,1,.464-9.282,11.5,11.5,0,0,1,6.648-6.408c4.4-1.605,9.472-2.014,15.4-1.232-.97-.137-1.942-.265-2.909-.374-4.968-.3-11.778.079-16.028,3.623m20.346-3.043q1.217.194,2.481.452a79.517,79.517,0,0,0,15.02,1.37,48.67,48.67,0,0,0,18.627-4.637,54.609,54.609,0,0,0,8.856-6.11c1.056-.836,2.148-1.7,3.243-2.519,9.961-7.5,19.928-12.061,29.625-13.551a55.154,55.154,0,0,1,14.686-.2,5.569,5.569,0,0,1,1.134.186,7.835,7.835,0,0,0,1.726.254,43.852,43.852,0,0,0-8.668-.9,55.128,55.128,0,0,0-14.768,1.822,79.61,79.61,0,0,0-14.549,6.178,122.008,122.008,0,0,0-14.046,9.9q-.742.577-1.485,1.154a37.084,37.084,0,0,1-11.934,6.19,49.417,49.417,0,0,1-13.291,2.189,83.172,83.172,0,0,1-14.078-1.375c-.851-.133-1.713-.267-2.58-.4" transform="translate(-2490.996 -1334.625)" fill="#f2eee8"/>
          <path id="Path_5879" data-name="Path 5879" d="M1105.9,24.87c14.391,2.814,30.786,6.167,40.408,18.211,3.967,5.169,6.539,11.765,12.416,15.156,4.662,2.737,10.2,3.186,15.3,4.705,5.82,1.745,11.622,4.732,15.233,9.769,4.02,5.133,6.217,11.309,9.352,16.958,4.744,8.019,11.277,16.8,21.2,17.985,3.574.559,7.074-.712,10.047-2.631a9.859,9.859,0,0,0,4.624-7.869c.6-5.548-2.754-10.561-2.432-16.109-.048-10.11,6.286-19.383,15.038-24.129,13.326-8.1,22.859-1.378,36.157,1.823,10.4,2.626,17.293,1.82,27.073-2.6,7.6-3.017,17.224-10.867,9.435-18.953-3.4-3.394-8.006-5.165-11.776-8.072a8.385,8.385,0,0,1-2.266-2.832c-2.068-.414,1.5,3.313,1.909,3.5,4.077,3.17,9.3,4.915,12.577,9.064,4.71,5.9-1.4,12.3-6.758,14.917-12.3,6.412-20.09,7.238-33.355,3.391-7.643-2.074-15.3-5.939-23.425-4.6-15.5,2.8-28.312,17.768-24.795,33.883,1.373,4.942,3.32,10.485.405,15.286-1.284,2.034-3.529,3.172-5.635,4.183-3.341,1.628-7.293,1.319-10.7.05-9.31-3.449-15.447-13.7-19.532-22.284-7.729-17.262-14.539-19.968-32.2-23.951a19.5,19.5,0,0,1-11.112-7.828c-4.972-7.674-8.546-13.934-17.046-18.418a78.7,78.7,0,0,0-18.159-6.77,112.5,112.5,0,0,0-11.832-2.554c-.482-.114-.591.65-.151.723" transform="translate(-954.345 -24.135)" fill="#f2eee8"/>
          <path id="Path_5881" data-name="Path 5881" d="M2921.566,79.188c14.872,9.462,18.717,36.825,12.152,52.215a62.041,62.041,0,0,1-5.755,11.215,120.127,120.127,0,0,1-12.02,13.189c-3.6,3.889-14.133,10.6-10.144,16.646a15.186,15.186,0,0,0,9.761,4.125c11.212.353,21.634-5.123,29.869-12.366,8.591-6.814,16.368-14.585,24.905-21.459a112.044,112.044,0,0,1,18.276-11.731,89.5,89.5,0,0,1,21.693-6.457c2.167-1.966-8.754,1.162-10.28,1.563-17.422,4.427-31.3,16.491-44.3,28.3-9.836,8.478-19.7,18.5-33.009,20.812-5.659,1.123-12.729,1.039-16.688-3.781-2.212-5.51,6.88-11.321,10.2-14.893,4.569-4.571,9.321-9.108,12.978-14.463,4.574-7.525,8.065-16.01,8.354-24.906.161-13.923-3.186-30.139-15.328-38.519-.59-.262-1.227-.752-1.9-.654-.64.795.8.769,1.234,1.16" transform="translate(-2506.881 -70.626)" fill="#f2eee8"/>
        </g>
        <g id="Group_13206" data-name="Group 13206" transform="translate(0 0)">
          <path id="Path_5868" data-name="Path 5868" d="M2565.706,337.218a7.492,7.492,0,0,1-6.261-3.249,12.608,12.608,0,0,1-1.167-10.857c1.529-4.621,4.722-8.371,7.809-12q.606-.712,1.2-1.421c1.012-1.167,2.007-2.423,2.968-3.637,3.226-4.073,6.561-8.285,11.438-10.445.307-.136.627-.256.936-.372l.388-.147a5.7,5.7,0,0,1,1.475-.4,8.26,8.26,0,0,1,2.412.188,11.314,11.314,0,0,1,3.208.967c.108.057.208.12.3.181a3.133,3.133,0,0,0,.335.192c.255.118.5.247.73.381a7.169,7.169,0,0,1,1.327.99,6.072,6.072,0,0,1,.524.567,6.345,6.345,0,0,1,1.29,2.924,10.418,10.418,0,0,1-.071,3.56,21.722,21.722,0,0,1-1.164,4.057q-.119.313-.245.623a57.524,57.524,0,0,1-9.119,16.118c-4.417,5.454-10.491,11.721-18.317,11.773Zm19.349-41.862c-.163,0-.327.007-.491.024a5.1,5.1,0,0,0-1.3.352c-.13.05-.263.1-.395.149-.3.112-.611.229-.9.357-4.722,2.091-8,6.236-11.178,10.243-.967,1.221-1.966,2.482-2.985,3.656-.395.47-.8.944-1.2,1.42-3.045,3.577-6.193,7.277-7.681,11.774a11.9,11.9,0,0,0,1.078,10.244,6.829,6.829,0,0,0,5.7,2.957c6.1-.042,11.142-4.064,15.134-8.424-4.83,5.21-9.9,8.092-14.716,8.353a6.822,6.822,0,0,1-5.912-2.727c-1.908-2.532-2.432-6.6-1.3-10.129,1.411-4.514,4.506-8.171,7.5-11.707l.208-.246c.312-.369.627-.734.941-1.1.644-.747,1.309-1.519,1.932-2.3q.575-.724,1.143-1.452c.557-.711,1.133-1.447,1.711-2.163,1.164-1.442,2.1-2.515,3.031-3.478a25,25,0,0,1,3.418-2.992,16.95,16.95,0,0,1,4.012-2.148c.1-.037.2-.076.3-.116a5.423,5.423,0,0,1,1.26-.373,6.971,6.971,0,0,1,1.68.049c.238.029.475.067.7.1a8.09,8.09,0,0,1,1.484.341,2.613,2.613,0,0,1,.375.181,1.932,1.932,0,0,0,.283.138c.089.031.186.055.289.081s.238.06.361.1a7.064,7.064,0,0,1,3.059,1.946,5.648,5.648,0,0,1,1.28,2.812,9.81,9.81,0,0,1-.1,3.315,22.2,22.2,0,0,1-1,3.575c-.409,1.147-.875,2.264-1.318,3.3a62.642,62.642,0,0,1-8.823,14.564q.422-.5.825-1l.011-.014a56.856,56.856,0,0,0,9.019-15.942c.085-.21.165-.413.243-.617a21.079,21.079,0,0,0,1.129-3.928,9.765,9.765,0,0,0,.07-3.327,5.658,5.658,0,0,0-1.147-2.608,5.428,5.428,0,0,0-.464-.5,6.491,6.491,0,0,0-1.2-.894c-.211-.124-.437-.242-.672-.351a3.708,3.708,0,0,1-.41-.233c-.09-.057-.175-.11-.261-.156a10.8,10.8,0,0,0-3.018-.9,9.024,9.024,0,0,0-1.722-.2m-.119.824a3.822,3.822,0,0,0-.477.028,4.916,4.916,0,0,0-1.1.332c-.106.041-.212.082-.315.12a16.273,16.273,0,0,0-3.85,2.062,24.332,24.332,0,0,0-3.324,2.912c-.918.948-1.841,2.006-2.991,3.432-.574.712-1.149,1.446-1.7,2.155q-.572.729-1.146,1.456c-.632.8-1.3,1.573-1.95,2.325-.313.364-.627.727-.937,1.094l-.208.247c-2.949,3.485-6,7.088-7.368,11.47-1.065,3.327-.584,7.148,1.2,9.51a6.153,6.153,0,0,0,5.335,2.454c4.868-.263,10.051-3.358,14.979-8.949a61.467,61.467,0,0,0,9.767-15.624c.439-1.026.9-2.131,1.3-3.26a21.513,21.513,0,0,0,.967-3.465,9.139,9.139,0,0,0,.1-3.084,4.964,4.964,0,0,0-1.12-2.473,6.4,6.4,0,0,0-2.768-1.749c-.093-.033-.194-.058-.3-.085s-.229-.057-.346-.1a2.5,2.5,0,0,1-.391-.186,2.068,2.068,0,0,0-.278-.137,7.466,7.466,0,0,0-1.36-.308c-.223-.036-.453-.073-.677-.1a8.682,8.682,0,0,0-1.035-.077" transform="translate(-2206.831 -257.226)" fill="#f2eee8"/>
          <path id="Path_5870" data-name="Path 5870" d="M2612.334,1121.956q-.812,0-1.6-.028c-8.38-.1-19.386-.374-30.313-1.544-1.732-.169-3.526-.314-5.261-.454-9.081-.732-18.472-1.489-26.465-6.131a9.306,9.306,0,0,1-4.42-6.883,10.024,10.024,0,0,1,2.924-8.182c2.833-3.063,6.868-4.27,10.771-5.437l.03-.009a52.173,52.173,0,0,1,11.963-2c1.495-.07,3.012-.087,4.48-.1,1.986-.022,4.039-.045,6.049-.2a24.521,24.521,0,0,0,4.983-.75c.819-.24,1.623-.506,2.388-.791.341-.127.688-.284,1.024-.437a13.232,13.232,0,0,1,1.363-.558c.525-.171,1.074-.3,1.605-.424.311-.073.632-.148.939-.23.894-.238,1.765-.476,2.59-.707.97-.272,1.923-.548,2.83-.82,6.75-2.39,15.715-4.74,25.222-1.682,9.364,2.563,15.708,10.716,16.165,20.774a12.207,12.207,0,0,1-3.738,9.341c-2.7,2.679-6.744,4.676-12.022,5.934a51.282,51.282,0,0,1-11.506,1.319m-1.2-.7c8.192.221,18.546-1.754,23.891-6.7a11.639,11.639,0,0,1-1.621,1.169c-7.917,5.354-17.944,5.724-26.709,5.381-12.966-.171-25.725-1.319-37.682-2.481H2569q-.732-.1-1.506-.21c-4.362-.6-9.782-1.352-14.324-3.182,6.883,2.8,14.567,3.417,22.04,4.019,1.738.14,3.535.285,5.276.455,10.928,1.169,21.939,1.438,30.311,1.54l.339,0Zm-42.046-3.315c11.94,1.16,24.679,2.306,37.625,2.477,8.665.34,18.56-.021,26.314-5.268l.016-.01a9.963,9.963,0,0,0,4.725-6.487c1.2-5.1-.876-10.817-3.214-14.472a19.767,19.767,0,0,0-10.646-7.912,30.961,30.961,0,0,0-7.3-1.6,32.44,32.44,0,0,0-8.734.47,77.623,77.623,0,0,0-8.535,2.209l-1.431.437c-.987.3-2.008.615-3.016.914-.84.249-1.6.467-2.312.665-.135.037-.274.071-.413.1a5.737,5.737,0,0,0-.722.2l-.052.02c-.462.176-.706.276-.834.332v.028l-.213.087c-.994.405-2.021.824-3.041,1.218a16.47,16.47,0,0,1-3.582.775l-.1.014c-1.175.164-2.435.277-3.966.357-1.433.074-2.887.094-4.293.113-1.067.015-2.171.03-3.254.069a52.556,52.556,0,0,0-17.206,3.111c-3.519,1.174-6.086,2.894-7.637,5.115-1.957,2.7-2.523,7.1.275,9.96,4.551,4.723,13.506,5.96,20.046,6.864.514.071,1.015.14,1.5.209m27.927-30.6q-.715.207-1.451.414c-.828.232-1.7.471-2.6.71-.317.084-.644.161-.959.235-.517.121-1.052.247-1.55.408a12.568,12.568,0,0,0-1.291.53c-.347.157-.706.32-1.069.455-.781.291-1.6.562-2.434.807a25.075,25.075,0,0,1-5.123.775c-2.033.157-4.1.18-6.094.2-1.462.016-2.974.033-4.456.1a51.493,51.493,0,0,0-11.8,1.97l-.026.008c-3.814,1.141-7.758,2.32-10.472,5.253a9.351,9.351,0,0,0-2.738,7.63,8.624,8.624,0,0,0,4.093,6.375,32.318,32.318,0,0,0,3.548,1.774,16.877,16.877,0,0,1-5.542-3.643c-2.685-2.741-2.833-7.4-.342-10.835,1.633-2.339,4.317-4.146,7.973-5.365A53.207,53.207,0,0,1,2572.1,1092c1.081-.039,2.188-.054,3.259-.069,1.4-.019,2.847-.039,4.266-.113,1.51-.078,2.752-.19,3.907-.351l.1-.014a15.986,15.986,0,0,0,3.43-.735c.994-.384,2-.793,2.973-1.191a7,7,0,0,1,1.118-.475l.05-.019a6.317,6.317,0,0,1,.809-.232c.131-.031.262-.062.389-.1.712-.2,1.464-.414,2.3-.661.771-.229,1.551-.466,2.317-.7m17.032-3.472q1.338,0,2.624.117a31.643,31.643,0,0,1,7.457,1.635,20.444,20.444,0,0,1,11.005,8.194c2.412,3.771,4.547,9.692,3.3,15a11.269,11.269,0,0,1-1.227,3.124,11.527,11.527,0,0,0,1.7-6.545c-.443-9.751-6.593-17.658-15.668-20.139l-.015,0c-9.166-2.95-17.858-.754-24.47,1.561l.382-.116a78.026,78.026,0,0,1,8.612-2.227,35.056,35.056,0,0,1,6.3-.6" transform="translate(-2195.302 -937.563)" fill="#f2eee8"/>
          <path id="Path_5872" data-name="Path 5872" d="M1405.6,877.378q-.932,0-1.883-.074c-6.123-.408-14.962-2.13-22.283-8.017l-1.137-.963c-4.417-3.746-8.985-7.62-14.155-10.485-4.711-2.482-8.891-4.793-12.272-7.919-4.035-3.731-6.072-7.944-6.227-12.879v-.018a15.948,15.948,0,0,1,5.341-11.668c4.609-4.225,11.858-6.554,18.917-6.081a52.947,52.947,0,0,1,14.724,2.714c1.354.409,2.693.934,3.987,1.442.648.254,1.318.517,1.98.761a12.3,12.3,0,0,0,2.849.782,11.406,11.406,0,0,0,3.219.067c.649-.12,1.308-.271,1.945-.417.466-.107.949-.217,1.427-.316a49.338,49.338,0,0,1,6.881-1,20.742,20.742,0,0,1,3.16-.018,31.236,31.236,0,0,1,13.585,4.354,47,47,0,0,1,7.031,5.894c1.288,1.232,2.619,2.506,4,3.657l.021.019c.385.379.792.764,1.186,1.137,2.022,1.915,4.114,3.895,5.106,6.55l.013.043c1.015,4.416-.3,8.108-4.145,11.617a116.268,116.268,0,0,1-9.341,7.959c-2.127,1.686-4.326,3.43-6.4,5.242-5.972,5.215-11.457,7.613-17.537,7.613m-57.272-40.351c.346,10.836,10.212,16.032,18.139,20.208,5.236,2.9,9.83,6.8,14.273,10.566l1.129.957c7.175,5.77,15.868,7.461,21.9,7.862a21.205,21.205,0,0,0,10.153-1.631,23.475,23.475,0,0,1-10.756,1.521c-13.224-1.151-18.755-5.736-25.16-11.046a75.526,75.526,0,0,0-13.044-9.176,40.208,40.208,0,0,1-11.223-7.555c-3.585-3.625-5.383-7.7-5.345-12.112v-.016a15.5,15.5,0,0,1,5.59-11.142c4.77-4.059,12.232-6.113,19.476-5.359a53.8,53.8,0,0,1,12.841,2.576c1.543.5,3.077,1.089,4.561,1.657l.486.186.4.153a15.859,15.859,0,0,0,3.158.974,12.857,12.857,0,0,0,4.058.117c.756-.133,1.519-.315,2.258-.491.642-.153,1.307-.311,1.97-.439a39.667,39.667,0,0,1,7.423-.849,30.6,30.6,0,0,1,13.883,3.817,45.648,45.648,0,0,1,7.958,6.525c1.323,1.263,2.69,2.57,4.1,3.75l.026.024c.421.433.869.862,1.344,1.316,2.236,2.139,4.77,4.563,4.647,7.939a11.109,11.109,0,0,1-.8,4.394,9.814,9.814,0,0,0,.587-6.632c-.94-2.5-2.968-4.415-4.927-6.271-.393-.372-.8-.756-1.185-1.135-1.4-1.164-2.736-2.443-4.029-3.68a46.506,46.506,0,0,0-6.922-5.809,30.545,30.545,0,0,0-13.283-4.252,20.218,20.218,0,0,0-3.056.02,48.7,48.7,0,0,0-6.784.984c-.47.1-.949.206-1.412.313-.645.148-1.311.3-1.974.423a11.926,11.926,0,0,1-3.425-.06,12.872,12.872,0,0,1-3.006-.82c-.668-.247-1.342-.511-1.993-.766-1.282-.5-2.607-1.023-3.942-1.426a52.3,52.3,0,0,0-14.552-2.684c-6.891-.463-13.945,1.8-18.421,5.9a15.277,15.277,0,0,0-5.119,11.167m.748-.392c-.06,7.506,5.235,13.733,16.188,19.038l.013.007a76.074,76.074,0,0,1,13.163,9.255c6.316,5.236,11.771,9.758,24.781,10.89a21.522,21.522,0,0,0,13.642-3.151c3.416-2.361,6.674-5.069,9.825-7.688,2.142-1.78,4.356-3.621,6.607-5.342a46.481,46.481,0,0,0,6.92-6.686c1.114-1.3,1.644-3.084,1.671-5.61v-.009c.114-3.071-2.2-5.283-4.436-7.423-.475-.454-.923-.883-1.349-1.32-1.427-1.192-2.8-2.5-4.126-3.769a45.132,45.132,0,0,0-7.825-6.427,29.887,29.887,0,0,0-13.549-3.726,39.032,39.032,0,0,0-7.286.836c-.648.125-1.305.281-1.941.432-.748.178-1.523.363-2.3.5a13.5,13.5,0,0,1-4.284-.115,16.4,16.4,0,0,1-3.3-1.011l-.4-.152-.486-.186c-1.475-.565-3-1.149-4.528-1.646a53.169,53.169,0,0,0-12.688-2.545c-7.075-.737-14.34,1.256-18.972,5.2a14.632,14.632,0,0,0-5.35,10.65m92.177,16.078a6.545,6.545,0,0,1-.512.685,47.142,47.142,0,0,1-7.022,6.785c-2.247,1.718-4.456,3.555-6.593,5.33-3.163,2.629-6.433,5.347-9.879,7.729q-.464.307-.95.587a36.885,36.885,0,0,0,6.389-4.581c2.083-1.823,4.29-3.572,6.423-5.263a115.785,115.785,0,0,0,9.3-7.92,15.476,15.476,0,0,0,2.848-3.352" transform="translate(-1162.832 -709.835)" fill="#f2eee8"/>
          <path id="Path_5874" data-name="Path 5874" d="M49.556,743.239a.721.721,0,0,1-.691-.57.709.709,0,0,1,.083-.51,13.248,13.248,0,0,0,.707-1.99l.01-.035c1.434-5.649,2.81-13.85-1.818-19.7-4.708-5.044-7.293-9.451-5.639-15.816,1.915-6.777,8.8-10.754,14.869-14.263.955-.552,1.858-1.074,2.726-1.6,2.268-1.313,4.552-2.676,6.76-3.995,2.88-1.72,5.857-3.5,8.828-5.179,4.231-2.644,10.4-4.255,13.868-.1a15.94,15.94,0,0,1,2.678,5.941,19.576,19.576,0,0,0,1.832,4.7,8.556,8.556,0,0,0,5.389,4.25c5.373,1.267,12.15-2.986,18.129-6.739a62.5,62.5,0,0,1,6.686-3.856,77.393,77.393,0,0,1,12.752-4.6c8.209-2.429,16.7-4.941,22.04-12.268l.009-.012c3.309-4.152,4.909-9.323,6.455-14.324.261-.843.53-1.714.8-2.564a112.14,112.14,0,0,1,5.918-15.5c5.594-11.09,7.728-19.831,1.1-29.151-.5-.6-1.03-1.208-1.541-1.794-2.371-2.725-4.823-5.543-5.937-9.155a41.085,41.085,0,0,1-1.74-8.251,40.584,40.584,0,0,0-1.7-8.093l-.006-.018c-1.568-5.3-5.042-7.681-8.72-10.2-4.757-3.258-9.676-6.627-10.941-16.51a57.589,57.589,0,0,1-.712-7.379c-.27-5.058-.549-10.288-3.6-14.539-1.692-2.146-4.274-3.333-6.771-4.481-.392-.18-.782-.359-1.166-.541-5.611-2.345-11.805-2.356-17.8-2.367-2.578,0-5.243-.009-7.823-.2-10.867-.835-23.182-1.782-32.7,6.118l-.021.016c-9.691,6.851-10.688,12.761-11.732,23.477-.5,4.284-1.4,9.823-4.02,14.717-2.005,4.028-4.757,9.557-10.143,11.5-4.509,1.951-9.655,1.181-14.2.5l-.21-.031c-12.126-2.217-19.688-.613-28.91,6.125-.515.393-1.021.8-1.5,1.2A.712.712,0,0,1,0,584.87a.7.7,0,0,1,.247-.485c9.76-7.837,18.343-10.024,30.619-7.806l.861.132c4.908.758,9.984,1.541,14.441-.684l.013-.006c4.627-2.069,6.875-6.788,9.048-11.352.224-.471.447-.939.67-1.4,1.941-4.4,2.518-9.261,3.075-13.964.249-2.1.506-4.271.882-6.377,1.033-7.213,6.182-13.48,15.741-19.147,8.223-4.631,17.568-4.079,26.605-3.546,2.527.149,5.139.3,7.655.335q1,.011,2.011.017c7.691.056,15.644.115,22.474,4.2a12.519,12.519,0,0,1,6.189,5.773c2.182,4.339,2.455,9.181,2.719,13.862a45.7,45.7,0,0,0,1.415,10.522c1.695,6.3,5.489,8.927,9.506,11.709,2.724,1.887,5.542,3.838,7.661,7.019l.013.021c2.1,3.7,2.724,7.867,3.326,11.9a41.8,41.8,0,0,0,2.139,9.36c.988,2.726,2.9,4.916,4.742,7.033.907,1.041,1.846,2.117,2.673,3.251l.01.015a21.862,21.862,0,0,1,3.67,15.128c-.639,5.246-2.995,10.449-5.215,14.847a104.526,104.526,0,0,0-5.367,13.855c-.384,1.172-.752,2.37-1.108,3.529a60.648,60.648,0,0,1-4.569,11.833c-5.864,10.388-15.054,13.133-24.785,16.039a99.129,99.129,0,0,0-11.423,3.931,81,81,0,0,0-8.277,4.674c-4.5,2.778-9.152,5.651-14.49,6.853l-.029.005A10.054,10.054,0,0,1,95.1,693.9a13.759,13.759,0,0,1-4.3-7.206l0-.02c-.88-4.271-2.437-6.83-4.762-7.823-4.305-1.839-10.569,2.093-16.1,5.562-1.784,1.119-3.468,2.177-5.012,3-1.685,1.046-3.442,2.042-5.141,3a67.577,67.577,0,0,0-10.761,7.037l-.016.013c-4.639,3.506-6.795,8.81-5.491,13.512l.006.024c.563,2.807,2.252,4.817,4.041,6.946,1.709,2.034,3.477,4.136,4.159,6.985.972,3.616.958,7.82-.048,12.841a24.794,24.794,0,0,1-1.308,4.738,1.073,1.073,0,0,1-.6.692.651.651,0,0,1-.214.036M48.9,720.7c4.2,6.019,2.846,14.026,1.427,19.612l-.014.048a13.64,13.64,0,0,1-.755,2.111l-.023.04a.062.062,0,0,0,.008.026l.013.008a.529.529,0,0,0,.165-.26l.011-.031A24.177,24.177,0,0,0,51,737.637c.984-4.915,1-9.016.055-12.537A12.309,12.309,0,0,0,48.9,720.7m22.641-38.1c-1.558.917-3.106,1.841-4.626,2.749-2.21,1.32-4.5,2.684-6.762,4-.868.524-1.773,1.047-2.732,1.6C51.462,694.4,44.708,698.3,42.87,704.8c-1.569,6.037.914,10.27,5.439,15.126-.414-.525-.843-1.035-1.268-1.541-1.763-2.1-3.586-4.267-4.186-7.24a11.776,11.776,0,0,1,.671-7.969,16.106,16.106,0,0,1,5.063-6.254,68.125,68.125,0,0,1,10.861-7.106c1.7-.962,3.452-1.956,5.128-3l.02-.012c1.524-.808,3.2-1.861,4.979-2.976.646-.406,1.3-.817,1.965-1.226m19.928,3.919c1.71,6.331,5.926,9.52,11.568,8.753a27.755,27.755,0,0,0,4.139-1.3A13.879,13.879,0,0,1,99,695.05a9.325,9.325,0,0,1-5.817-4.56,20.086,20.086,0,0,1-1.9-4.867l-.085-.29q.147.574.275,1.193m67.845-19.191c-5.479,7.51-14.078,10.055-22.395,12.516a76.861,76.861,0,0,0-12.644,4.553l-.013.006a62.038,62.038,0,0,0-6.61,3.815,75.272,75.272,0,0,1-9.539,5.367,72.49,72.49,0,0,0,9.19-5.077,81.483,81.483,0,0,1,8.356-4.716,99.62,99.62,0,0,1,11.508-3.963c9.594-2.866,18.656-5.572,24.383-15.718a60.118,60.118,0,0,0,4.512-11.7c.357-1.161.726-2.362,1.11-3.535a105.168,105.168,0,0,1,5.4-13.948c4.572-9.057,8.457-18.772,1.593-29.292-.808-1.107-1.734-2.17-2.63-3.2-1.887-2.165-3.839-4.4-4.866-7.24a42.312,42.312,0,0,1-2.177-9.5c-.592-3.969-1.2-8.072-3.238-11.654-2.046-3.067-4.806-4.978-7.474-6.826-3.942-2.73-8.018-5.552-9.775-12.086a46.2,46.2,0,0,1-1.44-10.671c-.26-4.612-.529-9.381-2.652-13.6a11.873,11.873,0,0,0-5.886-5.462l-.026-.014c-6.672-4-14.534-4.058-22.139-4.114q-1.01-.007-2.014-.017c-2.532-.032-5.152-.187-7.687-.337-8.938-.528-18.181-1.074-26.222,3.455q-.467.277-.919.555c9.1-5.352,19.933-4.519,29.629-3.774,2.554.189,5.206.194,7.772.2,6.06.01,12.326.021,18.066,2.422l.014.006c.384.182.774.361,1.166.541,2.573,1.183,5.233,2.406,7.028,4.686l.009.012c3.173,4.415,3.457,9.75,3.733,14.909a56.994,56.994,0,0,0,.7,7.3l0,.019c1.224,9.585,6.016,12.867,10.65,16.041,3.779,2.588,7.349,5.033,8.987,10.562a41.148,41.148,0,0,1,1.73,8.22,40.522,40.522,0,0,0,1.709,8.121l.005.015c1.07,3.477,3.475,6.241,5.8,8.914.515.592,1.048,1.2,1.558,1.815l.016.021a21.033,21.033,0,0,1,4.1,15c-.569,5.241-2.918,10.452-5.14,14.858a111.484,111.484,0,0,0-5.879,15.407c-.273.852-.542,1.721-.8,2.562-1.565,5.059-3.183,10.29-6.57,14.543M83.6,677.7a6.812,6.812,0,0,1,2.7.522,7.919,7.919,0,0,1,4.05,4.564,10.227,10.227,0,0,0-1.624-2.858c-3.188-3.817-8.987-2.253-12.984.246,2.732-1.432,5.437-2.475,7.855-2.475M.687,584.914s0,.005,0,.011a.03.03,0,0,0,.005.022.032.032,0,0,0,.041,0c.486-.41,1-.823,1.531-1.227,9.4-6.871,17.1-8.506,29.432-6.252l.2.029c4.67.7,9.5,1.421,13.832-.458l.02-.008c5.133-1.851,7.817-7.241,9.777-11.178,2.572-4.8,3.46-10.257,3.948-14.475,1.034-10.6,2.1-16.95,12.008-23.956q.932-.773,1.9-1.438C65.653,531.1,61.443,536.7,60.536,543.039c-.374,2.1-.631,4.259-.878,6.349-.564,4.754-1.146,9.669-3.134,14.172-.228.469-.449.935-.673,1.4-2.122,4.456-4.527,9.506-9.38,11.68-4.651,2.319-10.066,1.483-14.845.745l-.869-.133c-12.064-2.18-20.492-.032-30.071,7.659h0" transform="translate(0 -451.56)" fill="#f2eee8"/>
          <path id="Path_5876" data-name="Path 5876" d="M1127.127,1471.8a.692.692,0,0,1-.609-.387l-.043-.08,0-.091a7.483,7.483,0,0,1,1.013-3.083,14.8,14.8,0,0,0,.618-1.352l.009-.021a88.561,88.561,0,0,1,8.736-15.425c6.375-9.225,16.442-14.2,26.177-19.015,3.393-1.678,6.9-3.413,10.164-5.291,4.831-2.687,12.944-8.558,13.041-17.716v-.026a37.642,37.642,0,0,0-.208-6.454c-.421-4.746-.856-9.654,2.524-13.553,3.238-4.46,8.459-6.071,12.274-6.636a67.5,67.5,0,0,0,11.429-3.35,73.032,73.032,0,0,0,9.007-4.978c3.816-2.35,7.762-4.78,12.17-6.185a34.461,34.461,0,0,1,25.613.534,52.681,52.681,0,0,1,22.049,18.55A56.1,56.1,0,0,0,1293.957,1400c2.617,1.7,5.38,3.29,8.052,4.831a102.227,102.227,0,0,1,14.019,9.145l.005,0c11.481,9.835,18.257,20.333,20.14,31.206a52.158,52.158,0,0,1,.7,15.415c-.2,2.82-.523,5.707-1,8.824a.676.676,0,0,1-.289.454.723.723,0,0,1-.558.117.715.715,0,0,1-.558-.825c.416-2.716.728-5.394.928-7.96.387-4.84.608-10.529-.688-16.032l0-.018c-1.923-10.652-8.716-20.934-20.19-30.562a112.039,112.039,0,0,0-13.624-8.763c-2.123-1.224-4.318-2.49-6.436-3.8-4.4-2.72-8.536-6.531-13.007-11.992-.627-.81-1.249-1.637-1.851-2.436-2.762-3.668-5.618-7.461-9.319-10.29-12.358-9.754-23.793-12.278-35.99-7.946l-.014,0c-4.408,1.355-8.384,3.8-12.228,6.168-3.8,2.339-7.732,4.759-12.1,6.147a41.226,41.226,0,0,1-7.184,1.949c-4.727.983-9.192,1.911-12.3,5.617l-.025.027c-3.819,3.661-3.39,8.739-2.975,13.65a44.2,44.2,0,0,1,.238,5.77c.186,10.187-8.588,16.5-12.37,18.744-4.683,2.606-8.863,4.738-12.551,6.619-16.5,8.416-24.79,12.647-34.83,36.782a.892.892,0,0,1-.54.887.728.728,0,0,1-.281.058m1.619-4.74c-.179.472-.414.946-.641,1.4a7.513,7.513,0,0,0-.934,2.63.239.239,0,0,0,.062-.062.15.15,0,0,0,.032-.114l-.036-.118.047-.114a114.82,114.82,0,0,1,5.8-12.159c-1.5,2.618-2.931,5.448-4.328,8.532m206.633-22.024c1.315,5.592,1.093,11.345.7,16.235-.2,2.582-.515,5.277-.933,8.01,0,0-.006.045.019.05a.044.044,0,0,0,.034-.014c.469-3.087.794-5.956.99-8.76a51.526,51.526,0,0,0-.688-15.222l0-.018c-1.852-10.713-8.55-21.078-19.909-30.809a101.754,101.754,0,0,0-13.924-9.078c-2.679-1.545-5.45-3.143-8.088-4.854a56.787,56.787,0,0,1-13.036-12.928l-.013-.018a49.02,49.02,0,0,0-6.391-7.758,77.006,77.006,0,0,1,6.006,7.328c.6.8,1.222,1.622,1.84,2.422,4.416,5.393,8.495,9.157,12.832,11.835,2.109,1.3,4.3,2.568,6.418,3.79a112.479,112.479,0,0,1,13.715,8.826c11.6,9.737,18.476,20.152,20.43,30.963m-168.366-13.906c-1.23.621-2.462,1.23-3.679,1.832-9.657,4.774-19.642,9.711-25.92,18.8q-.3.413-.593.835c6.826-9.529,14.32-13.353,25.647-19.131,1.44-.734,2.955-1.507,4.546-2.332m19.907-21.768c-.109,9.5-8.434,15.536-13.389,18.292l-.4.229q.915-.5,1.856-1.023c3.672-2.178,12.212-8.316,12.025-18.148v-.024a43.615,43.615,0,0,0-.236-5.689c-.394-4.663-.8-9.472,2.29-13.238-3.187,3.68-2.765,8.439-2.357,13.041a38.249,38.249,0,0,1,.209,6.561m13.744-25.972c-3.662.581-8.541,2.157-11.565,6.333a11.092,11.092,0,0,1,.85-.914c2.8-3.332,6.728-4.535,10.715-5.418m45.08-16.751a34.955,34.955,0,0,0-12.081,2.166l-.015.005c-4.331,1.379-8.243,3.788-12.026,6.118a73.579,73.579,0,0,1-9.1,5.027,66.1,66.1,0,0,1-9.666,2.971,39.349,39.349,0,0,0,6.84-1.869l.027-.01c4.3-1.363,8.2-3.762,11.965-6.082,3.879-2.388,7.89-4.856,12.379-6.238a32.388,32.388,0,0,1,19.37-1.073c5.659,1.439,11.306,4.424,17.263,9.126l.137.105a56.158,56.158,0,0,0-12.074-7.57,32.287,32.287,0,0,0-13.018-2.679" transform="translate(-971.992 -1181.596)" fill="#f2eee8"/>
          <path id="Path_5877" data-name="Path 5877" d="M3009.417,1546.315a44.106,44.106,0,0,0-8.73-.909,56.1,56.1,0,0,0-14.864,1.835,80.437,80.437,0,0,0-14.621,6.208c-5.539,3.165-10.532,7.173-15.574,11.08-7.03,5.562-16.167,8.027-25.025,8.308-7.071.112-13.954-1.562-20.935-2.351-5.313-.326-12.059.178-16.285,3.708-8.824,8.242-2.656,18.869,3.635,26.444,4.42,6.159,11.427,9.351,18.172,12.307,4.537,2.1,8.939,4.49,13.246,7.028,2.935,1.871,6.167,3.471,8.525,6.074,2.4-.129-4.178-4.278-4.97-4.766-4.175-2.648-8.5-5.058-12.91-7.295-5.533-2.873-11.629-4.8-16.553-8.733-4.591-3.953-10.461-11.388-12.169-17.224-1.931-5.957.831-13.086,6.9-15.271,6.149-2.241,12.8-1.849,19.109-.561a79.964,79.964,0,0,0,15.09,1.377,48.936,48.936,0,0,0,18.773-4.671c4.455-2.269,8.177-5.692,12.157-8.664,8.66-6.521,18.662-11.826,29.471-13.487a55.305,55.305,0,0,1,14.621-.194c.533-.053,3.225.868,3.226.2a.374.374,0,0,0-.288-.438" transform="translate(-2492.797 -1336.439)" fill="#f2eee8"/>
          <path id="Path_5880" data-name="Path 5880" d="M1219.355,105.969a11.279,11.279,0,0,1-1.747-.134c-10.211-1.222-16.824-10.341-21.443-18.149-1.071-1.931-2.044-3.942-2.984-5.888a59.72,59.72,0,0,0-6.342-11.034l-.009-.012c-3.108-4.335-8.173-7.578-15.053-9.64-1.62-.482-3.32-.864-4.964-1.233-3.538-.794-7.2-1.616-10.415-3.505-4.178-2.411-6.73-6.44-9.2-10.337-1.047-1.653-2.13-3.362-3.315-4.906-9.677-12.112-26.6-15.423-40.2-18.082a.66.66,0,0,1-.517-.439.779.779,0,0,1,.147-.76.657.657,0,0,1,.646-.2,112.2,112.2,0,0,1,11.855,2.56,79.939,79.939,0,0,1,18.237,6.8c7.941,4.189,11.712,10.052,16.078,16.841q.536.834,1.091,1.692a19.078,19.078,0,0,0,10.908,7.682c9.526,2.148,15.229,3.828,19.938,7.045,4.953,3.384,8.573,8.338,12.5,17.1,3.7,7.78,9.737,18.545,19.338,22.1,2.193.816,6.463,1.9,10.432-.036,2.3-1.106,4.306-2.174,5.495-4.058,2.6-4.286,1.224-9.133-.109-13.82q-.171-.6-.336-1.192l0-.019a26.572,26.572,0,0,1,4.12-20.531,32.664,32.664,0,0,1,20.949-13.763c6.182-1.018,12.115.939,17.851,2.831,1.879.62,3.823,1.261,5.725,1.777,13.13,3.807,20.863,3.021,33.107-3.365,3.438-1.683,7.269-5.021,8.094-8.693a6.523,6.523,0,0,0-1.446-5.706c-2.019-2.558-4.866-4.228-7.62-5.842a45.112,45.112,0,0,1-4.889-3.158c-.529-.348-2.975-2.772-2.66-3.738.067-.2.288-.524,1.018-.378l.171.034.073.159a7.957,7.957,0,0,0,2.169,2.709,48.474,48.474,0,0,0,4.89,3.171,34.022,34.022,0,0,1,6.914,4.925c2.473,2.567,3.416,5.289,2.809,8.1-1.136,5.253-7.362,9.431-12.352,11.414-6.212,2.809-11.211,4.139-16.542,4.139a43.6,43.6,0,0,1-10.749-1.519c-3.039-.731-5.873-1.644-8.614-2.526-9.189-2.958-17.125-5.512-27.281.664l-.015.008c-9.071,4.918-14.9,14.271-14.858,23.826v.022a23.926,23.926,0,0,0,1.233,7.663c.746,2.717,1.518,5.526,1.2,8.463a10.191,10.191,0,0,1-4.787,8.126,15.918,15.918,0,0,1-8.531,2.81m-31.973-35.622A60.259,60.259,0,0,1,1193.8,81.5c.936,1.937,1.9,3.94,2.962,5.845,4.534,7.664,11.017,16.623,20.942,17.811,3.071.481,6.463-.412,9.82-2.578l.017-.01a9.511,9.511,0,0,0,4.451-7.6c.306-2.815-.448-5.56-1.176-8.215a24.475,24.475,0,0,1-1.257-7.874c-.041-9.8,5.927-19.38,15.21-24.417a29.711,29.711,0,0,1,4.323-2.188,32.066,32.066,0,0,0-15.02,11.926,25.9,25.9,0,0,0-4.023,19.994q.162.584.333,1.178c1.309,4.6,2.793,9.821.032,14.368-1.393,2.208-3.928,3.425-5.779,4.314-3.11,1.515-7.006,1.537-10.969.062-4.236-1.569-8.231-4.707-11.875-9.324a68.849,68.849,0,0,1-7.846-13.133c-7.606-16.987-14.041-19.721-31.969-23.764a19.775,19.775,0,0,1-11.318-7.966c-.378-.582-.741-1.147-1.1-1.7-1.628-2.53-3.131-4.867-4.757-7.015,1.06,1.435,2.034,2.971,2.978,4.462,2.424,3.827,4.931,7.784,8.965,10.111,3.127,1.836,6.733,2.646,10.22,3.429,1.655.372,3.366.756,5.01,1.245,7.027,2.106,12.211,5.434,15.41,9.892m70.41-19.787c4.953,0,9.692,1.525,14.815,3.174,2.729.878,5.551,1.786,8.568,2.513,10.146,2.561,16.921,1.909,26.852-2.583l.015-.006a28.112,28.112,0,0,0,6.733-3.823,20.134,20.134,0,0,1-3.335,2.075c-7.488,3.905-13.317,5.746-19.684,5.747a49.817,49.817,0,0,1-13.917-2.334c-1.914-.519-3.866-1.163-5.754-1.786-5.658-1.866-11.509-3.8-17.519-2.807q-.95.172-1.891.407a22.621,22.621,0,0,1,5.117-.577m45.474-26.129a10.022,10.022,0,0,0,2.357,2.883l.035.016.022.02a44.474,44.474,0,0,0,4.825,3.115c2.808,1.647,5.712,3.349,7.81,6.007a7.178,7.178,0,0,1,1.578,6.282,11.684,11.684,0,0,1-3.415,5.609,11.565,11.565,0,0,0,3.505-5.631c.556-2.57-.328-5.084-2.628-7.471a33.51,33.51,0,0,0-6.774-4.816,48.912,48.912,0,0,1-4.964-3.222l-.011-.009a8.772,8.772,0,0,1-2.276-2.782c-.026,0-.048,0-.065,0M1126.4,28.249c6.778,2.65,13.078,6.413,17.783,12.168a31.611,31.611,0,0,0-10.458-8.8,59.715,59.715,0,0,0-7.325-3.367m-22.591-5.874c4.771.933,9.948,1.945,15.085,3.388-1.135-.325-2.226-.62-3.255-.889a111.48,111.48,0,0,0-11.8-2.547l-.027-.005a.108.108,0,0,0-.006.053Z" transform="translate(-951.848 -21.634)" fill="#f2eee8"/>
          <path id="Path_5882" data-name="Path 5882" d="M2914.431,174.78c-.35,0-.7-.005-1.052-.016a15.622,15.622,0,0,1-9.992-4.224l-.025-.025-.02-.03c-3.3-5.007,2.744-10.35,7.158-14.251,1.164-1.028,2.263-2,3.02-2.817l.01-.01.161-.16a118.78,118.78,0,0,0,11.822-12.984,61.19,61.19,0,0,0,5.717-11.147c6.669-15.633,2.431-42.6-12.019-51.8l-.046-.035a1.908,1.908,0,0,0-.528-.225c-.413-.136-.841-.276-.955-.664a.8.8,0,0,1,.213-.74l.084-.1.133-.02a2.716,2.716,0,0,1,1.65.461c.152.081.3.157.434.218l.056.031c5.63,3.886,9.8,9.724,12.407,17.352a65.186,65.186,0,0,1,3.069,21.453c-.257,7.891-3.084,16.327-8.4,25.08l-.01.015c-3.3,4.838-7.534,9.049-11.624,13.122q-.7.7-1.394,1.391c-.759.817-1.837,1.767-2.979,2.773-3.888,3.425-8.722,7.685-7.162,11.7,4.252,5.123,12.047,4.469,16.323,3.621,11.573-2.008,20.524-9.9,29.18-17.523,1.2-1.061,2.45-2.159,3.671-3.212a205.653,205.653,0,0,1,20.523-16.943c8.194-5.685,16.018-9.425,23.919-11.433.142-.037.372-.1.667-.181,8.991-2.455,9.985-2.2,10.263-1.7.218.4-.2.777-.336.9l-.075.068-.1.016a88.947,88.947,0,0,0-21.6,6.429,110.2,110.2,0,0,0-18.214,11.693c-4.113,3.312-8.125,6.9-12,10.37-4.152,3.714-8.446,7.555-12.89,11.08-6.525,5.736-16.791,12.461-29.048,12.462m-10.536-4.7a14.922,14.922,0,0,0,9.512,4c12.263.388,22.617-6.21,29.253-11.956-6.542,5.3-13.593,9.832-22.06,11.3-4.429.879-12.541,1.543-17.011-3.9l-.026-.031a5.309,5.309,0,0,0,.332.586m10.124-16.19c-.78.841-1.89,1.822-3.064,2.859-4.019,3.551-9.448,8.351-7.417,12.69-1.8-4.485,3.259-8.943,7.324-12.525,1.128-.994,2.195-1.934,2.938-2.735.472-.473.938-.937,1.4-1.4,4.066-4.048,8.27-8.233,11.537-13.015,5.255-8.648,8.047-16.969,8.3-24.731.017-1.487-.006-3.148-.1-4.931a45.835,45.835,0,0,1-3.079,19.278,61.847,61.847,0,0,1-5.786,11.272l-.009.013a119.287,119.287,0,0,1-11.893,13.068Zm93.755-31.794c-.814,0-3.076.365-9.156,2.025-.3.081-.531.145-.677.183-16.8,4.27-29.939,15.309-44.16,28.226-1.226,1.057-2.469,2.153-3.672,3.213-2.021,1.781-4.057,3.575-6.141,5.308,4.1-3.309,8.085-6.87,11.944-10.321,3.885-3.476,7.9-7.07,12.037-10.4a110.886,110.886,0,0,1,18.339-11.771l.013-.006a89.6,89.6,0,0,1,21.606-6.454c-.039,0-.084,0-.134,0M2919.6,76.754a28.21,28.21,0,0,1,9.188,10.093,47.411,47.411,0,0,1,4.933,13.4c-1.748-8.6-5.624-17.743-13.834-23.423-.15-.068-.3-.148-.448-.226a2.643,2.643,0,0,0-1.087-.4,2.129,2.129,0,0,0,.5.207,2.284,2.284,0,0,1,.749.347" transform="translate(-2504.366 -68.125)" fill="#f2eee8"/>
        </g>
      </g>
    </g>
  </g>
</svg>
