<svg xmlns="http://www.w3.org/2000/svg" width="116.625" height="80" viewBox="0 0 116.625 80">
  <g id="Group_17897" data-name="Group 17897" transform="translate(10601 1388)">
    <g id="Duncan_Hills" data-name="Duncan Hills" transform="translate(-10601 -1387.9)">
      <g id="Group_13298" data-name="Group 13298" transform="translate(0 56.873)">
        <path id="Path_6934" data-name="Path 6934" d="M6.452,66.432a5.57,5.57,0,0,1-3.474.993H0V57.3H2.878a5.008,5.008,0,0,1,5.459,5.161,4.674,4.674,0,0,1-1.886,3.97Zm-.5-7.444a4.555,4.555,0,0,0-3.077-.893H.893V66.63H2.878a4.555,4.555,0,0,0,3.077-.893,4.24,4.24,0,0,0,1.588-3.375,4.1,4.1,0,0,0-1.588-3.375Z" transform="translate(0 -57.3)" fill="#8f6d4f"/>
      </g>
      <g id="Group_13299" data-name="Group 13299" transform="translate(11.514 56.873)">
        <path id="Path_6935" data-name="Path 6935" d="M12.2,65.737a4.018,4.018,0,0,1-.6-2.382V57.3h.893v6.154a3.279,3.279,0,1,0,6.551,0V57.3h.893v6.055a4.018,4.018,0,0,1-.6,2.382,4.139,4.139,0,0,1-3.474,1.886A4.479,4.479,0,0,1,12.2,65.737Z" transform="translate(-11.6 -57.3)" fill="#8f6d4f"/>
      </g>
      <g id="Group_13300" data-name="Group 13300" transform="translate(23.623 56.873)">
        <path id="Path_6936" data-name="Path 6936" d="M23.8,57.3h.6l6.749,8.437V57.3h.893V67.424h-.6l-6.749-8.437v8.437H23.8Z" transform="translate(-23.8 -57.3)" fill="#8f6d4f"/>
      </g>
      <g id="Group_13301" data-name="Group 13301" transform="translate(35.136 56.674)">
        <path id="Path_6937" data-name="Path 6937" d="M44.532,65.735a5.207,5.207,0,0,1-3.871,1.886,5.262,5.262,0,0,1-.2-10.521,4.862,4.862,0,0,1,3.672,1.588l-.6.6a4.025,4.025,0,0,0-3.077-1.29,4.259,4.259,0,0,0-4.268,4.367,4.2,4.2,0,0,0,4.268,4.367,4.562,4.562,0,0,0,3.375-1.588Z" transform="translate(-35.4 -57.1)" fill="#8f6d4f"/>
      </g>
      <g id="Group_13302" data-name="Group 13302" transform="translate(46.352 56.873)">
        <path id="Path_6938" data-name="Path 6938" d="M51.663,57.3,56.03,67.424h-.893l-1.29-3.077H48.884l-1.29,3.077H46.7L51.067,57.3Zm-2.382,6.253h4.268L51.464,58.69Z" transform="translate(-46.7 -57.3)" fill="#8f6d4f"/>
      </g>
      <g id="Group_13303" data-name="Group 13303" transform="translate(58.561 56.873)">
        <path id="Path_6939" data-name="Path 6939" d="M59,57.3h.6l6.849,8.437V57.3h.893V67.424h-.6l-6.849-8.437v8.437H59Z" transform="translate(-59 -57.3)" fill="#8f6d4f"/>
      </g>
      <g id="Group_13304" data-name="Group 13304" transform="translate(76.328 56.873)">
        <path id="Path_6940" data-name="Path 6940" d="M84.245,62.263H77.694v5.161H76.9V57.3h.794v4.069h6.551V57.3h.893V67.424h-.893Z" transform="translate(-76.9 -57.3)" fill="#8f6d4f"/>
      </g>
      <g id="Group_13305" data-name="Group 13305" transform="translate(88.635 56.873)">
        <rect id="Rectangle_4473" data-name="Rectangle 4473" width="0.893" height="10.124" fill="#8f6d4f"/>
      </g>
      <g id="Group_13306" data-name="Group 13306" transform="translate(93.598 56.873)">
        <path id="Path_6941" data-name="Path 6941" d="M95.193,66.63h4.764v.794H94.3V57.3h.893Z" transform="translate(-94.3 -57.3)" fill="#8f6d4f"/>
      </g>
      <g id="Group_13307" data-name="Group 13307" transform="translate(102.332 56.873)">
        <path id="Path_6942" data-name="Path 6942" d="M103.894,66.63h4.864v.794H103.1V57.3h.794Z" transform="translate(-103.1 -57.3)" fill="#8f6d4f"/>
      </g>
      <g id="Group_13308" data-name="Group 13308" transform="translate(110.273 56.773)">
        <path id="Path_6943" data-name="Path 6943" d="M111.795,65.339a3.268,3.268,0,0,0,2.779,1.489,1.99,1.99,0,0,0,2.084-1.886c0-1.886-2.184-2.084-3.672-2.978a2.41,2.41,0,0,1-1.39-2.084,2.718,2.718,0,0,1,2.878-2.68,3.7,3.7,0,0,1,2.581.993l-.6.6a2.951,2.951,0,0,0-1.985-.794,1.919,1.919,0,0,0-2.084,1.787c0,1.588,2.084,1.787,3.474,2.68a2.965,2.965,0,0,1,1.588,2.481,2.824,2.824,0,0,1-2.978,2.779,4.184,4.184,0,0,1-3.375-1.687Z" transform="translate(-111.1 -57.2)" fill="#8f6d4f"/>
      </g>
      <g id="Group_13309" data-name="Group 13309" transform="translate(38.015 -0.1)">
        <path id="Path_6944" data-name="Path 6944" d="M67.481,12.108a9.081,9.081,0,0,0,.1-1.687,10.819,10.819,0,0,0-4.169-8.536A11.309,11.309,0,0,0,56.265-.1H50.31V10.818a10.939,10.939,0,0,0-10.025,4.069A11.309,11.309,0,0,0,38.3,22.034v5.955H49.218a14.918,14.918,0,0,0-.2,1.985,10.819,10.819,0,0,0,4.169,8.536A11.309,11.309,0,0,0,60.335,40.5H66.29V29.28a14.916,14.916,0,0,0,1.985.2,10.819,10.819,0,0,0,8.536-4.169A11.309,11.309,0,0,0,78.8,18.163V12.208H67.481Zm-8.536,7.643a9.082,9.082,0,0,1-.1-1.687V13.2h7.345a9.71,9.71,0,0,1-3.375,4.963A7.631,7.631,0,0,1,58.945,19.751ZM51.9,1.488h4.367c2.779,0,4.764.5,6.352,1.787a8.934,8.934,0,0,1,3.573,7.246,12.219,12.219,0,0,1-.2,1.985v.1H58.449v5.36a8.97,8.97,0,0,0-1.29-2.581A9.985,9.985,0,0,0,52,11.811V1.488ZM58.35,22.332V27.1H50.508a9.075,9.075,0,0,1,3.275-4.566,8.621,8.621,0,0,1,4.467-1.687A6.573,6.573,0,0,1,58.35,22.332ZM51.4,12.208a8.956,8.956,0,0,1,5.161,3.474A9.872,9.872,0,0,1,58.25,19.95a12.655,12.655,0,0,1-1.985.1H51.4ZM39.888,26.6V22.233c0-2.779.5-4.764,1.787-6.352a8.986,8.986,0,0,1,7.345-3.573,13.563,13.563,0,0,1,1.886.2H51v7.94h6.154a8.125,8.125,0,0,0-3.375,1.489A10.414,10.414,0,0,0,50.409,26.5H39.888ZM64.8,39.205H60.434c-2.779,0-4.764-.5-6.352-1.787a8.934,8.934,0,0,1-3.573-7.246,9.789,9.789,0,0,1,.3-2.382v-.1h7.94v-5.36a11.173,11.173,0,0,0,1.29,2.68A10.414,10.414,0,0,0,64.6,28.386V39.205Zm.5-11.315a8.889,8.889,0,0,1-6.154-7.146c.4,0,.893-.1,1.39-.1H65.3V27.89Zm12.109-9.826c0,2.779-.5,4.764-1.787,6.352a8.934,8.934,0,0,1-7.246,3.573,9.789,9.789,0,0,1-2.382-.3h-.1V20.247H59.739a8.125,8.125,0,0,0,3.375-1.489A9.316,9.316,0,0,0,66.588,13.8h10.72v4.268Z" transform="translate(-38.3 0.1)" fill="#8f6d4f"/>
      </g>
      <g id="Group_13310" data-name="Group 13310" transform="translate(35.136 74.54)">
        <path id="Path_6945" data-name="Path 6945" d="M38.08,77.383a1.539,1.539,0,0,1,.893,1.489,1.644,1.644,0,0,1-.5,1.191,1.582,1.582,0,0,1-1.191.4H35.4V75.1h1.787a1.045,1.045,0,0,1,.993.4,1.078,1.078,0,0,1,.4.893,1.222,1.222,0,0,1-.5.993Zm-.993-.1a.977.977,0,0,0,.794-.3.993.993,0,0,0,0-1.191.977.977,0,0,0-.794-.3H35.8v1.687h1.29Zm-1.191.4v2.283h1.39a1.317,1.317,0,0,0,.993-.3,1.225,1.225,0,0,0,.4-.794.9.9,0,0,0-.4-.794,1.317,1.317,0,0,0-.993-.3H35.9Z" transform="translate(-35.4 -75.1)" fill="#8f6d4f"/>
      </g>
      <g id="Group_13311" data-name="Group 13311" transform="translate(39.603 74.54)">
        <path id="Path_6946" data-name="Path 6946" d="M42.183,77.879v2.481h-.5V77.879L39.9,75.1h.5l1.489,2.382L43.473,75.1h.5Z" transform="translate(-39.9 -75.1)" fill="#8f6d4f"/>
      </g>
      <g id="Group_13312" data-name="Group 13312" transform="translate(47.246 74.441)">
        <path id="Path_6947" data-name="Path 6947" d="M48.1,79.268a1.671,1.671,0,0,0,1.39.794,1.082,1.082,0,0,0,1.092-.993c0-.993-1.092-1.092-1.886-1.588A1.221,1.221,0,0,1,48,76.39,1.442,1.442,0,0,1,49.486,75a2.272,2.272,0,0,1,1.39.5l-.3.3a1.356,1.356,0,0,0-1.092-.4,1.01,1.01,0,0,0-1.092.893c0,.794,1.092.893,1.787,1.39a1.64,1.64,0,0,1,.794,1.29,1.472,1.472,0,0,1-1.588,1.39,2.255,2.255,0,0,1-1.787-.893Z" transform="translate(-47.6 -75)" fill="#8f6d4f"/>
      </g>
      <g id="Group_13313" data-name="Group 13313" transform="translate(51.811 74.54)">
        <path id="Path_6948" data-name="Path 6948" d="M54.88,75.1l2.283,5.36h-.5l-.695-1.588H53.391L52.7,80.46h-.5l2.283-5.36Zm-1.191,3.275h2.184l-1.092-2.581Z" transform="translate(-52.2 -75.1)" fill="#8f6d4f"/>
      </g>
      <g id="Group_13314" data-name="Group 13314" transform="translate(58.263 74.54)">
        <path id="Path_6949" data-name="Path 6949" d="M58.7,75.1h.4l3.474,4.367V75.1h.5v5.261h-.3L59.2,75.993v4.367h-.5Z" transform="translate(-58.7 -75.1)" fill="#8f6d4f"/>
      </g>
      <g id="Group_13315" data-name="Group 13315" transform="translate(64.814 74.54)">
        <path id="Path_6950" data-name="Path 6950" d="M67.881,79.368h-.3L65.7,76.192v4.169h-.4V75.1h.3l2.184,3.672L69.866,75.1h.4v5.261h-.5V76.192Z" transform="translate(-65.3 -75.1)" fill="#8f6d4f"/>
      </g>
      <g id="Group_13316" data-name="Group 13316" transform="translate(71.166 74.54)">
        <path id="Path_6951" data-name="Path 6951" d="M74.38,75.1l2.283,5.36h-.5l-.695-1.588H72.891L72.2,80.46h-.5l2.283-5.36Zm-1.29,3.275h2.184l-1.092-2.581Z" transform="translate(-71.7 -75.1)" fill="#8f6d4f"/>
      </g>
      <g id="Group_13317" data-name="Group 13317" transform="translate(77.519 74.441)">
        <path id="Path_6952" data-name="Path 6952" d="M81.574,80.36,79.49,77.68H78.6v2.68h-.5V75h1.886a1.317,1.317,0,0,1,.993.3,1.151,1.151,0,0,1,.4.993,1.763,1.763,0,0,1-.4.993,1.317,1.317,0,0,1-.993.3l2.084,2.68h-.5Zm-1.588-3.077a.949.949,0,0,0,.695-.2.858.858,0,0,0,.3-.6.6.6,0,0,0-.3-.6,1.434,1.434,0,0,0-.695-.2H78.7v1.687h1.29Z" transform="translate(-78.1 -75)" fill="#8f6d4f"/>
      </g>
    </g>
  </g>
</svg>
