<svg xmlns="http://www.w3.org/2000/svg" width="143.497" height="84.595" viewBox="0 0 143.497 84.595">
  <g id="Group_18021" data-name="Group 18021" transform="translate(5332.248 1407)" opacity="0.1">
    <g id="Group_18014" data-name="Group 18014" transform="translate(-5332.248 -1407)" opacity="0.665">
      <path id="Path_6944" data-name="Path 6944" d="M67.481,12.108a9.081,9.081,0,0,0,.1-1.687,10.819,10.819,0,0,0-4.169-8.536A11.309,11.309,0,0,0,56.265-.1H50.31V10.818a10.939,10.939,0,0,0-10.025,4.069A11.309,11.309,0,0,0,38.3,22.034v5.955H49.218a14.918,14.918,0,0,0-.2,1.985,10.819,10.819,0,0,0,4.169,8.536A11.309,11.309,0,0,0,60.335,40.5H66.29V29.28a14.916,14.916,0,0,0,1.985.2,10.819,10.819,0,0,0,8.536-4.169A11.309,11.309,0,0,0,78.8,18.163V12.208H67.481Zm-8.536,7.643a9.082,9.082,0,0,1-.1-1.687V13.2h7.345a9.71,9.71,0,0,1-3.375,4.963A7.631,7.631,0,0,1,58.945,19.751ZM51.9,1.488h4.367c2.779,0,4.764.5,6.352,1.787a8.934,8.934,0,0,1,3.573,7.246,12.219,12.219,0,0,1-.2,1.985v.1H58.449v5.36a8.97,8.97,0,0,0-1.29-2.581A9.985,9.985,0,0,0,52,11.811V1.488ZM58.35,22.332V27.1H50.508a9.075,9.075,0,0,1,3.275-4.566,8.621,8.621,0,0,1,4.467-1.687A6.573,6.573,0,0,1,58.35,22.332ZM51.4,12.208a8.956,8.956,0,0,1,5.161,3.474A9.872,9.872,0,0,1,58.25,19.95a12.655,12.655,0,0,1-1.985.1H51.4ZM39.888,26.6V22.233c0-2.779.5-4.764,1.787-6.352a8.986,8.986,0,0,1,7.345-3.573,13.563,13.563,0,0,1,1.886.2H51v7.94h6.154a8.125,8.125,0,0,0-3.375,1.489A10.414,10.414,0,0,0,50.409,26.5H39.888ZM64.8,39.205H60.434c-2.779,0-4.764-.5-6.352-1.787a8.934,8.934,0,0,1-3.573-7.246,9.789,9.789,0,0,1,.3-2.382v-.1h7.94v-5.36a11.173,11.173,0,0,0,1.29,2.68A10.414,10.414,0,0,0,64.6,28.386V39.205Zm.5-11.315a8.889,8.889,0,0,1-6.154-7.146c.4,0,.893-.1,1.39-.1H65.3V27.89Zm12.109-9.826c0,2.779-.5,4.764-1.787,6.352a8.934,8.934,0,0,1-7.246,3.573,9.789,9.789,0,0,1-2.382-.3h-.1V20.247H59.739a8.125,8.125,0,0,0,3.375-1.489A9.316,9.316,0,0,0,66.588,13.8h10.72v4.268Z" transform="translate(-38.3 0.1)" fill="#fff"/>
    </g>
    <g id="Group_18015" data-name="Group 18015" transform="translate(-5280.248 -1407)" opacity="0.665">
      <path id="Path_6944-2" data-name="Path 6944" d="M67.481,12.108a9.081,9.081,0,0,0,.1-1.687,10.819,10.819,0,0,0-4.169-8.536A11.309,11.309,0,0,0,56.265-.1H50.31V10.818a10.939,10.939,0,0,0-10.025,4.069A11.309,11.309,0,0,0,38.3,22.034v5.955H49.218a14.918,14.918,0,0,0-.2,1.985,10.819,10.819,0,0,0,4.169,8.536A11.309,11.309,0,0,0,60.335,40.5H66.29V29.28a14.916,14.916,0,0,0,1.985.2,10.819,10.819,0,0,0,8.536-4.169A11.309,11.309,0,0,0,78.8,18.163V12.208H67.481Zm-8.536,7.643a9.082,9.082,0,0,1-.1-1.687V13.2h7.345a9.71,9.71,0,0,1-3.375,4.963A7.631,7.631,0,0,1,58.945,19.751ZM51.9,1.488h4.367c2.779,0,4.764.5,6.352,1.787a8.934,8.934,0,0,1,3.573,7.246,12.219,12.219,0,0,1-.2,1.985v.1H58.449v5.36a8.97,8.97,0,0,0-1.29-2.581A9.985,9.985,0,0,0,52,11.811V1.488ZM58.35,22.332V27.1H50.508a9.075,9.075,0,0,1,3.275-4.566,8.621,8.621,0,0,1,4.467-1.687A6.573,6.573,0,0,1,58.35,22.332ZM51.4,12.208a8.956,8.956,0,0,1,5.161,3.474A9.872,9.872,0,0,1,58.25,19.95a12.655,12.655,0,0,1-1.985.1H51.4ZM39.888,26.6V22.233c0-2.779.5-4.764,1.787-6.352a8.986,8.986,0,0,1,7.345-3.573,13.563,13.563,0,0,1,1.886.2H51v7.94h6.154a8.125,8.125,0,0,0-3.375,1.489A10.414,10.414,0,0,0,50.409,26.5H39.888ZM64.8,39.205H60.434c-2.779,0-4.764-.5-6.352-1.787a8.934,8.934,0,0,1-3.573-7.246,9.789,9.789,0,0,1,.3-2.382v-.1h7.94v-5.36a11.173,11.173,0,0,0,1.29,2.68A10.414,10.414,0,0,0,64.6,28.386V39.205Zm.5-11.315a8.889,8.889,0,0,1-6.154-7.146c.4,0,.893-.1,1.39-.1H65.3V27.89Zm12.109-9.826c0,2.779-.5,4.764-1.787,6.352a8.934,8.934,0,0,1-7.246,3.573,9.789,9.789,0,0,1-2.382-.3h-.1V20.247H59.739a8.125,8.125,0,0,0,3.375-1.489A9.316,9.316,0,0,0,66.588,13.8h10.72v4.268Z" transform="translate(-38.3 0.1)" fill="#fff"/>
    </g>
    <g id="Group_18016" data-name="Group 18016" transform="translate(-5280.248 -1407)" opacity="0.665">
      <path id="Path_6944-3" data-name="Path 6944" d="M67.481,12.108a9.081,9.081,0,0,0,.1-1.687,10.819,10.819,0,0,0-4.169-8.536A11.309,11.309,0,0,0,56.265-.1H50.31V10.818a10.939,10.939,0,0,0-10.025,4.069A11.309,11.309,0,0,0,38.3,22.034v5.955H49.218a14.918,14.918,0,0,0-.2,1.985,10.819,10.819,0,0,0,4.169,8.536A11.309,11.309,0,0,0,60.335,40.5H66.29V29.28a14.916,14.916,0,0,0,1.985.2,10.819,10.819,0,0,0,8.536-4.169A11.309,11.309,0,0,0,78.8,18.163V12.208H67.481Zm-8.536,7.643a9.082,9.082,0,0,1-.1-1.687V13.2h7.345a9.71,9.71,0,0,1-3.375,4.963A7.631,7.631,0,0,1,58.945,19.751ZM51.9,1.488h4.367c2.779,0,4.764.5,6.352,1.787a8.934,8.934,0,0,1,3.573,7.246,12.219,12.219,0,0,1-.2,1.985v.1H58.449v5.36a8.97,8.97,0,0,0-1.29-2.581A9.985,9.985,0,0,0,52,11.811V1.488ZM58.35,22.332V27.1H50.508a9.075,9.075,0,0,1,3.275-4.566,8.621,8.621,0,0,1,4.467-1.687A6.573,6.573,0,0,1,58.35,22.332ZM51.4,12.208a8.956,8.956,0,0,1,5.161,3.474A9.872,9.872,0,0,1,58.25,19.95a12.655,12.655,0,0,1-1.985.1H51.4ZM39.888,26.6V22.233c0-2.779.5-4.764,1.787-6.352a8.986,8.986,0,0,1,7.345-3.573,13.563,13.563,0,0,1,1.886.2H51v7.94h6.154a8.125,8.125,0,0,0-3.375,1.489A10.414,10.414,0,0,0,50.409,26.5H39.888ZM64.8,39.205H60.434c-2.779,0-4.764-.5-6.352-1.787a8.934,8.934,0,0,1-3.573-7.246,9.789,9.789,0,0,1,.3-2.382v-.1h7.94v-5.36a11.173,11.173,0,0,0,1.29,2.68A10.414,10.414,0,0,0,64.6,28.386V39.205Zm.5-11.315a8.889,8.889,0,0,1-6.154-7.146c.4,0,.893-.1,1.39-.1H65.3V27.89Zm12.109-9.826c0,2.779-.5,4.764-1.787,6.352a8.934,8.934,0,0,1-7.246,3.573,9.789,9.789,0,0,1-2.382-.3h-.1V20.247H59.739a8.125,8.125,0,0,0,3.375-1.489A9.316,9.316,0,0,0,66.588,13.8h10.72v4.268Z" transform="translate(12.7 0.1)" fill="#fff"/>
    </g>
    <g id="Group_18017" data-name="Group 18017" transform="translate(-5304.248 -1363)" opacity="0.665">
      <path id="Path_6944-4" data-name="Path 6944" d="M67.481,12.108a9.081,9.081,0,0,0,.1-1.687,10.819,10.819,0,0,0-4.169-8.536A11.309,11.309,0,0,0,56.265-.1H50.31V10.818a10.939,10.939,0,0,0-10.025,4.069A11.309,11.309,0,0,0,38.3,22.034v5.955H49.218a14.918,14.918,0,0,0-.2,1.985,10.819,10.819,0,0,0,4.169,8.536A11.309,11.309,0,0,0,60.335,40.5H66.29V29.28a14.916,14.916,0,0,0,1.985.2,10.819,10.819,0,0,0,8.536-4.169A11.309,11.309,0,0,0,78.8,18.163V12.208H67.481Zm-8.536,7.643a9.082,9.082,0,0,1-.1-1.687V13.2h7.345a9.71,9.71,0,0,1-3.375,4.963A7.631,7.631,0,0,1,58.945,19.751ZM51.9,1.488h4.367c2.779,0,4.764.5,6.352,1.787a8.934,8.934,0,0,1,3.573,7.246,12.219,12.219,0,0,1-.2,1.985v.1H58.449v5.36a8.97,8.97,0,0,0-1.29-2.581A9.985,9.985,0,0,0,52,11.811V1.488ZM58.35,22.332V27.1H50.508a9.075,9.075,0,0,1,3.275-4.566,8.621,8.621,0,0,1,4.467-1.687A6.573,6.573,0,0,1,58.35,22.332ZM51.4,12.208a8.956,8.956,0,0,1,5.161,3.474A9.872,9.872,0,0,1,58.25,19.95a12.655,12.655,0,0,1-1.985.1H51.4ZM39.888,26.6V22.233c0-2.779.5-4.764,1.787-6.352a8.986,8.986,0,0,1,7.345-3.573,13.563,13.563,0,0,1,1.886.2H51v7.94h6.154a8.125,8.125,0,0,0-3.375,1.489A10.414,10.414,0,0,0,50.409,26.5H39.888ZM64.8,39.205H60.434c-2.779,0-4.764-.5-6.352-1.787a8.934,8.934,0,0,1-3.573-7.246,9.789,9.789,0,0,1,.3-2.382v-.1h7.94v-5.36a11.173,11.173,0,0,0,1.29,2.68A10.414,10.414,0,0,0,64.6,28.386V39.205Zm.5-11.315a8.889,8.889,0,0,1-6.154-7.146c.4,0,.893-.1,1.39-.1H65.3V27.89Zm12.109-9.826c0,2.779-.5,4.764-1.787,6.352a8.934,8.934,0,0,1-7.246,3.573,9.789,9.789,0,0,1-2.382-.3h-.1V20.247H59.739a8.125,8.125,0,0,0,3.375-1.489A9.316,9.316,0,0,0,66.588,13.8h10.72v4.268Z" transform="translate(-38.3 0.1)" fill="#fff"/>
    </g>
    <g id="Group_18018" data-name="Group 18018" transform="translate(-5280.248 -1407)" opacity="0.665">
      <path id="Path_6944-5" data-name="Path 6944" d="M67.481,12.108a9.081,9.081,0,0,0,.1-1.687,10.819,10.819,0,0,0-4.169-8.536A11.309,11.309,0,0,0,56.265-.1H50.31V10.818a10.939,10.939,0,0,0-10.025,4.069A11.309,11.309,0,0,0,38.3,22.034v5.955H49.218a14.918,14.918,0,0,0-.2,1.985,10.819,10.819,0,0,0,4.169,8.536A11.309,11.309,0,0,0,60.335,40.5H66.29V29.28a14.916,14.916,0,0,0,1.985.2,10.819,10.819,0,0,0,8.536-4.169A11.309,11.309,0,0,0,78.8,18.163V12.208H67.481Zm-8.536,7.643a9.082,9.082,0,0,1-.1-1.687V13.2h7.345a9.71,9.71,0,0,1-3.375,4.963A7.631,7.631,0,0,1,58.945,19.751ZM51.9,1.488h4.367c2.779,0,4.764.5,6.352,1.787a8.934,8.934,0,0,1,3.573,7.246,12.219,12.219,0,0,1-.2,1.985v.1H58.449v5.36a8.97,8.97,0,0,0-1.29-2.581A9.985,9.985,0,0,0,52,11.811V1.488ZM58.35,22.332V27.1H50.508a9.075,9.075,0,0,1,3.275-4.566,8.621,8.621,0,0,1,4.467-1.687A6.573,6.573,0,0,1,58.35,22.332ZM51.4,12.208a8.956,8.956,0,0,1,5.161,3.474A9.872,9.872,0,0,1,58.25,19.95a12.655,12.655,0,0,1-1.985.1H51.4ZM39.888,26.6V22.233c0-2.779.5-4.764,1.787-6.352a8.986,8.986,0,0,1,7.345-3.573,13.563,13.563,0,0,1,1.886.2H51v7.94h6.154a8.125,8.125,0,0,0-3.375,1.489A10.414,10.414,0,0,0,50.409,26.5H39.888ZM64.8,39.205H60.434c-2.779,0-4.764-.5-6.352-1.787a8.934,8.934,0,0,1-3.573-7.246,9.789,9.789,0,0,1,.3-2.382v-.1h7.94v-5.36a11.173,11.173,0,0,0,1.29,2.68A10.414,10.414,0,0,0,64.6,28.386V39.205Zm.5-11.315a8.889,8.889,0,0,1-6.154-7.146c.4,0,.893-.1,1.39-.1H65.3V27.89Zm12.109-9.826c0,2.779-.5,4.764-1.787,6.352a8.934,8.934,0,0,1-7.246,3.573,9.789,9.789,0,0,1-2.382-.3h-.1V20.247H59.739a8.125,8.125,0,0,0,3.375-1.489A9.316,9.316,0,0,0,66.588,13.8h10.72v4.268Z" transform="translate(-38.3 0.1)" fill="#fff"/>
    </g>
    <g id="Group_18019" data-name="Group 18019" transform="translate(-5249.496 -1363)" opacity="0.665">
      <path id="Path_6944-6" data-name="Path 6944" d="M67.481,12.108a9.081,9.081,0,0,0,.1-1.687,10.819,10.819,0,0,0-4.169-8.536A11.309,11.309,0,0,0,56.265-.1H50.31V10.818a10.939,10.939,0,0,0-10.025,4.069A11.309,11.309,0,0,0,38.3,22.034v5.955H49.218a14.918,14.918,0,0,0-.2,1.985,10.819,10.819,0,0,0,4.169,8.536A11.309,11.309,0,0,0,60.335,40.5H66.29V29.28a14.916,14.916,0,0,0,1.985.2,10.819,10.819,0,0,0,8.536-4.169A11.309,11.309,0,0,0,78.8,18.163V12.208H67.481Zm-8.536,7.643a9.082,9.082,0,0,1-.1-1.687V13.2h7.345a9.71,9.71,0,0,1-3.375,4.963A7.631,7.631,0,0,1,58.945,19.751ZM51.9,1.488h4.367c2.779,0,4.764.5,6.352,1.787a8.934,8.934,0,0,1,3.573,7.246,12.219,12.219,0,0,1-.2,1.985v.1H58.449v5.36a8.97,8.97,0,0,0-1.29-2.581A9.985,9.985,0,0,0,52,11.811V1.488ZM58.35,22.332V27.1H50.508a9.075,9.075,0,0,1,3.275-4.566,8.621,8.621,0,0,1,4.467-1.687A6.573,6.573,0,0,1,58.35,22.332ZM51.4,12.208a8.956,8.956,0,0,1,5.161,3.474A9.872,9.872,0,0,1,58.25,19.95a12.655,12.655,0,0,1-1.985.1H51.4ZM39.888,26.6V22.233c0-2.779.5-4.764,1.787-6.352a8.986,8.986,0,0,1,7.345-3.573,13.563,13.563,0,0,1,1.886.2H51v7.94h6.154a8.125,8.125,0,0,0-3.375,1.489A10.414,10.414,0,0,0,50.409,26.5H39.888ZM64.8,39.205H60.434c-2.779,0-4.764-.5-6.352-1.787a8.934,8.934,0,0,1-3.573-7.246,9.789,9.789,0,0,1,.3-2.382v-.1h7.94v-5.36a11.173,11.173,0,0,0,1.29,2.68A10.414,10.414,0,0,0,64.6,28.386V39.205Zm.5-11.315a8.889,8.889,0,0,1-6.154-7.146c.4,0,.893-.1,1.39-.1H65.3V27.89Zm12.109-9.826c0,2.779-.5,4.764-1.787,6.352a8.934,8.934,0,0,1-7.246,3.573,9.789,9.789,0,0,1-2.382-.3h-.1V20.247H59.739a8.125,8.125,0,0,0,3.375-1.489A9.316,9.316,0,0,0,66.588,13.8h10.72v4.268Z" transform="translate(-38.3 0.1)" fill="#fff"/>
    </g>
    <g id="Group_18020" data-name="Group 18020" transform="translate(-5249.496 -1363)" opacity="0.665">
      <path id="Path_6944-7" data-name="Path 6944" d="M67.481,12.108a9.081,9.081,0,0,0,.1-1.687,10.819,10.819,0,0,0-4.169-8.536A11.309,11.309,0,0,0,56.265-.1H50.31V10.818a10.939,10.939,0,0,0-10.025,4.069A11.309,11.309,0,0,0,38.3,22.034v5.955H49.218a14.918,14.918,0,0,0-.2,1.985,10.819,10.819,0,0,0,4.169,8.536A11.309,11.309,0,0,0,60.335,40.5H66.29V29.28a14.916,14.916,0,0,0,1.985.2,10.819,10.819,0,0,0,8.536-4.169A11.309,11.309,0,0,0,78.8,18.163V12.208H67.481Zm-8.536,7.643a9.082,9.082,0,0,1-.1-1.687V13.2h7.345a9.71,9.71,0,0,1-3.375,4.963A7.631,7.631,0,0,1,58.945,19.751ZM51.9,1.488h4.367c2.779,0,4.764.5,6.352,1.787a8.934,8.934,0,0,1,3.573,7.246,12.219,12.219,0,0,1-.2,1.985v.1H58.449v5.36a8.97,8.97,0,0,0-1.29-2.581A9.985,9.985,0,0,0,52,11.811V1.488ZM58.35,22.332V27.1H50.508a9.075,9.075,0,0,1,3.275-4.566,8.621,8.621,0,0,1,4.467-1.687A6.573,6.573,0,0,1,58.35,22.332ZM51.4,12.208a8.956,8.956,0,0,1,5.161,3.474A9.872,9.872,0,0,1,58.25,19.95a12.655,12.655,0,0,1-1.985.1H51.4ZM39.888,26.6V22.233c0-2.779.5-4.764,1.787-6.352a8.986,8.986,0,0,1,7.345-3.573,13.563,13.563,0,0,1,1.886.2H51v7.94h6.154a8.125,8.125,0,0,0-3.375,1.489A10.414,10.414,0,0,0,50.409,26.5H39.888ZM64.8,39.205H60.434c-2.779,0-4.764-.5-6.352-1.787a8.934,8.934,0,0,1-3.573-7.246,9.789,9.789,0,0,1,.3-2.382v-.1h7.94v-5.36a11.173,11.173,0,0,0,1.29,2.68A10.414,10.414,0,0,0,64.6,28.386V39.205Zm.5-11.315a8.889,8.889,0,0,1-6.154-7.146c.4,0,.893-.1,1.39-.1H65.3V27.89Zm12.109-9.826c0,2.779-.5,4.764-1.787,6.352a8.934,8.934,0,0,1-7.246,3.573,9.789,9.789,0,0,1-2.382-.3h-.1V20.247H59.739a8.125,8.125,0,0,0,3.375-1.489A9.316,9.316,0,0,0,66.588,13.8h10.72v4.268Z" transform="translate(-38.3 0.1)" fill="#fff"/>
    </g>
  </g>
</svg>
