<svg xmlns="http://www.w3.org/2000/svg" width="40" height="40" viewBox="0 0 40 40">
  <g id="Group_17705" data-name="Group 17705" transform="translate(-15969 -4410)">
    <rect id="Rectangle_5093" data-name="Rectangle 5093" width="40" height="40" transform="translate(15969 4410)" fill="#f2eee8" opacity="0"/>
    <path id="_007-doorknob" data-name="007-doorknob" d="M17.028,21.36V24.7a.429.429,0,1,1-.857,0V21.36a.429.429,0,1,1,.857,0ZM12.919,9.548V7.814a.428.428,0,0,1,.429-.429h6.5a.428.428,0,0,1,.429.429V9.548a.428.428,0,0,1-.429.429h-6.5A.428.428,0,0,1,12.919,9.548Zm.857-.429h5.647V8.242H13.776Zm13.09,8.088H23.314v9.38A1.414,1.414,0,0,1,21.9,28H11.3a1.414,1.414,0,0,1-1.413-1.413V5.413A1.414,1.414,0,0,1,11.3,4H21.9a1.414,1.414,0,0,1,1.413,1.413v7.846h3.553a1.974,1.974,0,0,1,0,3.949Zm-4.41,0H20.023a3.954,3.954,0,1,1,0-3.949h2.433V5.413a.55.55,0,0,0-.556-.556H11.3a.55.55,0,0,0-.556.556V26.587a.55.55,0,0,0,.556.556H21.9a.55.55,0,0,0,.556-.556Zm4.41-3.092h-7.1a.429.429,0,0,1-.385-.24,3.1,3.1,0,1,0,0,2.715.429.429,0,0,1,.385-.24c1.753,0,5.327,0,7.1,0a1.117,1.117,0,1,0,0-2.235Z" transform="translate(15970.114 4414)" fill="#f2eee8"/>
  </g>
</svg>
