<svg xmlns="http://www.w3.org/2000/svg" width="40" height="40" viewBox="0 0 40 40">
  <g id="Group_17700" data-name="Group 17700" transform="translate(-15969 -4159)">
    <rect id="Rectangle_5089" data-name="Rectangle 5089" width="40" height="40" transform="translate(15969 4159)" fill="#f2eee8" opacity="0"/>
    <path id="_006-chair" data-name="006-chair" d="M29.865,16.952a2.41,2.41,0,0,0-2.014-1.532V10.782a4.593,4.593,0,0,0-4.6-4.581H10.429a4.586,4.586,0,0,0-4.581,4.581v4.745a2.621,2.621,0,0,0-1.425,3.881l2.983,4.728a1.392,1.392,0,0,0,.364.37v5.23a.465.465,0,0,0,.465.465h1.819a.465.465,0,0,0,.435-.3l1.5-4a28.274,28.274,0,0,0,5.4.508,28.8,28.8,0,0,0,4.249-.3c.55-.077,1.089-.175,1.613-.288L24.789,29.9a.465.465,0,0,0,.435.3h1.823a.465.465,0,0,0,.465-.465V24.077a1.235,1.235,0,0,0,.163-.256L29.819,19.1a2.737,2.737,0,0,0,.046-2.144ZM10.429,7.131H23.256a3.662,3.662,0,0,1,3.665,3.651v4.705a3.241,3.241,0,0,0-1.579,1.076,23.509,23.509,0,0,0-16.566-.1L8.5,16.184a2.469,2.469,0,0,0-1.725-.775V10.782a3.655,3.655,0,0,1,3.651-3.651ZM22.619,19.274c-2.9.1-9.506.282-10.737.315L9.494,17.183a22.647,22.647,0,0,1,15.131.094Zm-12.889,10H8.7V24.992a17.739,17.739,0,0,0,2.373.711Zm15.816,0-1.373-3.655a9.962,9.962,0,0,0,2.409-.833V29.27Zm3.426-10.559-2.144,4.726c-.382.675-2.867,1.327-3.851,1.491a26.712,26.712,0,0,1-12.442-.319c-1.883-.5-2.336-.916-2.345-.972L5.208,18.911a1.694,1.694,0,0,1,1.842-2.533,1.6,1.6,0,0,1,.794.464l2.868,2.868.646.673a.545.545,0,0,0,.348.143c.082,0,8.022-.224,11.108-.324a.465.465,0,0,0,.329-.136l3.28-3.266a1.613,1.613,0,0,1,2.548,1.913Z" transform="translate(15971.974 4160.799)" fill="#f2eee8"/>
  </g>
</svg>
