<svg xmlns="http://www.w3.org/2000/svg" width="40" height="40" viewBox="0 0 40 40">
  <g id="Group_17702" data-name="Group 17702" transform="translate(-15969 -4248)">
    <rect id="Rectangle_5091" data-name="Rectangle 5091" width="40" height="40" transform="translate(15969 4248)" fill="#f2eee8" opacity="0"/>
    <path id="_001-air_conditioner" data-name="001-air conditioner" d="M34.453,14.048H4.554A.554.554,0,0,0,4,14.6v7.922A2.283,2.283,0,0,0,6.281,24.8H32.726a2.283,2.283,0,0,0,2.281-2.281V14.6a.554.554,0,0,0-.554-.554ZM31.215,23.7H7.788V22.72c0-.9.492-1.655,1.074-1.655H30.141c.582,0,1.074.758,1.074,1.655ZM33.9,22.524A1.175,1.175,0,0,1,32.726,23.7h-.4V22.72c0-1.549-.958-2.763-2.182-2.763H8.862c-1.223,0-2.182,1.214-2.182,2.763V23.7h-.4a1.175,1.175,0,0,1-1.173-1.173V15.155H33.9ZM10.054,16.649c.521.035,11.615.018,18.95,0a.554.554,0,1,1,0,1.107c-2.107,0-15.581.059-19.059,0a.554.554,0,1,1,.108-1.1Zm3.128,10.258v4.714a2.307,2.307,0,1,1-4.613,0,.554.554,0,1,1,1.107,0,1.2,1.2,0,1,0,2.4,0V26.907a.554.554,0,1,1,1.107,0Zm17.256,4.714a2.307,2.307,0,1,1-4.613,0V26.907a.554.554,0,1,1,1.107,0v4.714a1.2,1.2,0,1,0,2.4,0,.554.554,0,1,1,1.107,0ZM16.9,26.907v4.307a.554.554,0,1,1-1.107,0V26.907a.554.554,0,1,1,1.107,0Zm3.16,0v4.307a.554.554,0,1,1-1.107,0V26.907a.554.554,0,1,1,1.107,0Zm3.438,0v4.307a.554.554,0,1,1-1.107,0V26.907a.554.554,0,1,1,1.107,0Z" transform="translate(15969 4243.952)" fill="#f2eee8"/>
  </g>
</svg>
