<svg xmlns="http://www.w3.org/2000/svg" width="40" height="40" viewBox="0 0 40 40">
  <g id="Group_17701" data-name="Group 17701" transform="translate(-15969 -4201)">
    <rect id="Rectangle_5090" data-name="Rectangle 5090" width="40" height="40" transform="translate(15969 4201)" fill="#f2eee8" opacity="0"/>
    <path id="_003-bathtub" data-name="003-bathtub" d="M31.5,18.664a1.544,1.544,0,0,0-1.542-1.542H24.925c-.75-2.741-3.528-3.77-5.45-2.2a1.989,1.989,0,0,0-2.553-1.515c-.715-3.76-4.915-3.6-6.677-1.819a4.5,4.5,0,0,0-1.113,2.817A2.915,2.915,0,0,0,7.1,14.5a5.045,5.045,0,0,0-2.368,2.863,1.54,1.54,0,0,0,.622,2.825v3.323c0,2.3,2.428,4.191,5.546,4.45L8.914,29.842a.491.491,0,1,0,.675.713L12.3,27.992H23.51L25.9,30.535a.491.491,0,1,0,.715-.672l-1.809-1.925c3.019-.322,5.345-2.182,5.345-4.428V20.186A1.542,1.542,0,0,0,31.5,18.664ZM7.488,15.4a2.186,2.186,0,0,1,1.918.174.491.491,0,0,0,.709-.492c-.147-1.687.677-3.944,3.685-3.689A2.545,2.545,0,0,1,16,14.067a.5.5,0,0,0,.684.433c1.275-.485,2,0,1.887,1.531a.491.491,0,0,0,.9.3,2.933,2.933,0,0,1,1.745-1.156,2.692,2.692,0,0,1,2.7,1.945h-18A3.582,3.582,0,0,1,7.488,15.4Zm16.39,11.61H11.63c-2.918,0-5.292-1.571-5.292-3.5v-3.3H29.169v3.3C29.169,25.44,26.8,27.01,23.878,27.01Zm6.466-7.948c-.155.189-.461.164-.682.162-.13,0-24.109,0-24.109,0a.561.561,0,0,1-.39-.959.539.539,0,0,1,.39-.162h24.4a.561.561,0,0,1,.389.959Z" transform="translate(15970.978 4200.623)" fill="#f2eee8"/>
  </g>
</svg>
