<svg xmlns="http://www.w3.org/2000/svg" width="40" height="40" viewBox="0 0 40 40">
  <g id="Group_17703" data-name="Group 17703" transform="translate(-15968 -4301)">
    <rect id="Rectangle_5092" data-name="Rectangle 5092" width="40" height="40" transform="translate(15968 4301)" fill="#f2eee8" opacity="0"/>
    <path id="_030-wifi_router" data-name="030-wifi router" d="M31.45,24.2H28.372l3.366-6.045a.522.522,0,1,0-.912-.508L27.177,24.2H10.064L6.414,17.648a.522.522,0,1,0-.912.508L8.869,24.2H5.791A1.792,1.792,0,0,0,4,25.992v5.089a1.792,1.792,0,0,0,1.791,1.79H31.45a1.792,1.792,0,0,0,1.791-1.79V25.992A1.792,1.792,0,0,0,31.45,24.2Zm.746,6.88a.747.747,0,0,1-.746.746H5.791a.747.747,0,0,1-.746-.746V25.992a.747.747,0,0,1,.746-.746H31.45a.747.747,0,0,1,.746.746ZM10.282,18.209A9.407,9.407,0,0,1,26.947,17.8a.522.522,0,0,1-.916.5,8.36,8.36,0,0,0-14.811.363.522.522,0,0,1-.939-.458Zm8.441-1.826a5.971,5.971,0,0,0-5.329,3.332.522.522,0,1,1-.938-.459,6.975,6.975,0,0,1,12.39-.287.522.522,0,1,1-.915.5,5.954,5.954,0,0,0-5.208-3.09Zm1.909,4.933a.522.522,0,1,1-.928.48,1.117,1.117,0,0,0-1.978.019.522.522,0,1,1-.932-.471,2.154,2.154,0,0,1,3.838-.029Zm-5.07-.554a.522.522,0,1,1-.938-.459,4.584,4.584,0,0,1,8.116-.171.522.522,0,1,1-.917.5,3.543,3.543,0,0,0-6.261.13Zm-1.509,6.393V29.6a.522.522,0,0,1-1.044,0V27.155a.522.522,0,0,1,1.044,0Zm5.158,0V29.6a.522.522,0,0,1-1.044,0V27.155a.522.522,0,0,1,1.044,0Zm5.021,0V29.6a.522.522,0,0,1-1.044,0V27.155a.522.522,0,0,1,1.044,0Z" transform="translate(15969 4298.042)" fill="#f2eee8"/>
  </g>
</svg>
