<svg xmlns="http://www.w3.org/2000/svg" width="40" height="40" viewBox="0 0 40 40">
  <g id="Group_17704" data-name="Group 17704" transform="translate(-15969 -4357)">
    <rect id="Rectangle_5094" data-name="Rectangle 5094" width="40" height="40" transform="translate(15969 4357)" fill="#f2eee8" opacity="0"/>
    <path id="_024-swimming_pool" data-name="024-swimming pool" d="M30.159,14.257H22.467V12.924a2.232,2.232,0,0,0-4.444,0v1.333H16.874l.008-1.333A2.141,2.141,0,0,0,14.66,10.9a2.133,2.133,0,0,0-2.222,2.026v1.333H4.476A.476.476,0,0,0,4,14.732V30.493a.475.475,0,0,0,.476.476H30.159a.475.475,0,0,0,.476-.476V14.732A.475.475,0,0,0,30.159,14.257ZM4.951,22.074a4.174,4.174,0,0,0,5.745.234,3.155,3.155,0,0,1,4.276,0,4.051,4.051,0,0,0,2.718,1.032c2.434.065,2.711-1.875,4.851-1.868,2.308.053,2.327,1.908,4.861,1.868a3.722,3.722,0,0,0,2.28-.71v3.111a3.27,3.27,0,0,1-2.28.943c-2.3-.055-2.325-1.909-4.861-1.868-2.53-.04-2.549,1.814-4.851,1.868-2.3-.054-2.324-1.908-4.856-1.868-2.532-.041-2.553,1.813-4.856,1.868-1.519.008-1.925-.85-3.027-1.438Zm16.565-2.9H16.843l.01-1.615h4.663Zm-4.679.951h4.679v.519a4.435,4.435,0,0,0-1.69.91,3.069,3.069,0,0,1-2.135.835,3.119,3.119,0,0,1-.867-.114Zm12.846-4.918v6.238a3.271,3.271,0,0,1-2.28.943c-2.3-.047-2.378-1.969-4.936-1.863V15.208ZM18.974,12.924c.021-1.382,2.48-1.448,2.542,0v1.333H18.974Zm2.542,2.284v1.4H16.859l.009-1.4ZM13.39,12.924c.02-1.38,2.482-1.451,2.541,0l-.008,1.335H13.39Zm2.527,2.284c-.008,1.234-.033,5.287-.041,6.588a4.415,4.415,0,0,0-3.041-1.274,4,4,0,0,0-2.718,1.033,3.149,3.149,0,0,1-4.268,0,6.3,6.3,0,0,0-.9-.6V15.208ZM4.951,30.018V26.37c.106.076.211.155.318.237a4.1,4.1,0,0,0,5.427,0,3.16,3.16,0,0,1,4.276,0,4.094,4.094,0,0,0,5.437,0,3.157,3.157,0,0,1,4.276,0,4.094,4.094,0,0,0,5,.321v3.091Z" transform="translate(15971.605 4356.104)" fill="#f2eee8"/>
  </g>
</svg>
